<?xml version="1.0" encoding="utf-8"?>
<!-- Generator: Adobe Illustrator 22.1.0, SVG Export Plug-In . SVG Version: 6.00 Build 0)  -->
<svg version="1.1" xmlns="http://www.w3.org/2000/svg" xmlns:xlink="http://www.w3.org/1999/xlink" x="0px" y="0px"
	 viewBox="0 0 750 500" style="enable-background:new 0 0 750 500;" xml:space="preserve">
<style type="text/css">
	.st0{fill:#F5F5F5;}
	.st1{fill:#E0E0E0;}
	.st2{fill:#EBEBEB;}
	.st3{fill:#FAFAFA;}
	.st4{display:none;}
	.st5{display:inline;fill:#EBEBEB;}
	.st6{fill:#FF2C9C;}
	.st7{fill:#263238;}
	.st8{fill:#455A64;}
	.st9{fill-rule:evenodd;clip-rule:evenodd;fill:#E0E0E0;}
	.st10{fill-rule:evenodd;clip-rule:evenodd;fill:#F5F5F5;}
	.st11{fill:none;}
	.st12{fill:#B78876;}
	.st13{fill:#AA6550;}
	.st14{opacity:0.4;}
	.st15{fill:#1B1B1B;}
	.st16{fill:#FFFFFF;}
	.st17{fill:#375A65;}
	.st18{fill:none;stroke:#4E585D;stroke-width:5.000000e-02;stroke-miterlimit:10;}
	.st19{fill:none;stroke:#000000;stroke-miterlimit:10;}
	.st20{opacity:0.3;}
</style>
<g id="Background_Complete">
	<g>
		<path class="st0" d="M183.7,396.8c10.8-7.6,14.5-16.9,15.7-30.1c1.2-13.2-3.6-26.8-12.8-36.2c-7.7-7.9-18.3-13.1-24.1-22.5
			c-6.1-10-5.9-23.7-14.4-31.8c-5.8-5.6-14.4-7.1-21.5-10.9c-5.8-3.1-10.6-7.8-15.9-11.8c-5.3-3.9-11.6-7.2-18.2-6.7
			c-9.9,0.7-17.6,10.5-18.1,20.4c-0.5,9.9,5.1,19.4,12.7,25.9c5.5,4.7,12.3,8.2,15.9,14.5c6.8,11.7-0.3,28,7,39.5
			c5.3,8.3,17.3,12.3,19,22.1c0.6,3.6-0.4,7.2-0.4,10.9c0.1,11.4,10.7,20.5,21.9,22.6C161.8,404.5,173.2,401,183.7,396.8"/>
	</g>
	<g>
		<g>
			<path class="st1" d="M114.1,286.8c0,0,0.4,0.5,1.2,1.3c0.9,0.9,2.1,2.1,3.6,3.6c1.6,1.5,3.5,3.5,5.6,5.8c2.1,2.3,4.6,4.9,7.1,8
				c1.3,1.5,2.6,3.1,4,4.8c1.4,1.7,2.7,3.5,4.1,5.3c2.9,3.7,5.6,7.8,8.5,12.1c5.6,8.8,11.3,18.8,16.3,29.8c4.9,11,8.6,21.9,11.5,32
				c1.3,5.1,2.6,9.9,3.4,14.4c0.4,2.3,1,4.5,1.3,6.6c0.3,2.1,0.6,4.2,0.9,6.1c0.7,3.9,0.9,7.5,1.3,10.6c0.4,3.1,0.5,5.8,0.6,8
				c0.1,2.1,0.2,3.8,0.3,5.1c0.1,1.2,0.2,1.8,0.2,1.8c0,0,0.1-0.6,0.1-1.8c0-1.3,0-3-0.1-5.1c0-2.2-0.1-4.9-0.4-8.1
				c-0.3-3.1-0.4-6.7-1.1-10.7c-0.3-2-0.6-4-0.8-6.2c-0.3-2.1-0.8-4.3-1.2-6.6c-0.8-4.6-2.1-9.4-3.3-14.5
				c-2.8-10.1-6.5-21.1-11.5-32.2c-5-11-10.7-21.1-16.5-29.9c-3-4.3-5.7-8.5-8.7-12.1c-1.4-1.8-2.8-3.7-4.2-5.3
				c-1.4-1.6-2.8-3.2-4.1-4.7c-2.5-3.1-5.1-5.6-7.3-7.9c-2.1-2.3-4.1-4.2-5.8-5.7c-1.6-1.4-2.8-2.6-3.8-3.4
				C114.6,287.1,114.2,286.7,114.1,286.8z"/>
		</g>
	</g>
	<path class="st2" d="M670.1,202.2c0,0-9.5-6.3-21.2,16.5c-11.6,22.8-16,36-16,36s-3.1,4.8-6.4,1.7c-3.3-3.1-7.8-12-13.4-10.4
		c-5.8,1.7-7.7,8.1-6.6,17.6c1.1,9.5,2.8,30.4,2.9,32.3c0.1,1.9-0.9,4.6-3.5,2.8c-2.6-1.8-17.4-18.3-24.8-10.8s0,33.5,0.8,36.3
		c0.8,2.9,0.2,4.1-1.2,4.8c-1.4,0.7-5.8-5.3-10.2-9.8c-4.4-4.5-10.3-9-14.2-4.3c-3.9,4.7-5.2,24.2,13.4,55.8l9.5,14.1l17.1-0.9
		c36.4-4.3,51.2-17,52.6-22.9c1.4-6-5.7-8-12-8.8c-6.3-0.8-13.8-0.7-14-2.2c-0.3-1.5,0.4-2.7,3.1-3.8c2.7-1.1,27.9-10.8,29.4-21.3
		c1.5-10.4-20.6-12.3-23.6-13.3s-1.4-3.5,0.1-4.5c1.6-1,19.3-12.3,27.5-17.1c8.2-4.8,12.3-10.2,10.1-15.9
		c-2.1-5.4-11.9-3.7-16.3-4.4c-4.5-0.7-2.5-6.1-2.5-6.1s7.9-11.4,19.1-34.5c11.2-23,0.1-26.9,0.1-26.9"/>
	<g>
		<path class="st1" d="M659.6,222.6c0,0-0.1,0.2-0.2,0.5c-0.2,0.3-0.4,0.8-0.7,1.4c-0.6,1.3-1.5,3.1-2.6,5.5
			c-2.3,4.7-5.6,11.6-9.8,20c-8.3,16.9-20,40.1-32.9,65.7c-13,25.6-24.7,48.8-33.1,65.6c-4.2,8.4-7.6,15.2-9.9,19.9
			c-1.2,2.3-2.1,4.2-2.7,5.4c-0.3,0.6-0.5,1.1-0.7,1.4c-0.2,0.3-0.3,0.5-0.3,0.5s0.1-0.2,0.2-0.5c0.2-0.3,0.4-0.8,0.7-1.4
			c0.6-1.3,1.5-3.1,2.6-5.5c2.3-4.7,5.6-11.6,9.8-20c8.3-16.9,20-40.1,32.9-65.7c13-25.6,24.7-48.8,33.1-65.6
			c4.2-8.4,7.6-15.2,9.9-19.9c1.2-2.3,2.1-4.2,2.7-5.4c0.3-0.6,0.5-1.1,0.7-1.4C659.5,222.8,659.6,222.6,659.6,222.6z"/>
	</g>
	<g>
		<path class="st1" d="M618.9,258.6c0,0,0.2,0.4,0.4,1.2c0.2,0.8,0.6,1.8,1,3.2c0.8,2.7,1.7,6.5,2.7,10.7c1,4.1,1.8,7.9,2.5,10.8
			c0.3,1.3,0.6,2.4,0.8,3.3c0.2,0.8,0.3,1.2,0.2,1.2c0,0-0.2-0.4-0.4-1.2c-0.2-0.8-0.6-1.9-0.9-3.2c-0.7-2.7-1.7-6.5-2.7-10.7
			c-1-4.1-1.9-7.9-2.6-10.7c-0.3-1.3-0.6-2.4-0.8-3.2C619,259.1,618.9,258.6,618.9,258.6z"/>
	</g>
	<g>
		<path class="st1" d="M628.1,289.2c0-0.1,7.7-2.5,17.2-5.2c9.6-2.7,17.3-4.9,17.4-4.7c0,0.1-7.7,2.5-17.2,5.2
			C636,287.2,628.2,289.3,628.1,289.2z"/>
	</g>
	<g>
		<path class="st1" d="M606.5,327.6c0,0,0.4-0.1,1.3-0.1c0.9,0,2.1,0,3.4,0c2.9,0,6.9,0,11.3-0.2c4.4-0.2,8.4-0.4,11.2-0.7
			c1.4-0.1,2.5-0.2,3.4-0.3c0.8-0.1,1.3-0.1,1.3,0c0,0-0.4,0.1-1.2,0.2c-0.8,0.1-2,0.3-3.4,0.4c-2.9,0.3-6.8,0.7-11.3,0.8
			c-4.4,0.2-8.4,0.1-11.3,0c-1.4-0.1-2.6-0.1-3.4-0.2C606.9,327.7,606.5,327.7,606.5,327.6z"/>
	</g>
	<g>
		<path class="st1" d="M592,301.8c0,0,0.3,0.3,0.7,1c0.4,0.7,1,1.6,1.6,2.7c1.4,2.3,3.2,5.5,5.3,9c2,3.5,3.8,6.7,5.1,9.1
			c0.6,1.1,1.1,2,1.5,2.8c0.3,0.7,0.5,1,0.5,1.1c0,0-0.3-0.3-0.7-1c-0.4-0.7-1-1.6-1.6-2.7c-1.4-2.3-3.2-5.5-5.3-9
			c-2-3.5-3.8-6.7-5.1-9.1c-0.6-1.1-1.1-2-1.5-2.8C592.2,302.2,592,301.8,592,301.8z"/>
	</g>
	<g>
		<path class="st1" d="M568.6,333.3c0,0,0.3,0.4,0.8,1.2c0.6,0.9,1.3,2.1,2.1,3.4c1.8,2.9,4.2,7,6.8,11.5c2.6,4.5,5,8.6,6.7,11.5
			c0.8,1.4,1.5,2.6,2,3.5c0.5,0.8,0.7,1.3,0.7,1.3c0,0-0.3-0.4-0.8-1.2c-0.6-0.9-1.3-2.1-2.1-3.4c-1.8-2.9-4.2-7-6.8-11.5
			c-2.6-4.5-5-8.6-6.7-11.5c-0.8-1.4-1.5-2.6-2-3.5C568.8,333.8,568.6,333.3,568.6,333.3z"/>
	</g>
	<g>
		<path class="st1" d="M587.5,364.9c0,0,0.6-0.1,1.6-0.1c1.1,0,2.6-0.1,4.3-0.1c3.7-0.1,8.7-0.3,14.3-0.7c5.6-0.4,10.6-0.8,14.2-1.2
			c1.7-0.2,3.2-0.3,4.3-0.4c1-0.1,1.6-0.1,1.6-0.1c0,0-0.6,0.1-1.6,0.3c-1,0.2-2.5,0.4-4.3,0.6c-3.6,0.5-8.7,1-14.2,1.3
			c-5.6,0.4-10.6,0.5-14.3,0.5c-1.8,0-3.3,0-4.3,0C588,365,587.5,365,587.5,364.9z"/>
	</g>
	<g>
		<path class="st1" d="M464.5,87.4h68.7c3,0,5.4,2.4,5.4,5.4v45.5c0,3-2.4,5.4-5.4,5.4H497l-17.2,17.2v-17.2h-15.3c-2.2,0-4-1.8-4-4
			V91.4C460.5,89.2,462.3,87.4,464.5,87.4z"/>
	</g>
	<g>
		<path class="st3" d="M487.2,116.5c0,2.2-1.8,4-4,4c-2.2,0-4-1.8-4-4c0-2.2,1.8-4,4-4C485.4,112.5,487.2,114.3,487.2,116.5z"/>
	</g>
	<g>
		<path class="st3" d="M503.2,116.5c0,2.2-1.8,4-4,4c-2.2,0-4-1.8-4-4c0-2.2,1.8-4,4-4C501.4,112.5,503.2,114.3,503.2,116.5z"/>
	</g>
	<g>
		<path class="st3" d="M519.2,116.5c0,2.2-1.8,4-4,4s-4-1.8-4-4c0-2.2,1.8-4,4-4S519.2,114.3,519.2,116.5z"/>
	</g>
</g>
<g id="Background_Simple" class="st4">
	<path class="st5" d="M100.2,262.1c-21.5-42.1-3-107.4,26.7-144.2c38.5-47.6,118.1-42.7,163.6-8.2c28.3,21.4,47.8,54.1,79.4,70.3
		c36.9,18.9,81.1,11.2,121.7,2.9c40.6-8.2,84.9-16,121.7,2.9c31.1,15.9,51.5,50.9,50,85.8c-1,22.6-10.4,44.1-22.8,62.9
		c-16.2,24.5-38.2,45.8-64.9,58c-33.9,15.5-72.5,15.5-109.8,16.4c-60.2,1.4-121,5.6-180.3-4.6C205.5,390.8,124.4,344.3,100.2,262.1"
		/>
</g>
<g id="Plants">
	<g>
		<g>
			<path class="st6" d="M576,430.9c-17.2-16.7-17.5-42.6-13-65c0.7-3.8,1-7.8,3.3-10.8c2.3-3,6.9-4.6,10-2.5
				c2.6,1.8,3.3,5.2,4.4,8.2c1.5,3.9,4.1,7.4,7.5,9.9c2.2,1.6,5,2.9,7.6,2c3.5-1.3,4.7-5.7,5.3-9.5c1.1-7,2.2-14,3.3-21
				c0.6-3.8,1.2-7.6,2.9-11c1.7-3.4,4.9-6.3,8.6-6.7c3.7-0.4,7.8,2.4,8,6.2c0.1,1.6-0.5,3.1-0.7,4.7c-0.1,1.6,0.3,3.4,1.7,4.1
				c1.4,0.7,3.1-0.1,4.4-1.1c4.5-3.2,7.9-7.6,11.2-12.1c3.2-4.5,6.4-9,10.6-12.6c4.2-3.6,9.6-6,15-5.5c5.4,0.6,10.6,4.8,11.1,10.3
				c0.5,5.5-3.5,10.4-7.5,14.1c-6,5.5-12.8,10.2-20.1,13.8c-1.3,0.6-2.7,1.3-3.4,2.7c-1.2,2.4,0.7,5.2,3.1,6.5
				c2.6,1.4,5.7,1.6,8.6,2.4c2.9,0.8,5.8,2.6,6.5,5.6c0.9,4.1-2.9,7.6-6.5,9.7c-7.2,4.2-15.1,7.2-23.2,8.8c-2.9,0.6-6,1-8.5,2.5
				c-2.5,1.6-4.4,4.7-3.5,7.6c0.9,2.9,4.2,4.3,7.2,4.2c3-0.1,5.8-1.2,8.7-1.8c5.5-1.1,12.1,0.3,14.6,5.3c1.7,3.3,1.2,7.4-0.4,10.7
				c-1.7,3.3-4.4,6-7.2,8.3c-9.8,8.3-21.7,14.4-34.3,16.6C598.5,437.8,587.2,437.2,576,430.9"/>
		</g>
	</g>
	<g>
		<g>
			<g>
				<path class="st7" d="M573,447.6c2.3-8.8,6-19.1,11.2-29.9c5.2-10.9,11.9-22.3,19.2-34c1.9-2.9,3.7-5.8,5.5-8.7
					c1.8-2.8,3.6-5.7,5.5-8.3c3.8-5.3,7.9-10.1,11.9-14.6c4-4.4,8-8.5,11.8-12.3c3.8-3.8,7.3-7.2,10.7-10.2c6.8-6,12.8-10.3,17-13
					c2.1-1.4,3.8-2.4,5-3c0.6-0.3,1-0.6,1.3-0.8c0.3-0.2,0.5-0.2,0.5-0.2c0,0-0.1,0.1-0.4,0.3c-0.3,0.2-0.7,0.5-1.3,0.8
					c-1.1,0.7-2.8,1.8-4.9,3.2c-4.2,2.8-10.1,7.1-16.8,13.1c-3.4,3-6.9,6.5-10.6,10.3c-3.7,3.8-7.7,7.9-11.7,12.3
					c-4,4.4-8.1,9.2-11.9,14.5c-1.9,2.6-3.7,5.4-5.5,8.3c-1.8,2.8-3.6,5.7-5.5,8.7c-7.4,11.7-14,23.1-19.3,33.9
					c-5.2,10.8-8.9,21-11.3,29.8"/>
			</g>
		</g>
	</g>
	<g>
		<g>
			<g>
				<path class="st7" d="M614.7,366.7c0,0-0.1-0.6-0.1-1.7c0-1.1,0-2.6,0-4.5c0.1-3.8,0.4-9.1,0.7-14.9c0.3-5.8,0.6-11.1,0.6-14.9
					c0-1.9,0-3.4,0-4.5c0-1.1,0-1.7,0.1-1.7c0,0,0.1,0.6,0.2,1.6c0.1,1.1,0.2,2.6,0.2,4.5c0.1,3.8,0,9.1-0.4,14.9
					c-0.3,5.7-0.7,10.9-0.9,14.9c-0.1,1.8-0.2,3.3-0.2,4.5C614.8,366.1,614.7,366.7,614.7,366.7z"/>
			</g>
		</g>
	</g>
	<g>
		<g>
			<g>
				<path class="st7" d="M664.4,365.5c0,0-0.7,0-2-0.1c-1.3-0.1-3.1-0.2-5.3-0.3c-4.5-0.2-10.7-0.4-17.6-0.2
					c-6.9,0.2-13.1,0.6-17.6,1.1c-2.2,0.2-4.1,0.4-5.3,0.6c-1.3,0.1-1.9,0.2-2,0.2c0,0,0.7-0.2,1.9-0.4c1.2-0.2,3.1-0.5,5.3-0.8
					c4.5-0.6,10.7-1.1,17.6-1.3c6.9-0.2,13.1,0,17.6,0.4c2.3,0.2,4.1,0.4,5.3,0.6C663.7,365.4,664.4,365.5,664.4,365.5z"/>
			</g>
		</g>
	</g>
	<g>
		<g>
			<g>
				<path class="st7" d="M584.9,416.9c0,0-0.1-0.2-0.2-0.6c-0.1-0.5-0.3-1.1-0.5-1.9c-0.5-1.6-1.1-4-1.8-7
					c-1.4-5.9-3.1-14.1-4.9-23.2c-1.8-9.1-3.4-17.3-4.7-23.2c-0.6-2.9-1.2-5.3-1.6-7c-0.2-0.8-0.3-1.4-0.4-1.9
					c-0.1-0.4-0.1-0.7-0.1-0.7c0,0,0.1,0.2,0.2,0.6c0.1,0.5,0.3,1.1,0.5,1.9c0.5,1.6,1.1,4,1.8,7c1.4,5.9,3.1,14.1,4.9,23.2
					c1.8,9.1,3.4,17.3,4.7,23.2c0.6,2.9,1.2,5.3,1.6,7c0.2,0.8,0.3,1.4,0.4,1.9C584.9,416.6,584.9,416.9,584.9,416.9z"/>
			</g>
		</g>
	</g>
	<g>
		<g>
			<g>
				<path class="st7" d="M652.4,406.7c0,0-0.2,0.1-0.7,0.2c-0.5,0.1-1.2,0.2-2,0.3c-1.8,0.3-4.3,0.7-7.2,1.1
					c-6.1,0.9-14.5,2.3-23.8,3.9c-9.3,1.5-17.7,2.9-23.8,3.7c-3.1,0.4-5.5,0.7-7.3,0.9c-0.8,0.1-1.4,0.1-2,0.2c-0.5,0-0.7,0-0.7,0
					c0,0,0.2-0.1,0.7-0.2c0.5-0.1,1.2-0.2,2-0.3c1.8-0.3,4.3-0.7,7.2-1.1c6.1-0.9,14.5-2.3,23.8-3.9c9.3-1.5,17.7-2.9,23.8-3.7
					c3.1-0.4,5.5-0.7,7.3-0.9c0.8-0.1,1.4-0.1,2-0.2C652.1,406.6,652.4,406.6,652.4,406.7z"/>
			</g>
		</g>
	</g>
	<path class="st6" d="M114.6,352c5.4-1.5,11.3-0.1,16.1,2.9c4.8,2.9,8.5,7.3,11.4,12.1c5.7,9.2,7.7,21.5,7.9,32.3
		c-12-0.6-22.2-10.1-27.1-15.2C115.2,375.9,106.2,356.5,114.6,352"/>
	<path class="st6" d="M169.4,406.6c-4.9-3.9-7.1-10.7-6-16.8c1.1-6.2,5.1-11.6,10.3-15.1c2.4-1.6,5.4-2.9,8.1-2.1
		c2.6,0.8,4.4,3.3,4.9,6c0.5,2.7-0.1,5.4-1,8C182.6,395.3,178,403.2,169.4,406.6"/>
	<g>
		<path class="st7" d="M180.3,440.9c-0.1,0-0.5-0.7-1.2-1.9c-0.7-1.3-1.7-3.2-2.8-5.5c-2.2-4.7-5.2-11.4-6.7-19.3
			c-1.4-8-0.4-15.5,1.6-20.4c1-2.5,2.1-4.3,2.9-5.5c0.9-1.2,1.4-1.8,1.5-1.7c0.2,0.1-1.9,2.6-3.6,7.5c-1.7,4.8-2.6,12.1-1.2,19.8
			c1.4,7.8,4.2,14.4,6.2,19.2C179.1,437.9,180.5,440.9,180.3,440.9z"/>
	</g>
	<g>
		<path class="st7" d="M122.8,366.2c0.1-0.1,1,0.9,2.6,2.7c1.6,1.8,3.9,4.4,6.7,7.7c5.6,6.6,13.2,15.7,21.4,26.1
			c8.2,10.4,15.3,19.9,20.4,26.9c2.5,3.5,4.5,6.3,5.9,8.3c1.4,2,2.1,3.1,2,3.2c-0.1,0-0.9-1-2.4-2.9c-1.6-2.1-3.7-4.8-6.2-8.1
			c-5.2-6.9-12.5-16.3-20.6-26.7c-8.1-10.3-15.6-19.6-21.1-26.3c-2.6-3.2-4.8-5.9-6.4-7.9C123.5,367.3,122.7,366.2,122.8,366.2z"/>
	</g>
	<path class="st6" d="M161.3,420c-10.3-8.2-24.7-11-37.3-7.2c-3.2,1-6.8,2.9-7.1,6.3c-0.3,3.3,2.8,6,5.8,7.5
		c12.5,6.2,28.8,3.9,39.1-5.7"/>
	<g>
		<path class="st7" d="M131.9,418.9c0-0.1,0.7-0.3,2.1-0.6c0.7-0.2,1.5-0.4,2.5-0.5c1-0.1,2.1-0.3,3.4-0.3c2.5-0.2,5.5-0.1,8.8,0.4
			c3.3,0.5,6.9,1.4,10.5,2.8c3.6,1.4,6.8,3.2,9.5,5.1c2.7,1.9,5,3.9,6.7,5.8c0.9,0.9,1.6,1.8,2.2,2.6c0.7,0.8,1.1,1.5,1.5,2.1
			c0.8,1.2,1.2,1.8,1.1,1.9c-0.2,0.1-1.9-2.5-5.4-5.9c-1.8-1.7-4-3.6-6.7-5.4c-2.7-1.8-5.9-3.5-9.4-4.9c-3.5-1.4-7-2.3-10.2-2.8
			c-3.2-0.5-6.2-0.7-8.6-0.6C135,418.4,131.9,419.1,131.9,418.9z"/>
	</g>
</g>
<g id="Speech_Bubble">
	<path class="st6" d="M296.4,94.2l-8.4,7l-4.1-1.8l-0.8-3.5c0,0,9-6.6,8.7-7c-0.8-0.9-2-1.3-3.1-1.4c-2.2-0.3-4.3,0.3-6.1,1.6
		l-1.6,1.2c-2.9,2.2-4.5,5.8-3.8,9.4c0,0.2,0.1,0.3,0.1,0.3l-24.9,20.7c-3.9-1.3-8.1,0.5-9.8,4.3c-1.8,4,0,8.8,4.1,10.6
		c4,1.8,8.8,0,10.6-4.1c0.7-1.6,0.9-3.4,0.5-5l24.6-20.6c0.9,0.9,2.2,1.2,3.5,1.3c2.5,0.1,4.9-1,6.7-2.7l2.1-2
		C298.1,98.8,296.4,94.2,296.4,94.2z M248.3,131.6c-1.9-0.8-2.7-3-1.9-4.8c0.8-1.9,3-2.7,4.8-1.9c1.9,0.8,2.7,3,1.9,4.8
		C252.4,131.6,250.2,132.5,248.3,131.6z"/>
	<g>
		<g>
			<path class="st7" d="M334,141.9c-1,0.1-9.9,0.8-26.8,2.2l0.1,0c-4.8,5.7-11.9,11.6-21.5,15c-4.8,1.7-10.1,2.8-15.7,2.9
				c-5.6,0-11.6-0.7-17.4-2.7c-5.8-2-11.5-5.2-16.4-9.5c-5-4.3-9.2-9.8-12.3-16c-3-6.3-4.8-13.4-5-20.7c-0.1-0.9,0-1.8,0-2.7
				c0-0.9,0.1-1.8,0.1-2.8c0-0.9,0.2-1.8,0.3-2.7c0.1-0.9,0.3-1.8,0.4-2.7c0.2-0.9,0.5-1.8,0.7-2.7c0.3-0.9,0.4-1.8,0.7-2.7
				c0.3-0.9,0.6-1.8,1-2.6l0.5-1.3c0.2-0.4,0.4-0.9,0.6-1.3c3-6.6,7.4-12.5,12.7-17.2c5.3-4.7,11.5-8.1,17.9-10.1
				c6.5-2,13.2-2.6,19.5-2c6.4,0.6,12.4,2.4,17.8,5.1c10.7,5.4,18.6,14.1,22.8,23.2c0.5,1.1,1.1,2.2,1.5,3.4
				c0.4,1.1,0.8,2.3,1.2,3.4c0.5,2.3,1.3,4.5,1.5,6.7c0.2,1.1,0.4,2.2,0.5,3.2c0.1,1.1,0.1,2.1,0.2,3.2c0,0.5,0,1,0.1,1.5
				c0,0.5,0,1-0.1,1.5c0,1-0.1,2-0.1,2.9l0-0.1C328.4,132.3,333.5,140.9,334,141.9c-0.6-0.9-5.8-9.6-15.4-25.6l0,0l0-0.1
				c0-0.9,0.1-1.9,0.1-2.9c0-0.5,0.1-1,0.1-1.5c0-0.5-0.1-1-0.1-1.5c-0.1-1-0.1-2.1-0.2-3.1c-0.1-1.1-0.3-2.1-0.5-3.2
				c-0.2-2.2-1-4.4-1.5-6.7c-0.4-1.1-0.8-2.2-1.2-3.4c-0.4-1.2-0.9-2.3-1.5-3.4c-4.2-9-12-17.6-22.6-23c-5.3-2.7-11.3-4.4-17.6-5
				c-6.3-0.6-12.9,0-19.3,2c-6.4,2-12.5,5.4-17.7,10c-5.2,4.6-9.6,10.4-12.6,17c-0.2,0.4-0.4,0.8-0.6,1.3l-0.5,1.3
				c-0.3,0.9-0.6,1.7-1,2.6c-0.3,0.9-0.5,1.8-0.7,2.7c-0.2,0.9-0.5,1.8-0.7,2.7c-0.1,0.9-0.3,1.8-0.4,2.7c-0.1,0.9-0.3,1.8-0.3,2.7
				c0,0.9-0.1,1.8-0.1,2.7c-0.1,0.9-0.1,1.8,0,2.7c0.2,7.2,1.9,14.2,4.9,20.4c3,6.2,7.2,11.6,12.1,15.9c4.9,4.3,10.5,7.4,16.3,9.4
				c5.8,2,11.6,2.8,17.2,2.8c5.6-0.1,10.9-1.1,15.6-2.8c9.5-3.4,16.6-9.2,21.4-14.8l0,0l0.1,0C324.2,142.6,333,141.9,334,141.9z"/>
		</g>
	</g>
</g>
<g id="Device">
	<g>
		<g>
			<g>
				<g>
					<g>
						<path class="st8" d="M567.2,452.3H188.3c-8,0-14.6-6.5-14.6-14.6V197.1c0-8,6.5-14.6,14.6-14.6h378.9c8,0,14.6,6.5,14.6,14.6
							v240.7C581.8,445.8,575.3,452.3,567.2,452.3z"/>
					</g>
				</g>
			</g>
			<g>
				<g>
					<g>
						<path class="st8" d="M581.5,456H175.1c-9.8,0-17.8-8-17.8-17.8v-5.8h442.1v5.8C599.3,448,591.4,456,581.5,456z"/>
					</g>
				</g>
			</g>
			<g>
				<g>
					<g>
						<rect x="185.3" y="193.2" class="st0" width="385" height="227.9"/>
					</g>
				</g>
			</g>
			<g>
				<g>
					<g>
						<g>
							<path class="st7" d="M338.1,432.4c0,0,0.1,0,0.4,0c0.3,0,0.7,0,1.3,0c1.2,0,2.9,0,5,0c4.4,0,10.8,0,18.7-0.1
								c15.9,0,37.9-0.1,62.4-0.1l0.5,0l-0.2,0.4c-0.8,1.3-1.6,2.8-2.5,4.2c-0.9,1.5-1.8,3-2.6,4.5l-0.1,0.1l-0.2,0
								c-33.9-0.1-62.9-0.1-77.2-0.1l-0.1,0l0-0.1c-1.8-2.9-3.1-5.1-4-6.6c-0.4-0.7-0.8-1.3-1-1.7
								C338.2,432.5,338.1,432.4,338.1,432.4s0.1,0.2,0.4,0.6c0.3,0.4,0.6,0.9,1.1,1.7c0.9,1.5,2.3,3.6,4.1,6.4l-0.1-0.1
								c14.3,0,43.3-0.1,77.2-0.1l-0.2,0.1c0.8-1.4,1.7-3,2.6-4.5c0.8-1.5,1.7-2.9,2.5-4.2l0.2,0.4c-24.4-0.1-46.3-0.1-62.1-0.1
								c-7.9,0-14.3-0.1-18.7-0.1c-2.2,0-3.9,0-5.1,0c-0.6,0-1,0-1.3,0C338.3,432.4,338.1,432.4,338.1,432.4z"/>
						</g>
					</g>
				</g>
			</g>
		</g>
	</g>
	<g>
		<g>
			<g>
				<path class="st9" d="M326.2,235.6c0.7-0.9,1.5-1.8,2.4-2.5l-0.6-3.2l4.9-2.1l1.9,2.6c1.1-0.2,2.3-0.2,3.5,0l1.8-2.7l5,2
					l-0.5,3.2c0.9,0.7,1.8,1.5,2.5,2.4l3.2-0.6l2.1,4.9l-2.6,1.9c0.2,1.1,0.2,2.3,0,3.5l2.7,1.8l-2,5l-3.2-0.5
					c-0.7,0.9-1.5,1.8-2.4,2.5l0.6,3.2l-4.9,2.1l-1.9-2.6c-1.1,0.2-2.3,0.2-3.5,0l-1.8,2.7l-5-2l0.5-3.2c-0.9-0.7-1.8-1.5-2.5-2.4
					l-3.2,0.6l-2.1-4.9l2.6-1.9c-0.2-1.1-0.2-2.3,0-3.5l-2.7-1.8l2-5L326.2,235.6L326.2,235.6z M331.5,241.1
					c-1.2,2.9,0.2,6.3,3.2,7.5c2.9,1.2,6.3-0.2,7.5-3.2c1.2-2.9-0.2-6.3-3.2-7.5C336,236.8,332.7,238.2,331.5,241.1z"/>
			</g>
		</g>
		<g>
			<g>
				<path class="st10" d="M306.2,339c2.1-2.7,4.4-5.2,7.1-7.2l-1.7-9.2l14.3-6.1l5.5,7.6c3.3-0.5,6.7-0.5,10.1-0.1l5.3-7.7l14.4,5.8
					l-1.5,9.3c2.8,2.1,5.2,4.4,7.2,7.1l9.2-1.7l6.1,14.3l-7.6,5.5c0.5,3.3,0.5,6.7,0.1,10.1l7.7,5.3l-5.8,14.4l-9.3-1.5
					c-2.1,2.7-4.4,5.2-7.1,7.2l1.7,9.2l-14.3,6.1l-5.5-7.6c-3.3,0.5-6.7,0.5-10.1,0.1l-5.3,7.7l-14.4-5.8l1.5-9.3
					c-2.8-2.1-5.2-4.4-7.2-7.1l-9.2,1.7l-6.1-14.3l7.6-5.5c-0.5-3.3-0.5-6.7-0.1-10.1l-7.7-5.3l5.8-14.4L306.2,339L306.2,339z
					 M321.6,355.1c-3.4,8.5,0.7,18.2,9.3,21.7c8.5,3.4,18.2-0.7,21.7-9.3c3.4-8.5-0.7-18.2-9.3-21.7
					C334.8,342.4,325.1,346.5,321.6,355.1z"/>
			</g>
		</g>
		<g>
			<g>
				<g>
					<path class="st11" d="M233.9,358.3c1.1-1.5,2.5-2.9,3.9-4l-0.9-5.1l7.9-3.4l3,4.2c1.8-0.3,3.7-0.3,5.6-0.1l3-4.3l8,3.2
						l-0.8,5.1c1.5,1.1,2.9,2.5,4,3.9l5.1-0.9l3.4,7.9l-4.2,3c0.3,1.8,0.3,3.7,0.1,5.6l4.3,3l-3.2,8l-5.1-0.8
						c-1.1,1.5-2.5,2.9-3.9,4l0.9,5.1l-7.9,3.4l-3-4.2c-1.8,0.3-3.7,0.3-5.6,0.1l-3,4.3l-8-3.2l0.8-5.1c-1.5-1.1-2.9-2.5-4-3.9
						l-5.1,0.9l-3.4-7.9l4.2-3c-0.3-1.8-0.3-3.7-0.1-5.6l-4.3-3l3.2-8L233.9,358.3L233.9,358.3z M242.5,367.2
						c-1.9,4.7,0.4,10.1,5.1,12c4.7,1.9,10.1-0.4,12-5.1c1.9-4.7-0.4-10.1-5.1-12C249.8,360.1,244.4,362.4,242.5,367.2z"/>
				</g>
			</g>
			<g>
				<g>
					<g>
						<path class="st7" d="M242.5,367.2c0,0,0.2-0.8,1-2c0.8-1.2,2.4-2.8,5-3.6c1.3-0.4,2.8-0.5,4.3-0.2c1.5,0.3,3.1,1,4.5,2.2
							c0.7,0.6,1.3,1.3,1.8,2.1c0.5,0.8,0.9,1.7,1.1,2.6c0.5,1.9,0.4,4-0.4,5.9c-0.8,1.9-2.1,3.5-3.8,4.5c-0.8,0.5-1.7,0.9-2.6,1.1
							c-0.9,0.2-1.8,0.3-2.7,0.3c-1.8,0-3.4-0.7-4.8-1.5c-1.3-0.8-2.3-2-3-3.1c-1.4-2.3-1.4-4.6-1.2-6.1
							C242.1,367.9,242.5,367.2,242.5,367.2c0.1,0-0.3,0.8-0.5,2.2c-0.2,1.4-0.1,3.6,1.3,5.9c0.7,1.1,1.6,2.2,2.9,3
							c1.3,0.8,2.8,1.4,4.5,1.4c0.8,0,1.7-0.1,2.6-0.3c0.9-0.2,1.7-0.6,2.5-1.1c1.6-1,2.8-2.5,3.6-4.3c0.7-1.8,0.8-3.8,0.4-5.6
							c-0.2-0.9-0.6-1.7-1-2.5c-0.5-0.8-1-1.4-1.6-2c-1.2-1.2-2.8-1.8-4.2-2.1c-1.5-0.3-2.9-0.2-4.1,0.1c-2.5,0.7-4.1,2.2-5,3.3
							C242.8,366.4,242.6,367.2,242.5,367.2z"/>
					</g>
				</g>
			</g>
			<g>
				<g>
					<g>
						<path class="st7" d="M233.9,358.3c0,0-0.1,0-0.3,0c-0.2,0-0.6-0.1-1-0.1c-0.9-0.1-2.2-0.3-3.8-0.6l0.1-0.1
							c-0.8,2-1.9,4.7-3.2,8l0-0.2c1.3,0.9,2.7,1.9,4.3,2.9l0.1,0.1l0,0.1c-0.2,1.7-0.2,3.6,0.1,5.6l0,0.1l-0.1,0.1
							c-1.3,1-2.7,2-4.2,3.1l0.1-0.2c1.1,2.5,2.2,5.1,3.4,7.9l-0.2-0.1c1.6-0.3,3.3-0.6,5.1-0.9l0.1,0l0.1,0.1
							c1.1,1.4,2.4,2.7,4,3.9l0.1,0.1l0,0.1c-0.3,1.6-0.5,3.3-0.8,5.1l-0.1-0.3c2.5,1,5.2,2.1,8,3.2l-0.3,0.1
							c0.9-1.3,1.9-2.8,2.9-4.3l0.1-0.1l0.2,0c1.7,0.2,3.6,0.2,5.5-0.1l0.2,0l0.1,0.1c1,1.3,2,2.8,3,4.2l-0.3-0.1
							c2.5-1.1,5.2-2.2,7.9-3.4l-0.2,0.3c-0.3-1.6-0.6-3.4-0.9-5.1l0-0.2l0.1-0.1c1.4-1.1,2.7-2.4,3.9-3.9l0,0l0.1-0.1l0.2,0
							c1.7,0.3,3.4,0.6,5.1,0.8l-0.3,0.2c1.1-2.7,2.2-5.4,3.2-8l0.1,0.3c-1.4-1-2.9-2-4.3-3l-0.1-0.1l0-0.2c0.2-1.9,0.2-3.7-0.1-5.5
							l0-0.2l0.1-0.1c1.4-1,2.8-2,4.2-3l-0.1,0.3c-1.1-2.7-2.3-5.3-3.4-7.9l0.3,0.1c-1.7,0.3-3.4,0.6-5.1,0.9l-0.1,0l-0.1-0.1
							c-1.2-1.5-2.5-2.8-4-3.9l-0.1-0.1l0-0.1c0.3-1.8,0.6-3.5,0.8-5.1l0.1,0.2c-2.8-1.1-5.5-2.2-8-3.2l0.2-0.1c-1,1.5-2,2.9-3,4.3
							l-0.1,0.1l-0.1,0c-2-0.2-3.8-0.2-5.6,0l-0.1,0l-0.1-0.1c-1.1-1.5-2.1-2.9-3-4.2l0.2,0.1c-3.1,1.3-5.7,2.4-7.9,3.3l0.1-0.1
							c0.4,2,0.7,3.7,0.9,5.1l0,0.1l0,0c-1.5,1.2-2.5,2.2-3.1,2.9c-0.3,0.3-0.5,0.6-0.7,0.8C234,358.2,234,358.3,233.9,358.3
							c0,0,0.1-0.1,0.2-0.3c0.1-0.2,0.3-0.5,0.6-0.8c0.6-0.7,1.5-1.8,3-3l0,0.1c-0.3-1.4-0.6-3.1-1-5.1l0-0.1l0.1,0
							c2.2-1,4.8-2.1,7.9-3.4l0.1,0l0.1,0.1c0.9,1.3,1.9,2.7,3.1,4.2l-0.2-0.1c1.8-0.3,3.6-0.3,5.7-0.1l-0.2,0.1
							c0.9-1.4,1.9-2.8,2.9-4.3l0.1-0.1l0.2,0.1c2.5,1,5.2,2.1,8,3.2l0.2,0.1l0,0.2c-0.3,1.7-0.5,3.4-0.8,5.1l-0.1-0.2
							c1.5,1.1,2.9,2.4,4.1,4l-0.2-0.1c1.7-0.3,3.4-0.6,5.1-0.9l0.2,0l0.1,0.2c1.1,2.6,2.2,5.2,3.4,7.9l0.1,0.2l-0.2,0.1
							c-1.4,1-2.8,2-4.2,3l0.1-0.2c0.3,1.9,0.3,3.8,0.1,5.7l-0.1-0.2c1.4,1,2.8,2,4.3,3l0.2,0.1l-0.1,0.2c-1.1,2.6-2.1,5.3-3.2,8
							l-0.1,0.2l-0.2,0c-1.7-0.3-3.4-0.5-5.1-0.8l0.3-0.1l0,0c-1.2,1.6-2.5,2.9-4,4l0.1-0.3c0.3,1.8,0.6,3.5,0.9,5.1l0,0.2L265,393
							c-2.7,1.2-5.4,2.3-7.9,3.4l-0.2,0.1l-0.1-0.2c-1-1.5-2.1-2.9-3-4.2l0.2,0.1c-1.9,0.3-3.9,0.3-5.7,0.1l0.2-0.1
							c-1,1.5-2,2.9-3,4.3l-0.1,0.2l-0.2-0.1c-2.8-1.1-5.5-2.2-8-3.2l-0.2-0.1l0-0.2c0.3-1.8,0.6-3.5,0.8-5.1l0.1,0.2
							c-1.6-1.2-3-2.6-4-4l0.2,0.1c-1.8,0.3-3.5,0.6-5.1,0.9l-0.2,0l-0.1-0.2c-1.2-2.8-2.3-5.4-3.4-7.9l-0.1-0.1l0.1-0.1
							c1.5-1.1,2.9-2.1,4.2-3l-0.1,0.2c-0.3-2-0.3-3.9,0-5.6l0.1,0.1c-1.5-1.1-3-2.1-4.3-3l-0.1-0.1l0-0.1c1.3-3.2,2.4-5.9,3.3-8
							l0-0.1l0.1,0c1.6,0.3,2.9,0.5,3.8,0.7c0.4,0.1,0.7,0.1,1,0.2C233.8,358.2,233.9,358.3,233.9,358.3z"/>
					</g>
				</g>
			</g>
		</g>
		<g>
			<g>
				<path class="st9" d="M214.4,252.7c1.6-4.4,3.8-8.6,6.5-12.3l-5.9-11.5l16.5-13.7l10.3,7.9c4.2-1.9,8.7-3.3,13.3-4.1l4-12.3
					l21.3,2l1.7,12.8c4.4,1.6,8.6,3.8,12.4,6.5l11.5-5.9l13.7,16.5l-7.9,10.3c1.9,4.2,3.3,8.7,4.1,13.3l12.3,4l-2,21.3l-12.8,1.7
					c-1.6,4.4-3.8,8.6-6.5,12.4l5.9,11.5l-16.5,13.7l-10.3-7.9c-4.2,1.9-8.7,3.3-13.3,4.1l-4,12.3l-21.3-2l-1.7-12.8
					c-4.4-1.6-8.6-3.8-12.4-6.5l-11.5,5.9l-13.7-16.5l7.9-10.3c-1.9-4.2-3.3-8.7-4.1-13.3l-12.3-4l2-21.3L214.4,252.7L214.4,252.7z
					 M241.2,267.9c-1.2,12.6,8.1,23.8,20.8,25c12.6,1.2,23.8-8.1,25-20.8c1.2-12.6-8.1-23.8-20.8-25
					C253.5,246,242.3,255.2,241.2,267.9z"/>
			</g>
		</g>
	</g>
	<g>
		<line class="st7" x1="173.8" y1="432.4" x2="581.8" y2="432.4"/>
	</g>
	<g>
		<g>
			<path class="st7" d="M581.8,432.4c0,0.1-91.3,0.2-204,0.2c-112.7,0-204-0.1-204-0.2c0-0.1,91.3-0.2,204-0.2
				C490.4,432.1,581.8,432.2,581.8,432.4z"/>
		</g>
	</g>
</g>
<g id="Character">
	<g>
		<g>
			<path class="st7" d="M362.3,125.8c-6.3,2.8-10,9.5-11.3,16.3c-1.4,6.7-0.9,13.7-1.5,20.5c-0.6,6.8-2.5,14-7.5,18.7
				c-4.7,4.4-11.5,6.2-15.5,11.2c-2.9,3.7-3.8,9-2.2,13.5c1.6,4.5,5.6,8,10.3,9c-3.1,5-1.6,11.9,2.4,16.2c4,4.3,9.9,6.3,15.7,7.2
				c10.2,1.6,21.1-0.2,29.8-5.9c8.6-5.7,14.7-15.6,14.7-25.9"/>
		</g>
		<g>
			<g>
				<path class="st8" d="M335.1,227.4c0,0-0.6-0.7-1.1-2.2c-0.5-1.5-0.9-3.9-0.4-6.7c0.3-1.4,0.7-2.9,1.4-4.5
					c0.7-1.5,1.7-3.1,2.9-4.6c2.3-3,5.5-5.8,8.7-8.8c3.2-3,6.1-6,8.4-8.9c2.4-2.9,4.2-5.8,5.4-8.4c1.2-2.6,1.9-4.8,2.2-6.4
					c0.2-0.8,0.2-1.4,0.3-1.8c0.1-0.4,0.1-0.6,0.1-0.6s0,0.2,0,0.6c-0.1,0.4-0.1,1-0.2,1.8c-0.3,1.6-0.9,3.8-2.1,6.5
					c-1.2,2.6-3,5.6-5.3,8.5c-2.4,3-5.3,6-8.4,9c-3.2,3-6.3,5.7-8.6,8.7c-1.2,1.5-2.1,3-2.9,4.5c-0.7,1.5-1.2,3-1.5,4.4
					c-0.5,2.8-0.2,5.1,0.2,6.6C334.6,226.6,335.1,227.3,335.1,227.4z"/>
			</g>
		</g>
	</g>
	<g>
		<g>
			<path class="st7" d="M437.5,148.4c0,9.2,4.3,17.7,8.1,20.8c5.4,4.4,13.4,6.5,18.6,8c7.6,2.1,14,8.8,15,16.7
				c1,7.9-4.2,16.3-11.9,18.3c4.8,4.9,3.4,13.4-0.6,19c-7.5,10.7-22.6,14.8-35,10.8c-12.5-4-22-15-25.7-27.5"/>
		</g>
		<g>
			<g>
				<path class="st8" d="M456.5,239.4c0-0.1,1.2-0.1,2.9-1.3c0.8-0.6,1.7-1.5,2.5-2.8c0.7-1.3,1.3-2.9,1.3-4.8
					c0-1.8-0.5-3.9-1.5-5.8c-1-1.9-2.6-3.7-4.5-5.3c-3.8-3.2-8.9-5.2-13.9-8c-2.5-1.5-4.8-3.1-6.6-5.2c-0.9-1-1.7-2.1-2.3-3.3
					c-0.6-1.2-1-2.4-1.3-3.6c-0.5-2.5-0.5-4.9-0.3-7.1c0.2-2.2,0.4-4.2,0.6-6.1c0.4-3.7,0.4-6.8-0.1-8.8c-0.1-0.5-0.3-0.9-0.4-1.3
					c-0.1-0.4-0.3-0.7-0.4-0.9c-0.2-0.5-0.3-0.8-0.3-0.8c0,0,0.1,0.3,0.4,0.8c0.1,0.3,0.3,0.6,0.4,0.9c0.1,0.4,0.3,0.8,0.4,1.3
					c0.6,2,0.7,5.1,0.3,8.9c-0.2,1.9-0.4,3.9-0.6,6.1c-0.1,2.2-0.2,4.6,0.4,6.9c0.5,2.4,1.7,4.7,3.5,6.7c1.8,2,4,3.6,6.5,5.1
					c4.9,2.8,10.1,4.9,14,8.1c1.9,1.6,3.5,3.4,4.6,5.4c1.1,2,1.6,4.1,1.5,6c-0.1,1.9-0.7,3.6-1.4,4.9c-0.8,1.3-1.7,2.2-2.6,2.8
					c-0.9,0.6-1.7,0.8-2.2,1C456.8,239.4,456.5,239.4,456.5,239.4z"/>
			</g>
		</g>
		<g>
			<g>
				<path class="st8" d="M474.5,208.6c-0.1,0,0.8-0.8,0.9-2.6c0-0.9-0.1-2-0.7-3.1c-0.6-1.1-1.5-2.3-2.8-3.1
					c-1.4-0.8-3.1-1.3-4.9-1.7c-1.9-0.3-3.9-0.4-6-0.8c-4.3-0.7-8.8-2.3-12.9-5.1c-4.1-2.8-7.4-6.4-9.6-10.1
					c-2.2-3.7-3.4-7.5-3.9-10.7c-0.6-3.2-0.5-5.9-0.4-7.7c0.1-0.9,0.2-1.6,0.2-2.1c0.1-0.5,0.1-0.7,0.1-0.7c0.1,0-0.1,1-0.2,2.8
					c-0.1,1.8,0,4.4,0.6,7.6c0.6,3.2,1.8,6.9,4,10.5c2.2,3.7,5.4,7.2,9.4,9.9c4.1,2.7,8.5,4.4,12.7,5.1c2.1,0.3,4.1,0.5,6,0.8
					c1.9,0.3,3.6,0.9,5,1.8c1.4,0.9,2.3,2.1,2.9,3.3c0.6,1.2,0.7,2.3,0.7,3.3c-0.1,0.9-0.4,1.6-0.7,2c-0.1,0.2-0.3,0.3-0.3,0.4
					C474.6,208.5,474.5,208.6,474.5,208.6z"/>
			</g>
		</g>
	</g>
	<g>
		<g>
			<g>
				<g>
					<g>
						<g>
							<g>
								<path class="st12" d="M366.8,256.7c1.3-13.8,2.4-28.4,2.4-28.4s-17.5-4.7-18.9-28.3c-1.3-22.5,7.3-73.2,7.3-73.2l0,0
									c26.6-7.9,56.3,2,72.5,24.3l0,0l-12.5,112c-1.5,13-13.8,22.1-27.7,20.4h0C375.9,281.9,365.6,269.9,366.8,256.7z"/>
							</g>
						</g>
						<g>
							<g>
								<path class="st13" d="M369.3,228.3c0,0,15.5,2.5,31.9-5.2c0,0-9.1,15.2-32.1,10.7L369.3,228.3z"/>
							</g>
						</g>
					</g>
					<g>
						<g>
							<path class="st12" d="M419.2,175.9c2.5-0.2,5.1,0.1,7.4,1.2c2.3,1.1,4.2,3.1,5,5.5c0.8,2.4,0.4,5.1-0.7,7.4
								c-1.1,2.3-2.9,4.2-4.8,5.8c-1.4,1.1-3,2.2-4.8,2.5c-1.8,0.4-3.8,0-5.1-1.3"/>
						</g>
					</g>
					<g>
						<g>
							<g>
								<path class="st13" d="M419.1,191.1c-0.3,0.1,0.6,1.7,3,1.3c1.1-0.2,2.3-1,3-2.2c0.8-1.2,1.3-2.4,1.6-4
									c0.3-1.5,0.1-3.2-0.6-4.5c-0.7-1.3-2-2.1-3.1-2.2c-2.3-0.3-3.2,1.3-3,1.3c0.2,0.2,1.2-0.5,2.6,0c1.4,0.4,2.7,2.6,2.1,5
									c-0.5,2.5-1.7,4.8-3.2,5.2C420.2,191.6,419.2,190.9,419.1,191.1z"/>
							</g>
						</g>
					</g>
				</g>
			</g>
			<g>
				<path class="st7" d="M368.9,136.8c-3.4,7.9-10.7,14.1-19.1,16.1c-0.5-5.7-0.8-11.5,0.1-17.2c0.9-5.7,3.2-11.3,7.4-15.3
					c4.1-4,10.3-6.1,15.8-4.7"/>
			</g>
		</g>
	</g>
	<g>
		<path class="st7" d="M370.5,126.3c-2.9,7.3-1.7,16,3,22.2c4.7,6.2,12.8,9.7,20.6,8.9c1.5-0.2,3.1-0.5,4.5,0.1
			c1.5,0.6,2.5,2,3.4,3.4c3.7,5.5,7.6,11.3,13.4,14.5c5.8,3.2,14.2,2.9,18.1-2.5c1.9-2.6,2.5-6,2.9-9.2c1.5-10.8,2.1-22.3-3-31.9
			c-3.8-7.1-10.5-12.4-17.9-15.6c-7.4-3.2-15.5-4.5-23.6-5c-4.7-0.3-9.5-0.3-13.9,1.5c-4.3,1.8-8.1,5.7-8.3,10.4"/>
	</g>
	<g>
		<g>
			<path class="st8" d="M435.5,166.7c0,0-0.1-0.3-0.3-0.8c-0.2-0.5-0.4-1.3-0.8-2.3c-0.7-1.9-1.9-4.7-3.9-7.9
				c-2-3.1-4.8-6.6-8.7-9.7c-3.8-3.1-8.7-5.6-13.9-7.8c-5.2-2.2-10.4-4-14.9-6.1c-4.5-2.1-8.3-4.4-11.2-6.8
				c-2.9-2.4-4.8-4.8-5.9-6.6c-0.6-0.9-1-1.6-1.2-2.1c-0.2-0.5-0.4-0.8-0.4-0.8c0,0,0.2,0.2,0.4,0.7c0.3,0.5,0.7,1.2,1.3,2
				c1.2,1.7,3.1,4,6,6.4c2.9,2.3,6.7,4.7,11.2,6.7c4.5,2.1,9.6,3.9,14.9,6.1c5.3,2.2,10.1,4.7,14,7.9c3.9,3.1,6.7,6.7,8.7,9.8
				c2,3.2,3.2,6,3.8,8c0.3,1,0.6,1.8,0.7,2.3C435.4,166.4,435.5,166.7,435.5,166.7z"/>
		</g>
	</g>
	<g>
		<g>
			<path class="st8" d="M428.2,165.4c0,0-0.2-0.2-0.4-0.7c-0.3-0.4-0.6-1.1-1.2-1.8c-1.1-1.5-3-3.6-5.8-5.6c-2.8-2-6.4-3.8-10.6-5.5
				c-2.1-0.9-4.3-1.8-6.5-2.9c-2.2-1.1-4.5-2.2-6.7-3.6c-4.5-2.7-8.5-5.8-11.6-9c-3.2-3.2-5.6-6.6-7.3-9.6c-1.7-3-2.6-5.6-3.2-7.4
				c-0.3-0.9-0.5-1.6-0.5-2.1c-0.1-0.5-0.2-0.8-0.1-0.8c0,0,0.1,0.2,0.2,0.7c0.1,0.5,0.3,1.2,0.6,2.1c0.6,1.8,1.6,4.4,3.3,7.3
				c1.7,2.9,4.1,6.2,7.3,9.4c3.2,3.2,7.1,6.2,11.6,8.9c2.2,1.3,4.5,2.5,6.7,3.6c2.2,1.1,4.4,2,6.5,2.9c4.1,1.8,7.8,3.6,10.6,5.7
				c2.8,2,4.6,4.1,5.7,5.7c0.5,0.8,0.9,1.4,1.1,1.9C428.2,165.2,428.3,165.4,428.2,165.4z"/>
		</g>
	</g>
	<g>
		<g>
			<path class="st8" d="M349.9,162.1c0,0-0.1-0.2-0.2-0.5c-0.1-0.4-0.3-0.9-0.5-1.6c-0.4-1.4-0.9-3.4-1-6c-0.1-2.6,0.1-5.7,1-9
				c0.9-3.3,2.5-6.8,5-9.9c1.2-1.6,2.6-2.9,4-4.2c1.4-1.2,2.9-2.2,4.4-3.1c2.9-1.9,5.4-3.6,7.2-5.4c1.8-1.8,3-3.6,3.5-4.9
				c0.6-1.3,0.7-2.1,0.8-2.1c0,0,0,0.2-0.1,0.6c-0.1,0.4-0.2,0.9-0.5,1.6c-0.5,1.3-1.6,3.2-3.5,5c-1.8,1.9-4.4,3.6-7.2,5.5
				c-1.4,0.9-2.9,1.9-4.3,3.1c-1.4,1.2-2.8,2.5-3.9,4.1c-2.4,3.1-4,6.5-4.9,9.7c-0.9,3.2-1.2,6.3-1.1,8.9c0.1,2.6,0.5,4.6,0.8,6
				c0.2,0.6,0.3,1.2,0.5,1.6C349.8,161.9,349.9,162.1,349.9,162.1z"/>
		</g>
	</g>
	<g>
		<g>
			<g>
				<path class="st6" d="M407.2,208.4c-5.4,0-10.9-1.8-14.9-5.4l0.6-0.7c7,6.3,18.4,7,26.1,1.6c7.7-5.3,11-16.3,7.6-25l0.9-0.3
					c3.6,9.1,0.1,20.6-7.9,26.2C416,207.2,411.6,208.4,407.2,208.4z"/>
			</g>
			<g>
				<path class="st6" d="M399.4,204.3c0,2.5-2.1,4.6-4.6,4.6c-2.5,0-4.6-2.1-4.6-4.6s2.1-4.6,4.6-4.6
					C397.4,199.7,399.4,201.8,399.4,204.3z"/>
			</g>
		</g>
		<g>
			
				<ellipse transform="matrix(0.1217 -0.9926 0.9926 0.1217 198.2814 585.8817)" class="st6" cx="430.2" cy="180.9" rx="15.4" ry="15.4"/>
		</g>
		<g>
			<g>
				<path class="st6" d="M427.7,178.8c-0.1,0-0.1-1.4,0.1-3.9c0-1.3,0.1-2.8,0.2-4.6c0-1.8,0.1-3.8,0-6c0-1.1-0.1-2.3-0.1-3.5
					c0-1.2-0.2-2.5-0.3-3.8c-0.1-1.3-0.3-2.6-0.5-4c-0.1-0.7-0.3-1.4-0.4-2.1c-0.1-0.7-0.3-1.4-0.5-2.1c-1.3-5.7-3.8-11.8-8.1-17
					c-4.3-5.2-9.9-8.7-15.4-10.8c-5.5-2.1-10.7-3.2-15.1-3.8c-4.4-0.6-8.1-0.8-10.6-1c-2.5-0.1-3.9-0.2-3.9-0.3
					c0-0.1,1.4-0.2,3.9-0.3c2.5,0,6.2,0,10.7,0.5c4.5,0.5,9.9,1.4,15.5,3.6c5.6,2.1,11.5,5.7,16,11.1c4.5,5.4,7,11.8,8.3,17.7
					c0.2,0.7,0.3,1.5,0.4,2.2c0.1,0.7,0.2,1.4,0.4,2.1c0.2,1.4,0.4,2.8,0.5,4.1c0.1,1.3,0.2,2.6,0.2,3.8c0,1.2,0.1,2.4,0,3.6
					c0,2.3-0.1,4.3-0.2,6.1c-0.1,1.8-0.3,3.3-0.4,4.6C428,177.4,427.8,178.8,427.7,178.8z"/>
			</g>
		</g>
		<g class="st14">
			<path class="st15" d="M441.2,180.9c0,5.9-4.8,10.6-10.6,10.6c-5.9,0-10.6-4.8-10.6-10.6c0-5.9,4.8-10.6,10.6-10.6
				C436.5,170.3,441.2,175,441.2,180.9z"/>
		</g>
		<g>
			<g>
				<path class="st16" d="M427.1,171c0,0,0.2-0.1,0.5-0.2c0.3-0.1,0.8-0.3,1.5-0.4c1.3-0.2,3.4-0.2,5.5,0.9c1.1,0.6,2.1,1.5,2.8,2.7
					c0.7,1.2,1.2,2.8,1.1,4.4c0,1.6-0.5,3.3-1.6,4.7c-1.1,1.4-2.7,2.4-4.5,2.9c-1.8,0.4-3.7,0.3-5.3-0.5c-1.6-0.8-2.8-2.1-3.5-3.5
					c-0.7-1.4-1-3-0.9-4.4c0.1-1.4,0.7-2.7,1.3-3.7c1.3-2,3.1-3.1,4.4-3.4c0.7-0.2,1.2-0.2,1.5-0.2c0.4,0,0.5,0.1,0.5,0.1
					c0,0.1-0.8-0.1-2,0.3c-1.2,0.4-2.9,1.4-4.2,3.4c-0.6,1-1.1,2.2-1.2,3.5c-0.1,1.3,0.2,2.8,0.9,4.2c0.7,1.3,1.8,2.6,3.3,3.3
					c1.5,0.7,3.3,0.9,5,0.4c1.7-0.4,3.2-1.4,4.2-2.7c1-1.3,1.5-2.9,1.5-4.4c0-1.5-0.3-3-1-4.1c-0.7-1.2-1.6-2-2.6-2.6
					c-2-1.2-4-1.2-5.3-1.1C427.8,170.7,427.2,171,427.1,171z"/>
			</g>
		</g>
		<g>
			<g>
				<path class="st16" d="M430.5,191.4c-0.1,0-0.4-1.1-0.5-2.5c-0.1-1.4,0.1-2.5,0.3-2.5c0.1,0,0.2,1.1,0.2,2.5
					C430.6,190.2,430.7,191.3,430.5,191.4z"/>
			</g>
		</g>
		<g>
			<g>
				<path class="st16" d="M436.4,189.3c-0.1,0-0.6-0.9-1.1-2.1c-0.5-1.2-0.8-2.3-0.6-2.3c0.1,0,0.6,0.9,1.1,2.1
					C436.2,188.2,436.5,189.2,436.4,189.3z"/>
			</g>
		</g>
		<g>
			<g>
				<path class="st16" d="M440.3,184.7c-0.1,0.1-0.8-0.4-1.6-1.1c-0.8-0.7-1.4-1.4-1.3-1.5c0.1-0.1,0.8,0.4,1.6,1.1
					C439.9,183.9,440.4,184.6,440.3,184.7z"/>
			</g>
		</g>
		<g>
			<g>
				<path class="st16" d="M440.6,178.2c0,0.1-0.6,0.1-1.2-0.2c-0.6-0.2-1.1-0.5-1-0.6c0-0.1,0.6-0.1,1.2,0.2
					C440.2,177.8,440.7,178.1,440.6,178.2z"/>
			</g>
		</g>
		<g>
			<g>
				<path class="st16" d="M423.6,189c-0.1,0,0.1-1.2,0.8-2.4c0.6-1.3,1.4-2.2,1.5-2.1c0.1,0.1-0.4,1.1-1.1,2.3
					C424.2,188,423.7,189,423.6,189z"/>
			</g>
		</g>
		<g>
			<g>
				<path class="st16" d="M420.4,183.6c-0.1-0.1,0.5-0.8,1.3-1.7c0.8-0.8,1.6-1.4,1.7-1.3c0.1,0.1-0.5,0.8-1.3,1.7
					C421.3,183.1,420.5,183.7,420.4,183.6z"/>
			</g>
		</g>
		<g>
			<g>
				<path class="st16" d="M422.9,176.2c0,0.1-0.4,0.4-1,0.5c-0.6,0.2-1.1,0.2-1.1,0c0-0.1,0.4-0.4,1-0.5
					C422.4,176.1,422.9,176.1,422.9,176.2z"/>
			</g>
		</g>
	</g>
	<g>
		<path class="st12" d="M503.6,260.6c-1-5.7-3.2-8.7-4.9-10.3c-1.5-1.5-3-3.1-4.9-4.2c-2.2-1.4-5.3-3.1-7.2-3.5
			c-2.4-0.5-3-3.7-1-4.6c2-0.9,8.7,0.4,15.1,5.1c6.4,4.7,3.2-7.2,2.1-11.6c-1.1-4.4-3.9-18.1-2.8-19.5c1.6-2,4.1-0.6,5.1,3.8
			c1,4.5,4.9,17.4,7.2,16.8c2.3-0.6-3.7-22.9-3.7-22.9s-2-4.6,0.6-5.4c4.7-1.5,9.3,22.6,9.7,24.9c0.3,1.6,2.8,1,2.4-0.7
			c-0.4-1.8-6.4-22.1-1.6-23.6c3.7-1.2,3.9,19.8,7.5,23.3c3.6,3.6-1.8-15.9,1.8-16.9c1.3-0.4,2.4-0.5,3.9,11.1
			c0.8,6.2,0.3,14.8,2.7,26.7"/>
	</g>
	<g>
		<g>
			<path class="st12" d="M491.6,305.3l21.9,31.4L503,255.8l31.3-12.3c0,0,39.4,151.2-13.5,153.3c0,0-36.6-1-63.9-64.4L491.6,305.3z"
				/>
		</g>
		<g>
			<g>
				<path class="st13" d="M526.7,242.9c0.1,0.1-0.7,0.6-1.6,1.6c-1,1.1-2.1,2.8-2.6,5l-0.1,0.6l-0.4-0.4c-0.5-0.5-1-1-1.6-1.4
					c-2.3-1.7-4.8-2.4-6.6-2.6c-1.8-0.2-3,0-3-0.1c0-0.1,1.1-0.4,3.1-0.4c1.9,0.1,4.6,0.7,7,2.5c0.6,0.5,1.2,1,1.7,1.5l-0.6,0.2
					c0.5-2.4,1.8-4.2,2.9-5.2C525.8,243.2,526.7,242.8,526.7,242.9z"/>
			</g>
		</g>
	</g>
	<g>
		<g>
			<g>
				<path class="st17" d="M475.9,370.8l-26.5-33.6l-6.9,34.3c-2.8,13.9-1.3,28.3,4.1,41.4l3.4,8.2H327.7l3.1-10.9
					c1.7-13.4-0.6-27.3-0.2-46.4l-3.4-21.6l-18.5,78.9h-54.5c0,0,29.9-122.5,48.6-146.7c23.6-30.6,64.9-26.5,64.9-26.5l25.3,39.6
					l24.7-35.7c0,0,42.4-9,75.5,48l17.7,30.4l0,0l-8.2-62.5l38.4-8.9c0,0,13.9,61.4,12.9,94.3c-0.8,29.4-13.3,44.8-30.6,46.3
					C496,401.7,475.9,370.8,475.9,370.8z"/>
			</g>
		</g>
	</g>
	<g>
		<path class="st17" d="M367.6,247.8l0.4-4.9c0,0,18.7,4.2,25,36.9c0,0,6.3-30.2,26.5-33.2l3.4,8.7l-12.4,32.2l-21.7,6.4l-21.2-6.4
			l-9.6-19.1L367.6,247.8z"/>
	</g>
	<g>
		<g>
			<path class="st7" d="M315.5,260.8c0,0,0,0.3,0.1,0.8c0,0.6,0.1,1.4,0.2,2.4c0.1,2.1,0.4,5.2,0.7,8.9c0.6,7.5,1.6,18,3.3,29.4
				c1.6,11.4,3.6,21.7,5.1,29.1c0.8,3.7,1.4,6.7,1.9,8.8c0.2,1,0.4,1.8,0.5,2.4c0.1,0.5,0.2,0.8,0.1,0.8c0,0-0.1-0.3-0.2-0.8
				c-0.1-0.6-0.3-1.4-0.6-2.4c-0.5-2.1-1.2-5-2-8.7c-1.6-7.4-3.6-17.7-5.2-29.1c-1.6-11.4-2.6-21.9-3.1-29.4c-0.3-3.8-0.4-6.8-0.5-9
				c0-1-0.1-1.8-0.1-2.4C315.4,261.1,315.4,260.8,315.5,260.8z"/>
		</g>
	</g>
	<g>
		<g>
			<path class="st18" d="M366.8,247.2"/>
		</g>
	</g>
	<g>
		<g>
			<path class="st7" d="M422.5,250.6c0,0-0.1,0.2-0.3,0.5c-0.2,0.3-0.5,0.8-0.8,1.3c-0.8,1.2-1.8,2.8-3.1,4.8c-2.6,4-6.2,9.6-9.8,16
				c-0.1,0.3-0.3,0.5-0.4,0.7l-0.2,0.4l-0.2-0.4c-0.8-1.6-1.5-3.2-2.7-4.3c-1.1-1.1-2.7-1.8-4.2-1.6c-1.5,0.2-2.6,1.2-3.4,2.3
				c-0.8,1.1-1.4,2.2-1.7,3.3c-0.7,2.2-1.1,4-1.6,5.2c-0.2,0.6-0.5,1.1-0.7,1.3c-0.2,0.3-0.3,0.4-0.3,0.4c0,0,0.3-0.6,0.8-1.8
				c0.5-1.2,0.8-3,1.5-5.3c0.3-1.1,0.9-2.3,1.7-3.4c0.8-1.1,2.1-2.2,3.7-2.5c1.6-0.3,3.4,0.5,4.6,1.7c1.3,1.2,2,2.9,2.8,4.5l-0.4,0
				c0.1-0.2,0.3-0.5,0.4-0.7c3.7-6.4,7.3-12,10-15.9c1.3-2,2.5-3.6,3.3-4.7c0.4-0.5,0.7-0.9,0.9-1.2
				C422.3,250.7,422.4,250.5,422.5,250.6z"/>
		</g>
	</g>
	<g>
		<g>
			<path class="st7" d="M404.6,269.1c0,0-0.1,0.2-0.2,0.4c-0.2,0.3-0.4,0.7-0.7,1.2c-0.6,1.1-1.5,2.5-2.5,4.2
				c-1.1,1.8-2.4,3.9-3.8,6.2c-0.7,1.2-1.5,2.4-2.2,3.7c-0.4,0.6-0.8,1.3-1.2,1.9c-0.1,0.2-0.3,0.3-0.5,0.5
				c-0.2,0.1-0.5,0.2-0.8,0.1c-0.5-0.2-0.7-0.6-1-0.9c-3.5-5.3-6.1-10.4-8.2-14c-1-1.8-1.8-3.3-2.4-4.3c-0.6-1-0.9-1.6-0.9-1.6
				c0,0,0.1,0.1,0.3,0.4c0.2,0.3,0.4,0.6,0.7,1.1c0.6,1,1.5,2.4,2.6,4.2c2.1,3.6,4.8,8.6,8.3,13.9c0.2,0.3,0.4,0.6,0.7,0.7
				c0.2,0.1,0.5-0.1,0.7-0.4c0.4-0.6,0.8-1.3,1.2-1.9c0.8-1.3,1.5-2.5,2.3-3.6c1.4-2.3,2.8-4.4,3.9-6.2c1.1-1.7,2-3.1,2.6-4.1
				c0.3-0.4,0.5-0.8,0.7-1.1C404.5,269.2,404.6,269.1,404.6,269.1z"/>
		</g>
	</g>
	<g>
		<g>
			<path class="st7" d="M472.4,272c0,0-0.1,0.2-0.3,0.7c-0.2,0.5-0.5,1.1-0.9,1.8c-0.8,1.6-1.9,3.9-3.3,6.7
				c-1.3,2.9-2.9,6.3-4.5,10.2c-1.6,3.9-3.2,8.2-4.8,12.7c-1.6,4.6-2.9,9-4,13c-1.1,4-2,7.7-2.7,10.8c-0.7,3.1-1.2,5.6-1.6,7.3
				c-0.2,0.8-0.3,1.5-0.4,2c-0.1,0.5-0.2,0.7-0.2,0.7c0,0,0-0.2,0.1-0.7c0.1-0.5,0.2-1.2,0.3-2c0.3-1.7,0.8-4.3,1.4-7.4
				c0.7-3.1,1.5-6.8,2.6-10.8c1.1-4,2.4-8.4,4-13c1.6-4.6,3.2-8.9,4.8-12.7c1.6-3.9,3.2-7.3,4.6-10.1c1.4-2.8,2.6-5.1,3.4-6.7
				c0.4-0.7,0.7-1.3,1-1.8C472.3,272.2,472.4,272,472.4,272z"/>
		</g>
	</g>
	<g>
		<g>
			<path class="st7" d="M416.4,396.2c0,0-0.3,0-0.8,0c-0.5,0-1.3-0.1-2.2-0.2c-0.9-0.1-2.1-0.2-3.5-0.3c-1.3-0.2-2.9-0.3-4.6-0.6
				c-3.4-0.5-7.4-1.2-11.8-2.1c-4.4-0.9-9.2-2.1-14.2-3.6c-5-1.5-9.7-3.1-13.9-4.7c-4.2-1.6-7.9-3.2-11-4.7c-1.6-0.7-2.9-1.4-4.1-2
				c-1.2-0.6-2.2-1.1-3.1-1.6c-0.8-0.4-1.4-0.8-1.9-1.1c-0.4-0.2-0.7-0.4-0.7-0.4c0,0,0.2,0.1,0.7,0.3c0.5,0.2,1.1,0.6,2,1
				c0.8,0.4,1.9,0.9,3.1,1.5c1.2,0.6,2.6,1.3,4.2,1.9c3.1,1.4,6.8,3,11,4.6c4.2,1.6,8.9,3.2,13.8,4.7c5,1.5,9.8,2.7,14.2,3.6
				c4.4,0.9,8.4,1.7,11.7,2.2c1.7,0.3,3.2,0.5,4.5,0.7c1.3,0.2,2.5,0.3,3.4,0.4c0.9,0.1,1.6,0.2,2.2,0.3
				C416.2,396.2,416.4,396.2,416.4,396.2z"/>
		</g>
	</g>
	<g>
		<g>
			<path class="st7" d="M411,398.4c0,0-0.2,0.1-0.5,0.1c-0.4,0.1-0.9,0.2-1.5,0.3c-1.3,0.2-3.1,0.5-5.4,0.8
				c-4.6,0.6-10.9,1.3-18,1.5c-7.1,0.2-13.4,0-18.1-0.3c-2.3-0.2-4.2-0.3-5.5-0.5c-0.6-0.1-1.1-0.1-1.5-0.2c-0.3,0-0.5-0.1-0.5-0.1
				c0,0,0.2,0,0.5,0c0.4,0,0.9,0,1.5,0.1c1.3,0.1,3.2,0.2,5.5,0.3c4.6,0.2,11,0.4,18,0.1c7-0.2,13.4-0.8,18-1.4
				c2.3-0.3,4.1-0.5,5.4-0.7c0.6-0.1,1.1-0.1,1.5-0.2C410.8,398.4,411,398.4,411,398.4z"/>
		</g>
	</g>
	<g>
		<g>
			<path class="st7" d="M454.3,343.4c0,0,0-0.3,0.1-0.7c0.1-0.5,0.3-1.2,0.5-2c0.5-1.8,1.1-4.4,1.9-7.5c1.6-6.3,3.7-15.1,6.4-24.7
				c1.3-4.8,2.7-9.3,4-13.5c1.3-4.1,2.6-7.8,3.8-10.8c0.6-1.5,1.1-2.9,1.6-4.1c0.5-1.2,0.9-2.2,1.3-3.1c0.4-0.8,0.7-1.4,0.9-1.9
				c0.2-0.4,0.3-0.7,0.3-0.7c0,0-0.1,0.2-0.2,0.7c-0.2,0.5-0.5,1.1-0.8,1.9c-0.4,0.8-0.8,1.9-1.2,3.1c-0.5,1.2-1,2.6-1.6,4.1
				c-1.1,3.1-2.4,6.7-3.7,10.8c-1.3,4.1-2.6,8.7-3.9,13.5c-2.6,9.6-4.8,18.3-6.5,24.6c-0.8,3.1-1.5,5.7-2.1,7.4
				c-0.2,0.8-0.4,1.5-0.6,2C454.4,343.1,454.4,343.4,454.3,343.4z"/>
		</g>
	</g>
	<g>
		<g>
			<path class="st7" d="M326.5,341.7c0,0-0.2-0.2-0.5-0.6c-0.3-0.4-0.8-1-1.4-1.8c-1.2-1.6-2.7-4-4.4-7.2c-1.6-3.2-3.2-7.1-4.6-11.6
				c-1.4-4.5-2.4-9.6-3.2-14.9c-1.5-10.7-1.7-20.6-2.1-27.6c-0.2-3.5-0.4-6.4-0.5-8.4c-0.1-1-0.1-1.7-0.2-2.3c0-0.5,0-0.8,0-0.8
				s0.1,0.3,0.1,0.8c0.1,0.5,0.2,1.3,0.3,2.3c0.2,2,0.4,4.8,0.7,8.4c0.5,7.1,0.8,16.9,2.3,27.6c0.8,5.3,1.8,10.4,3.1,14.9
				c1.3,4.5,2.9,8.4,4.5,11.6c1.6,3.2,3.1,5.6,4.2,7.2c0.5,0.8,1,1.4,1.3,1.9C326.4,341.5,326.5,341.7,326.5,341.7z"/>
		</g>
	</g>
	<g>
		<g>
			<path class="st7" d="M321.8,319.7c0,0.1-1.4,0.5-3,1.4c-1.5,0.9-2.5,2-2.6,1.9c-0.1-0.1,0.8-1.4,2.4-2.3
				C320.3,319.7,321.8,319.6,321.8,319.7z"/>
		</g>
	</g>
	<g>
		<g>
			<path class="st7" d="M320.9,306.9c0,0.2-1.8,0.3-3.7,1.3c-1.9,1-3.1,2.4-3.2,2.3c-0.1-0.1,0.9-1.7,3-2.8
				C319,306.7,320.9,306.8,320.9,306.9z"/>
		</g>
	</g>
	<g>
		<g>
			<path class="st7" d="M318.1,295.1c0,0.1-1.4,0.2-3,1c-1.5,0.8-2.5,1.9-2.6,1.8c-0.1-0.1,0.7-1.4,2.4-2.2
				C316.6,294.9,318.1,295,318.1,295.1z"/>
		</g>
	</g>
	<g>
		<g>
			<path class="st7" d="M316.7,283c0,0.1-1.3,0.4-2.7,1c-1.4,0.6-2.5,1.4-2.6,1.2c-0.1-0.1,0.9-1.1,2.4-1.7
				C315.4,282.9,316.7,282.9,316.7,283z"/>
		</g>
	</g>
	<g>
		<g>
			<path class="st7" d="M315.9,273.2c0,0.1-1.3,0.4-2.7,1.1c-1.4,0.7-2.4,1.5-2.5,1.4c-0.1-0.1,0.8-1.1,2.3-1.8
				C314.6,273.1,315.9,273.1,315.9,273.2z"/>
		</g>
	</g>
	<g>
		<g>
			<path class="st7" d="M456.9,328.4c-0.1,0.1-0.8-0.8-2-1.3c-1.2-0.5-2.3-0.3-2.3-0.5c-0.1-0.1,1.1-0.6,2.5,0
				C456.5,327.2,457,328.4,456.9,328.4z"/>
		</g>
	</g>
	<g>
		<g>
			<path class="st7" d="M460.6,318.4c-0.1,0.1-0.6-1.4-2.2-2.4c-1.5-1-3.1-0.9-3.1-1c0-0.1,0.4-0.2,1-0.2c0.6,0,1.5,0.2,2.4,0.8
				c0.8,0.5,1.4,1.3,1.7,1.8C460.7,318,460.7,318.4,460.6,318.4z"/>
		</g>
	</g>
	<g>
		<g>
			<path class="st7" d="M463.4,307.4c-0.1,0.1-0.9-1.1-2.5-1.8c-1.6-0.7-3-0.3-3-0.4c0-0.1,0.3-0.2,0.9-0.3c0.6-0.1,1.5,0,2.3,0.3
				c0.9,0.3,1.5,0.9,1.9,1.4C463.4,307,463.5,307.4,463.4,307.4z"/>
		</g>
	</g>
	<g>
		<g>
			<path class="st7" d="M466.7,296.8c-0.1,0.1-0.6-0.9-1.8-1.5c-1.1-0.6-2.2-0.5-2.3-0.6c0-0.1,0.3-0.2,0.7-0.2
				c0.5,0,1.1,0.1,1.8,0.4c0.6,0.3,1.1,0.8,1.3,1.2C466.7,296.5,466.8,296.8,466.7,296.8z"/>
		</g>
	</g>
	<g>
		<g>
			<path class="st7" d="M470.6,287.1c-0.1,0.1-0.7-1.1-2-1.7c-1.4-0.6-2.6-0.3-2.6-0.4c0-0.1,0.3-0.2,0.8-0.3c0.5-0.1,1.3,0,2,0.3
				c0.7,0.3,1.3,0.9,1.6,1.4C470.6,286.7,470.6,287.1,470.6,287.1z"/>
		</g>
	</g>
	<g>
		<g>
			<path class="st7" d="M407.7,273.2c0,0-0.1,0.2-0.2,0.5c-0.2,0.3-0.4,0.8-0.7,1.3c-0.6,1.1-1.5,2.7-2.7,4.6
				c-1.2,1.9-2.6,4.3-4.2,6.8c-0.8,1.3-1.7,2.6-2.6,3.9c-0.9,1.3-1.9,2.7-3,4.1c-0.3,0.3-0.6,0.7-1,0.9c-0.1,0.1-0.3,0.1-0.4,0.1
				c-0.2,0-0.3-0.1-0.4-0.1c-0.2-0.1-0.4-0.2-0.6-0.4c-0.7-0.6-1.2-1.2-1.8-1.8c-1-1.3-2-2.5-2.8-3.8c-1.7-2.5-3.2-4.7-4.4-6.6
				c-1.2-1.9-2.1-3.5-2.8-4.6c-0.3-0.5-0.5-0.9-0.7-1.3c-0.2-0.3-0.2-0.5-0.2-0.5c0,0,0.1,0.1,0.3,0.4c0.2,0.3,0.5,0.7,0.8,1.2
				c0.7,1.1,1.7,2.6,2.9,4.5c1.2,1.9,2.7,4.1,4.5,6.6c0.9,1.2,1.8,2.5,2.8,3.7c0.5,0.6,1.1,1.2,1.7,1.8c0.3,0.2,0.7,0.5,0.9,0.4
				c0.3-0.2,0.6-0.5,0.9-0.8c1.1-1.3,2.1-2.7,3-4c0.9-1.3,1.8-2.7,2.6-3.9c1.6-2.5,3.1-4.8,4.2-6.7c1.2-1.9,2.1-3.4,2.8-4.6
				c0.3-0.5,0.6-0.9,0.8-1.2C407.6,273.4,407.7,273.2,407.7,273.2z"/>
		</g>
	</g>
	<g>
		<g>
			<path class="st7" d="M386.4,287.4c-0.1,0-0.2-0.3-0.1-0.9c0-0.6,0.3-1.4,0.8-2.1c0.6-0.7,1.3-1.1,1.8-1.3
				c0.6-0.2,0.9-0.1,0.9-0.1c0,0.1-1.4,0.4-2.3,1.7C386.5,286,386.5,287.5,386.4,287.4z"/>
		</g>
	</g>
	<g>
		<g>
			<path class="st7" d="M393,295.3c-0.1,0-0.5-1.7-0.5-3.9c0-2.2,0.3-4,0.4-3.9c0.1,0,0,1.8,0.1,3.9
				C393,293.6,393.1,295.3,393,295.3z"/>
		</g>
	</g>
	<g>
		<g>
			<path class="st7" d="M400.4,285.3c-0.1,0-0.4-1.1-1.5-1.9c-1-0.9-2.2-1-2.1-1.1c0-0.1,0.3-0.1,0.8-0.1c0.5,0.1,1.1,0.3,1.7,0.8
				c0.6,0.5,0.9,1.1,1.1,1.5C400.5,285,400.5,285.3,400.4,285.3z"/>
		</g>
	</g>
	<g>
		<g>
			<path class="st7" d="M405.3,277.1c-0.1,0-0.3-1.1-1.2-2.1c-0.9-1-2-1.2-2-1.4c0-0.1,0.3-0.1,0.8,0c0.5,0.1,1.1,0.5,1.6,1
				c0.5,0.5,0.8,1.2,0.9,1.6C405.4,276.8,405.4,277.1,405.3,277.1z"/>
		</g>
	</g>
	<g>
		<g>
			<path class="st7" d="M381.4,280c-0.1,0-0.2-0.4-0.2-1c0-0.7,0.1-1.6,0.6-2.5c0.5-0.9,1.2-1.6,1.8-1.9c0.6-0.4,1-0.4,1-0.4
				c0.1,0.1-1.4,0.8-2.3,2.5C381.3,278.3,381.6,280,381.4,280z"/>
		</g>
	</g>
	<g>
		<path class="st19" d="M393.1,279.7"/>
	</g>
	<g class="st14">
		<g>
			<path d="M367.4,247.8c2.1,8.2,5.7,21.6,9.6,32.1c0.2,0.5,0.4,1,0.7,1.3c1,0.9,2.7,0.4,3.6-0.6c0.9-0.9,1.4-2.2,2.1-3.2
				c0.7-1.1,1.8-2.1,3.1-2.1c1,0,2,0.6,2.7,1.4c0.7,0.8,1.2,1.7,1.7,2.7c0.3,0.5,0.6,1,1.2,1.1c0.6,0.1,1.2-0.4,0.8-1l-3.4-8.9
				c0,0-1.6-6.5-7-5.5c-6.1,1.1-3.3,11.1-3.3,11.1S367.3,247.4,367.4,247.8z"/>
		</g>
	</g>
	<g>
		<g>
			<path class="st7" d="M393.1,279.7c0,0-0.1-0.2-0.3-0.6c-0.2-0.4-0.4-1-0.7-1.7c-0.6-1.6-1.5-3.7-2.5-6.4
				c-0.3-0.7-0.6-1.4-0.9-2.1c-0.3-0.7-0.7-1.4-1.2-2c-1.1-1.2-2.9-2-4.7-1.8c-0.9,0.1-1.8,0.5-2.5,1.1c-0.7,0.7-1,1.6-1.4,2.6
				c-0.3,0.9-0.3,2-0.2,3c0.1,1.1,0.3,2.1,0.6,3.2c0.1,0.4,0.2,0.8,0.3,1.1l-0.5,0.1c-1.4-4-3-7.8-4.5-11.1c-1.5-3.4-2.8-6.4-3.9-9
				c-1.1-2.6-1.8-4.7-2.3-6.2c-0.2-0.7-0.4-1.3-0.5-1.7c-0.1-0.4-0.2-0.6-0.1-0.6c0,0,0.1,0.2,0.2,0.6c0.1,0.4,0.3,1,0.6,1.7
				c0.5,1.5,1.3,3.5,2.4,6.1c1.1,2.5,2.5,5.6,4,8.9c1.5,3.4,3.1,7.1,4.5,11.2l-0.5,0.1c-0.1-0.4-0.2-0.8-0.3-1.1
				c-0.3-1.1-0.5-2.2-0.6-3.2c-0.1-1.1-0.1-2.2,0.2-3.2c0.3-1,0.7-2,1.5-2.8c0.8-0.7,1.8-1.1,2.8-1.2c2-0.2,3.9,0.7,5.1,1.9
				c0.6,0.6,1,1.4,1.3,2.2c0.3,0.7,0.6,1.4,0.9,2.1c1,2.7,1.8,4.9,2.4,6.4c0.3,0.7,0.5,1.3,0.6,1.7
				C393,279.5,393.1,279.7,393.1,279.7z"/>
		</g>
	</g>
	<g class="st14">
		<g>
			<path d="M393.5,279.5c-0.2,0.1-0.1,0.5,0.2,0.6c0.2,0.1,0.5-0.1,0.7-0.2c1.3-1,2-2.5,2.9-3.8c0.9-1.3,2.2-2.6,3.8-2.6
				c1.7,0,3.1,1.4,3.9,2.9c0.8,1.5,1.4,3.2,2.6,4.4c6.1-9,11-18.8,14.5-29.1c-2,1.4-3.3,3.6-4.6,5.6c-3.2,5.4-6.5,10.8-9.7,16.2
				c-0.7-1.6-1.5-3.2-2.7-4.3c-1.3-1.2-3-1.9-4.7-1.5c-1.9,0.4-3.2,2.2-4.1,3.9c-1.4,2.5-2.2,5.3-2.6,8.1"/>
		</g>
	</g>
	<g>
		<g>
			<path class="st7" d="M521.3,359.6c0,0-0.3-0.4-0.6-1.1c-0.4-0.7-0.9-1.8-1.6-3.1c-1.3-2.6-2.9-6.3-4.4-10.5
				c-1.5-4.2-2.6-8.1-3.3-10.9c-0.3-1.4-0.6-2.6-0.8-3.4c-0.2-0.8-0.2-1.2-0.2-1.3c0,0,0.2,0.4,0.4,1.2c0.2,0.9,0.5,2,0.9,3.3
				c0.8,2.8,1.9,6.7,3.4,10.9c1.5,4.2,3.1,7.9,4.2,10.6c0.6,1.3,1,2.3,1.4,3.2C521.1,359.2,521.3,359.6,521.3,359.6z"/>
		</g>
	</g>
	<g>
		<g>
			<path class="st7" d="M511.7,357.7c0,0-0.2-0.4-0.4-1.1c-0.2-0.7-0.5-1.8-0.8-3.1c-0.6-2.6-1.3-6.3-1.6-10.3
				c-0.3-4.1-0.2-7.8,0-10.5c0.1-1.3,0.2-2.4,0.4-3.2c0.1-0.7,0.2-1.1,0.2-1.1c0,0,0,0.4,0,1.2c-0.1,0.7-0.1,1.8-0.2,3.2
				c-0.1,2.7-0.2,6.3,0.1,10.4c0.3,4.1,0.9,7.7,1.5,10.3c0.3,1.3,0.5,2.4,0.7,3.1C511.7,357.3,511.8,357.7,511.7,357.7z"/>
		</g>
	</g>
	<g>
		<g>
			<path class="st7" d="M542.3,270.2c0,0,0.2,0.1,0.8,0.3l0.2,0.1l-0.2,0.1c-2.2,0.8-9.8,3.2-19.1,4.9c-5.6,1-10.7,1.6-14.4,1.9
				c-1.9,0.2-3.4,0.2-4.4,0.3c-1,0-1.6,0-1.6,0c0,0,0.6-0.1,1.6-0.2c1.1-0.1,2.6-0.3,4.4-0.4c3.7-0.4,8.8-1,14.3-2.1
				c9.3-1.7,16.9-3.9,19.1-4.5l0,0.1C542.5,270.3,542.3,270.2,542.3,270.2z"/>
		</g>
	</g>
	<g>
		<g>
			<path class="st7" d="M533.7,265.9c0,0,0.1-0.2,0.4-0.3c0.3-0.1,0.8,0,1.3,0.3c0.4,0.3,1,0.9,0.8,1.8c-0.1,0.4-0.3,0.8-0.7,1
				c-0.4,0.2-0.8,0.3-1.3,0.2c-0.4-0.1-0.9-0.2-1.2-0.5c-0.3-0.3-0.5-0.7-0.5-1.1c0-0.8,0.6-1.4,1.1-1.6c0.5-0.3,1-0.3,1.3-0.2
				c0.3,0.1,0.4,0.2,0.4,0.2c0,0.1-0.7-0.3-1.5,0.3c-0.4,0.3-0.8,0.8-0.8,1.3c0,0.6,0.5,1.1,1.3,1.2c0.7,0.1,1.4-0.3,1.5-0.8
				c0.1-0.6-0.2-1.1-0.6-1.4c-0.4-0.3-0.8-0.4-1-0.4C533.9,265.8,533.7,265.9,533.7,265.9z"/>
		</g>
	</g>
	<g>
		<g>
			<path class="st3" d="M385.1,287c0,0-0.2,0.2-0.5,0.5c-0.4,0.3-0.9,0.8-1.7,1.3c-1.5,1.1-3.7,2.5-6.7,3.8
				c-2.9,1.3-6.7,2.5-10.9,3.1c-2.1,0.3-4.4,0.4-6.7,0.4c-2.3-0.1-4.7-0.4-7.2-0.9c-4.8-1.1-9.2-2.9-13.3-4c-2-0.6-4-1-5.9-1.2
				c-1.9-0.2-3.6-0.1-5.2,0.1c-3.2,0.4-5.6,1.5-7.1,2.5c-1.5,1-2.1,1.8-2.2,1.8c0,0,0.6-0.8,2.1-1.9c1.5-1.1,3.9-2.2,7.1-2.7
				c1.6-0.2,3.4-0.3,5.3-0.1c1.9,0.2,3.9,0.6,6,1.1c4.1,1.1,8.5,2.9,13.3,3.9c2.4,0.5,4.8,0.8,7.1,0.9c2.3,0.1,4.5-0.1,6.6-0.3
				c4.2-0.6,7.9-1.7,10.8-3c2.9-1.3,5.2-2.6,6.7-3.6c0.8-0.5,1.3-0.9,1.7-1.2C384.9,287.1,385.1,286.9,385.1,287z"/>
		</g>
	</g>
	<g>
		<g>
			<path class="st3" d="M448.6,328.1c0,0-0.1,0-0.3-0.1c-0.2-0.1-0.5-0.3-0.9-0.4c-0.4-0.2-0.9-0.4-1.4-0.6c-0.6-0.2-1.3-0.5-2-0.7
				c-3.1-0.9-7.9-1.4-13.6-0.5c-2.9,0.4-6,1.2-9.3,2.1c-3.3,0.9-6.8,1.9-10.6,2.7c-3.8,0.8-7.9,1.2-12.1,0.7
				c-4.2-0.4-8.4-1.6-12.7-3c-4.2-1.4-8.3-3-12.2-4.3c-4-1.4-7.9-2.4-11.7-2.9c-7.6-1-14.6-0.3-20.2,1.1c-2.8,0.7-5.3,1.6-7.5,2.4
				c-1.1,0.5-2.1,0.9-2.9,1.3c-0.9,0.4-1.7,0.8-2.4,1.2c-0.7,0.4-1.3,0.7-1.9,1.1c-0.5,0.3-1,0.6-1.3,0.8c-0.3,0.2-0.6,0.4-0.8,0.5
				c-0.2,0.1-0.3,0.2-0.3,0.2c0,0,0.1-0.1,0.3-0.2c0.2-0.1,0.5-0.3,0.8-0.5c0.4-0.2,0.8-0.5,1.3-0.9c0.5-0.3,1.2-0.7,1.9-1.1
				c0.7-0.4,1.5-0.8,2.4-1.3c0.9-0.4,1.9-0.9,2.9-1.3c2.2-0.9,4.6-1.8,7.5-2.5c5.7-1.4,12.7-2.2,20.4-1.2c3.8,0.5,7.8,1.5,11.8,2.9
				c4,1.3,8,2.9,12.2,4.3c4.2,1.4,8.4,2.6,12.5,3c4.1,0.5,8.2,0.1,11.9-0.7c3.8-0.8,7.3-1.8,10.6-2.7c3.3-0.9,6.4-1.7,9.3-2.1
				c5.8-0.9,10.6-0.3,13.7,0.7c0.8,0.2,1.5,0.5,2,0.7c0.6,0.3,1.1,0.5,1.4,0.7c0.4,0.2,0.6,0.4,0.8,0.5
				C448.5,328.1,448.6,328.1,448.6,328.1z"/>
		</g>
	</g>
	<g>
		<g>
			<path class="st3" d="M398.2,286.3c0-0.1,0.9,0.3,2.6,0.6c1.7,0.2,4.1,0.2,7.1-0.6c2.9-0.7,6.2-2.2,9.9-3.7
				c1.9-0.7,3.9-1.4,6.1-1.8c2.2-0.4,4.5-0.5,6.8-0.4c4.7,0.3,9,1.5,12.7,3c3.7,1.5,6.9,3.3,9.5,4.9c2.6,1.6,4.6,3,6,3.9
				c0.7,0.5,1.2,0.8,1.6,1.1c0.4,0.3,0.5,0.4,0.5,0.4c0,0-0.2-0.1-0.6-0.3c-0.4-0.3-1-0.6-1.7-1c-1.4-0.9-3.5-2.2-6.1-3.8
				c-2.6-1.5-5.8-3.3-9.5-4.8c-3.7-1.5-8-2.7-12.5-3c-2.3-0.1-4.5,0-6.7,0.4c-2.1,0.4-4.1,1-6,1.8c-3.7,1.4-7,2.9-10,3.6
				c-3,0.7-5.5,0.7-7.2,0.4C399.1,286.7,398.2,286.3,398.2,286.3z"/>
		</g>
	</g>
	<g>
		<g>
			<path class="st3" d="M456.7,261.2c0,0-0.5,0.2-1.4,0.4c-0.5,0.1-1,0.3-1.7,0.4c-0.7,0.1-1.4,0.3-2.3,0.4c-1.7,0.3-3.7,0.5-6,0.6
				c-2.3,0.1-4.8,0.1-7.4-0.1c-2.6-0.2-5.1-0.6-7.3-1.1c-2.2-0.5-4.2-1.1-5.8-1.6c-0.8-0.3-1.5-0.6-2.2-0.8
				c-0.6-0.2-1.2-0.5-1.6-0.7c-0.9-0.4-1.3-0.6-1.3-0.7c0,0,0.5,0.1,1.4,0.5c0.4,0.2,1,0.4,1.6,0.6c0.6,0.2,1.4,0.5,2.2,0.7
				c1.6,0.5,3.6,1.1,5.8,1.5c2.2,0.5,4.6,0.8,7.2,1.1c2.6,0.2,5.1,0.2,7.3,0.2c2.2-0.1,4.3-0.3,5.9-0.5c0.8-0.1,1.6-0.2,2.3-0.4
				c0.7-0.1,1.2-0.2,1.7-0.3C456.2,261.2,456.7,261.1,456.7,261.2z"/>
		</g>
	</g>
	<g>
		<g>
			<path class="st3" d="M315.9,267.6c0,0,0.1-0.1,0.4-0.4c0.3-0.2,0.7-0.6,1.3-1c1.1-0.9,2.8-2.1,5-3.6c4.3-2.9,10.5-6.6,18.1-8.9
				c7.6-2.3,15-2.4,20.1-1.4c2.6,0.5,4.6,1.1,5.9,1.7c0.7,0.2,1.2,0.5,1.5,0.7c0.3,0.2,0.5,0.3,0.5,0.3c0,0-0.8-0.3-2.1-0.8
				c-1.4-0.5-3.4-1.1-5.9-1.5c-5.1-0.9-12.3-0.8-19.9,1.5c-7.5,2.3-13.7,6-18.1,8.8c-2.2,1.4-3.9,2.6-5.1,3.4c-0.6,0.4-1,0.7-1.4,1
				C316,267.5,315.9,267.6,315.9,267.6z"/>
		</g>
	</g>
	<g>
		<g>
			<path class="st3" d="M441.7,372.5c0,0-0.1,0-0.3,0.1c-0.2,0-0.5,0.1-0.8,0.2c-0.4,0.1-0.8,0.2-1.4,0.2c-0.3,0-0.6,0.1-0.9,0.1
				c-0.3,0-0.7,0-1,0c-2.9,0.1-7-0.6-11.9-2.2c-2.4-0.8-5.1-1.7-7.9-2.5c-2.9-0.9-6-1.5-9.3-1.8c-6.7-0.6-14.1,0.2-21.8,1.6
				c-7.7,1.4-14.9,3.1-21.6,3.9c-6.7,0.8-12.9,0.9-17.9,0.1c-5.1-0.7-9-2.2-11.6-3.5c-0.6-0.3-1.2-0.6-1.7-0.9
				c-0.5-0.3-0.8-0.5-1.2-0.7c-0.3-0.2-0.5-0.3-0.7-0.5c-0.2-0.1-0.2-0.2-0.2-0.2c0,0,0.1,0,0.3,0.1c0.2,0.1,0.4,0.2,0.7,0.4
				c0.3,0.2,0.7,0.4,1.2,0.7c0.5,0.2,1.1,0.5,1.7,0.8c2.6,1.2,6.5,2.7,11.5,3.3c5,0.7,11.1,0.6,17.8-0.2c6.7-0.8,13.9-2.6,21.6-4
				c7.7-1.4,15.1-2.2,21.9-1.5c3.4,0.3,6.5,1,9.4,1.9c2.9,0.9,5.5,1.8,7.9,2.6c4.8,1.6,8.9,2.4,11.8,2.3c0.4,0,0.7,0,1,0
				c0.3,0,0.6,0,0.9-0.1c0.5,0,1-0.1,1.4-0.2c0.3-0.1,0.6-0.1,0.8-0.1C441.6,372.5,441.7,372.5,441.7,372.5z"/>
		</g>
	</g>
	<g class="st20">
		<g>
			<path d="M353.6,379.4c4.5,11.3,13.3,19.3,25.4,21s24.3-1.1,36-4.3C393.6,393.1,374.7,390.1,353.6,379.4"/>
		</g>
	</g>
	<g>
		<g>
			<path class="st3" d="M444.8,410.4c0,0-0.1,0-0.3-0.1c-0.2-0.1-0.5-0.2-0.8-0.4c-0.8-0.3-1.9-0.8-3.2-1.4
				c-2.8-1.2-6.8-3.1-11.9-5.3c-2.5-1.1-5.3-2.1-8.5-2.9c-3.1-0.7-6.6-1-10.2-0.5c-1.8,0.3-3.6,0.7-5.4,1.2c-1.8,0.6-3.6,1.3-5.4,2
				c-3.6,1.6-7.2,3.5-10.9,5.5c-3.7,2-7.4,3.8-11.1,5.2c-3.7,1.4-7.5,2.2-11.2,2.3c-3.7,0.1-7.1-0.8-10.1-2c-3-1.2-5.6-2.7-8-4.1
				c-2.4-1.4-4.5-2.6-6.5-3.6c-2-0.9-3.7-1.7-5.2-2.1c-0.7-0.3-1.4-0.4-2-0.5c-0.6-0.2-1.1-0.2-1.5-0.3c-0.4-0.1-0.7-0.1-0.9-0.1
				c-0.2,0-0.3-0.1-0.3-0.1c0,0,0.1,0,0.3,0c0.2,0,0.5,0.1,0.9,0.1c0.4,0,0.9,0.1,1.5,0.2c0.6,0.1,1.3,0.2,2,0.5
				c1.5,0.4,3.2,1.1,5.2,2c2,0.9,4.2,2.2,6.5,3.5c2.4,1.3,5,2.8,8,4c3,1.2,6.4,2,10,1.9c3.6-0.1,7.3-0.9,11-2.3
				c3.7-1.4,7.4-3.2,11.1-5.2c3.7-2,7.3-3.9,10.9-5.5c1.8-0.8,3.6-1.5,5.5-2.1c1.8-0.6,3.7-1,5.5-1.2c3.6-0.5,7.2-0.2,10.3,0.5
				c3.2,0.8,6,1.9,8.5,2.9c5,2.2,9,4.2,11.8,5.5c1.4,0.6,2.4,1.2,3.2,1.5c0.3,0.2,0.6,0.3,0.8,0.4
				C444.7,410.4,444.8,410.4,444.8,410.4z"/>
		</g>
	</g>
</g>
</svg>
