<svg width="1024" height="768" viewBox="0 0 1024 768" fill="none" xmlns="http://www.w3.org/2000/svg">
<g id="landingScene">
<path id="gradTwo" d="M0 767.808L1023.83 767.808L1023.83 0L0 0L0 767.808Z" fill="#0F054C"/>
<path id="gradOne" opacity="0.9" d="M0 767.808H1023.83V0H0V767.808Z" fill="url(#paint0_radial)"/>
<path id="upperVeins" opacity="0.8" d="M995.504 76.205C993.456 74.8613 989.872 74.8613 987.825 76.205C986.289 77.1648 985.777 78.7004 986.63 80.0441L868.037 157.017V254.336L839.199 273.148V378.913L740.229 443.217L724.871 433.236L801.147 383.712V325.743L800.805 325.551L713.95 269.117V249.538L763.094 217.674C765.142 218.633 768.213 218.633 770.09 217.29C772.138 215.946 772.138 213.643 770.09 212.299C768.043 210.955 764.459 210.955 762.412 212.299C760.535 213.451 760.364 215.37 761.9 216.906L712.756 248.77V270.077L713.097 270.268L799.952 326.702V383.136L742.106 420.375V396.189L768.555 379.105C770.602 380.065 773.674 380.065 775.551 378.721C777.598 377.378 777.598 375.074 775.551 373.731C773.503 372.387 769.92 372.387 767.872 373.731C765.995 374.882 765.824 376.802 767.36 378.337L740.911 395.421V421.143L723.506 432.468L702.859 419.031V376.994L741.764 351.656V322.479L741.423 322.287L659.517 269.117C661.053 267.773 660.882 265.854 659.005 264.51C656.957 263.166 653.374 263.166 651.326 264.51C649.279 265.854 649.279 268.157 651.326 269.501C653.203 270.652 656.275 270.844 658.322 269.885L740.57 323.247V350.696L702.859 375.266V346.281L702.518 346.09L652.35 313.458C653.886 312.114 653.715 310.194 651.838 308.851C649.79 307.507 646.207 307.507 644.159 308.851C642.112 310.194 642.112 312.498 644.159 313.842C646.036 314.993 649.108 315.185 651.156 314.225L701.494 347.049V418.072L686.99 408.666L663.1 424.214L641.429 410.201V376.034L641.088 375.842L583.924 338.795V306.547C585.119 306.547 586.313 306.164 587.166 305.588C589.214 304.244 589.214 301.941 587.166 300.597C585.119 299.253 581.535 299.253 579.487 300.597C577.44 301.941 577.44 304.244 579.487 305.588C580.341 306.164 581.535 306.547 582.73 306.547V339.563L583.071 339.755L640.235 376.802V409.434L547.237 348.969V284.857L597.746 252.033H643.989H644.159L723.677 200.398C725.724 201.358 728.796 201.358 730.673 200.014C732.721 198.67 732.721 196.367 730.673 195.023C728.625 193.68 725.042 193.68 722.994 195.023C721.117 196.175 720.947 198.286 722.482 199.63L643.818 250.689H599.964L745.86 155.865C747.907 156.825 750.979 156.825 752.856 155.481C754.904 154.138 754.904 151.834 752.856 150.49C750.808 149.147 747.225 149.147 745.177 150.49C743.3 151.642 743.13 153.754 744.665 155.097L546.042 284.281V349.929L546.384 350.121L661.906 425.174L638.699 440.338L441.441 312.114V235.717L441.1 235.525L374.039 191.952C375.575 190.608 375.404 188.689 373.527 187.345C371.479 186.002 367.896 186.002 365.848 187.345C363.801 188.689 363.801 190.992 365.848 192.336C367.725 193.488 370.797 193.68 372.845 192.72L440.247 236.485V312.882L440.588 313.074L637.675 441.106L615.492 455.502L420.282 328.814H303.907L231.215 281.594V209.036C231.897 208.844 232.751 208.652 233.262 208.268C235.31 206.924 235.31 204.621 233.262 203.277C231.215 201.934 227.631 201.934 225.584 203.277C223.536 204.621 223.536 206.924 225.584 208.268C226.778 209.036 228.314 209.42 229.85 209.228V282.361L230.191 282.553L303.565 330.158H419.941L584.607 437.075H551.503L495.363 400.604H452.021H451.85L391.785 439.57C389.738 438.61 386.666 438.61 384.789 439.954C382.742 441.298 382.742 443.601 384.789 444.945C386.837 446.288 390.42 446.288 392.468 444.945C394.345 443.793 394.516 441.682 392.98 440.338L452.362 401.756H495.022L551.162 438.226H586.654L614.127 456.078L555.086 494.468L538.193 483.527V454.926L495.533 427.285C497.069 425.942 496.899 424.022 495.022 422.678C492.974 421.335 489.39 421.335 487.343 422.678C485.295 424.022 485.295 426.325 487.343 427.669C489.22 428.821 492.291 429.013 494.339 428.053L536.999 455.694V482.759L491.438 453.391H469.938H469.767L444.001 470.091C441.953 469.131 438.882 469.131 437.005 470.474C434.957 471.818 434.957 474.122 437.005 475.465C439.052 476.809 442.636 476.809 444.683 475.465C446.56 474.313 446.731 472.202 445.195 470.858L470.108 454.734H491.097L553.721 495.428L542.288 502.914L578.634 526.524L561.57 537.658H535.804L517.375 525.757C518.911 524.413 518.57 522.493 516.693 521.342C514.645 519.998 511.062 519.998 509.014 521.342C506.966 522.685 506.966 524.989 509.014 526.332C510.891 527.676 513.962 527.676 516.01 526.716L535.292 539.193H559.182L515.839 567.41L413.798 501.187H340.423H340.253L298.958 528.06C296.911 527.1 293.839 527.1 291.962 528.444C289.914 529.788 289.914 532.091 291.962 533.435C294.01 534.778 297.593 534.778 299.641 533.435C301.518 532.283 301.688 530.171 300.153 528.828L340.765 502.53H413.627L492.291 553.59H458.676L425.913 531.707C427.449 530.363 427.278 528.444 425.401 527.1C423.353 525.757 419.77 525.757 417.722 527.1C415.675 528.444 415.675 530.747 417.722 532.091C419.599 533.243 422.671 533.435 424.719 532.475L458.505 554.357H494.68L514.986 567.602L463.112 601.194H297.422L168.932 517.887C170.468 516.543 170.297 514.623 168.42 513.28C166.372 511.936 162.789 511.936 160.741 513.28C158.694 514.623 158.694 516.927 160.741 518.27C162.618 519.422 165.69 519.614 167.737 518.654L297.252 602.729H461.065L440.588 616.166H317.899H317.728L257.322 655.516C255.275 654.556 252.203 654.556 250.326 655.9C248.279 657.244 248.279 659.547 250.326 660.891C252.374 662.234 255.957 662.234 258.005 660.891C259.882 659.739 260.053 657.628 258.517 656.284L318.24 617.51H440.929H441.1L579.999 527.292L595.357 537.274L449.29 632.098H342.471H342.3L213.298 715.981H34.4689L0 693.523V695.058L34.2983 717.325H213.639H213.81L294.863 664.73V695.826L241.453 730.569C239.405 729.61 236.334 729.61 234.457 730.953C232.409 732.297 232.409 734.6 234.457 735.944C236.505 737.288 240.088 737.288 242.136 735.944C244.013 734.792 244.183 732.681 242.648 731.337L296.057 696.594V664.154H295.716L342.812 633.634H449.632H449.802L596.551 538.233L614.127 549.559L329.161 734.6V768H330.356V735.368L615.322 550.326L636.993 564.339L490.073 659.739V676.823L463.965 693.715V732.873L413.456 765.697C411.409 764.737 408.337 764.737 406.46 766.081C405.607 766.656 405.266 767.232 404.925 767.808H415.504C415.333 767.424 414.992 766.848 414.651 766.464L465.16 733.641V694.482L490.073 678.358V741.127L504.748 750.724L478.299 767.808H480.688L505.942 751.492L531.197 767.808H533.586L491.267 740.359V660.507L638.187 565.107L657.981 577.968L554.062 645.535C552.015 644.575 548.943 644.575 547.066 645.919C545.019 647.262 545.019 649.566 547.066 650.909C549.114 652.253 552.697 652.253 554.745 650.909C556.622 649.758 556.793 647.838 555.257 646.303L659.175 578.735L678.287 591.02L553.892 671.832H520.105C519.935 671.256 519.423 670.488 518.57 670.105C516.522 668.761 512.939 668.761 510.891 670.105C508.843 671.448 508.843 673.752 510.891 675.095C512.939 676.439 516.522 676.439 518.57 675.095C519.423 674.519 519.935 673.944 520.105 673.368H554.233H554.404L679.481 592.172L687.16 597.163L693.133 593.324L722.994 612.711V639.584L698.422 655.516H659.858H659.687L617.369 682.965C615.321 682.006 612.25 682.006 610.373 683.349C608.325 684.693 608.325 686.996 610.373 688.34C612.421 689.684 616.004 689.684 618.052 688.34C619.929 687.188 620.099 685.077 618.564 683.733L660.199 656.668H696.204L623.853 703.696C621.806 702.544 618.734 702.736 616.687 703.888C614.639 705.232 614.639 707.535 616.687 708.879C618.734 710.222 622.318 710.222 624.365 708.879C626.242 707.727 626.413 705.808 625.048 704.464L715.316 645.727V658.779L661.564 693.715V718.285L617.881 746.693C615.833 745.734 612.762 745.734 610.885 747.077C608.837 748.421 608.837 750.724 610.885 752.068C612.933 753.412 616.516 753.412 618.564 752.068C620.441 750.916 620.611 748.805 619.076 747.461L662.759 719.052V694.482L716.51 659.547V644.959L724.018 640.16V611.559L694.156 592.172L713.78 579.503L775.039 619.429V664.73L733.403 691.795C731.355 690.643 728.284 690.835 726.236 691.987C724.189 693.331 724.189 695.634 726.236 696.978C728.284 698.321 731.867 698.321 733.915 696.978C735.792 695.826 735.963 693.907 734.598 692.563L775.039 666.266V702.928L743.13 723.659V768H744.324V724.427L775.039 704.464V768H776.233V618.661L714.974 578.543L736.987 564.339L817.187 616.358V740.359L855.751 765.313V767.808H856.945V764.545L818.381 739.591V615.59L738.181 563.571L754.562 553.014L862.747 623.268V729.034L922.641 767.808H925.03L863.941 728.266V622.5L755.757 552.246L782.206 535.162L962.229 652.061V704.656L1024 744.774V743.238L963.594 703.888V651.293L862.406 585.454H942.435L1024 638.432V636.897L942.606 584.11H860.017L783.4 534.394L814.115 514.431L879.981 557.237H985.777L1023.83 581.999V580.463L1015.47 575.088H1023.83V573.745H1013.42L986.118 556.085H880.323L861.894 544.184H906.942H907.113L929.637 529.596H1023.66L1024 529.788V528.252H931.855L957.281 511.744C959.328 512.704 962.4 512.704 964.277 511.36C966.324 510.017 966.324 507.713 964.277 506.369C962.229 505.026 958.646 505.026 956.598 506.369C954.721 507.521 954.55 509.633 956.086 510.976L906.772 543.032H860.017L815.48 514.239L831.861 503.49L821.282 496.58H851.997L892.097 522.685C890.561 524.029 890.732 525.949 892.609 527.292C894.656 528.636 898.24 528.636 900.287 527.292C902.335 525.949 902.335 523.645 900.287 522.301C898.41 521.15 895.339 520.958 893.291 521.918L852.167 495.236H819.064L796.539 480.648L810.361 471.626H834.933L856.433 457.614H872.473L908.819 481.224C907.113 482.567 907.284 484.487 909.331 485.831C911.379 487.174 914.962 487.174 917.01 485.831C919.058 484.487 919.058 482.183 917.01 480.84C915.133 479.688 912.232 479.496 910.184 480.456L872.985 456.27H856.263L834.762 470.282H812.579L856.775 441.49H880.664L930.49 473.738H1024V472.394H930.832L880.835 439.57H856.263H856.092L795.174 479.112L779.134 468.747L847.901 424.022H896.363L936.463 449.936H1023.66V448.592H936.804L898.922 424.022H1023.66V422.678H847.731H847.56L778.11 467.979L760.023 456.27L855.921 393.886H1023.83V392.542H901.482L1023.83 313.074V311.538L899.093 392.542H856.775L947.725 333.421V320.368L991.238 292.151C993.285 293.111 996.357 293.111 998.234 291.767C1000.28 290.423 1000.28 288.12 998.234 286.776C996.186 285.433 992.603 285.433 990.555 286.776C988.678 287.928 988.507 289.848 990.043 291.383L966.324 306.739V271.036L1023.83 233.798V232.262L965.13 270.268V307.507L946.53 319.6V332.653L854.898 392.158L855.239 392.734L758.828 455.31L741.253 443.985L840.223 379.681V273.916L1023.83 154.713V153.178L869.231 253.569V157.977L987.654 81.1958L987.825 81.3877C989.872 82.7314 993.456 82.7314 995.504 81.3877C997.551 79.8521 997.551 77.5487 995.504 76.205ZM829.302 502.722L687.16 595.051L545.019 502.722L687.16 410.393L829.302 502.722Z" fill="url(#paint1_radial)"/>
<path id="lowerVeins" opacity="0.1" d="M1023.83 241.668L998.575 258.175V311.154L774.015 457.038L756.951 445.904L872.815 370.659V357.223L893.291 343.978V313.074L933.05 287.16C934.756 287.928 936.974 287.928 938.51 286.968C940.217 285.817 940.217 284.089 938.51 283.129C936.804 281.977 934.074 281.977 932.538 283.129C931.002 284.089 930.832 285.625 932.026 286.776L892.267 312.69V343.594L872.644 356.263V306.739L872.473 306.547L861.211 299.253L929.125 255.104V205.581L977.416 174.292C979.122 175.06 981.34 175.06 982.876 174.1C984.583 172.949 984.583 171.221 982.876 170.261C981.17 169.11 978.44 169.11 976.904 170.261C975.368 171.221 975.197 172.757 976.392 173.909L928.101 205.197V254.72L860.187 298.869L749.784 226.503V171.029C750.638 171.029 751.661 170.645 752.344 170.261C754.05 169.11 754.05 167.382 752.344 166.422C750.638 165.271 747.907 165.271 746.372 166.422C744.665 167.574 744.665 169.302 746.372 170.261C747.054 170.645 747.907 171.029 748.931 171.029V227.079L749.102 227.271L815.48 270.46H767.019L727.943 245.123C729.137 243.971 728.966 242.435 727.431 241.476C725.724 240.324 722.994 240.324 721.458 241.476C719.752 242.627 719.752 244.355 721.458 245.315C722.994 246.274 725.383 246.466 726.919 245.507L766.678 271.42H817.016L871.62 306.931V369.891L755.927 445.137L740.399 434.963L822.306 381.793C824.012 382.56 826.23 382.56 827.766 381.601C829.472 380.449 829.472 378.721 827.766 377.762C826.06 376.61 823.329 376.61 821.794 377.762C820.258 378.721 820.087 380.257 821.282 381.409L739.375 434.579L724.359 424.79L822.476 361.062H849.096C849.266 361.638 849.608 362.021 850.29 362.405C851.997 363.557 854.727 363.557 856.263 362.405C857.969 361.254 857.969 359.526 856.263 358.566C854.556 357.415 851.826 357.415 850.29 358.566C849.608 358.95 849.266 359.526 849.096 359.91H822.135H821.964L723.506 424.214L717.534 420.375L717.363 420.567L712.926 423.446L689.378 408.282V386.975L708.831 374.306H739.205L772.821 352.616C774.527 353.384 776.745 353.384 778.281 352.424C779.987 351.272 779.987 349.545 778.281 348.585C776.575 347.433 773.844 347.433 772.309 348.585C770.773 349.545 770.602 351.08 771.797 352.232L738.863 373.155H710.196L767.19 336.108C768.896 336.876 771.285 336.876 772.821 335.916C774.527 334.764 774.527 333.037 772.821 332.077C771.114 330.925 768.384 330.925 766.848 332.077C765.312 333.037 765.142 334.572 766.336 335.532L695.18 381.793V371.619L737.498 344.17V324.783L771.967 302.324C773.674 303.092 775.892 303.092 777.428 302.132C779.134 300.981 779.134 299.253 777.428 298.293C775.721 297.142 772.991 297.142 771.455 298.293C769.92 299.253 769.749 300.789 770.943 301.94L736.475 324.399V343.786L694.156 371.235V382.752L688.184 386.591V409.05L711.732 424.214L696.375 434.195L648.084 402.715V367.012L680.846 345.514C682.553 346.281 684.942 346.281 686.478 345.322C688.184 344.17 688.184 342.442 686.478 341.483C684.771 340.331 682.041 340.331 680.505 341.483C678.969 342.442 678.799 343.978 679.993 344.938L648.084 365.669V336.876L673.338 320.56V266.237C674.192 266.237 675.215 265.854 675.898 265.47C677.604 264.318 677.604 262.59 675.898 261.631C674.192 260.479 671.461 260.479 669.926 261.631C668.219 262.782 668.219 264.51 669.926 265.47C670.608 265.854 671.461 266.237 672.485 266.237V319.792L648.255 335.532V239.94H647.231V403.291L695.521 434.771L678.116 446.096L614.98 405.019V307.315L584.607 287.544V250.689L557.816 233.222C559.011 232.07 558.84 230.534 557.304 229.575C555.598 228.423 552.868 228.423 551.332 229.575C549.626 230.726 549.626 232.454 551.332 233.414C552.868 234.373 555.257 234.565 556.792 233.606L583.583 251.073V287.928L613.956 307.699V405.403L677.092 446.48L664.295 454.734L578.975 399.26V315.953L578.805 315.761L503.383 266.813C504.577 265.662 504.407 264.126 502.871 263.166C501.164 262.014 498.434 262.014 496.899 263.166C495.192 264.318 495.192 266.045 496.899 267.005C498.434 267.965 500.823 268.157 502.359 267.197L578.122 316.337V399.644L578.293 399.836L663.271 455.118L642.453 468.555L500.653 376.418V334.956L500.482 334.764L381.718 257.6C382.912 256.448 382.742 254.912 381.206 253.953C379.499 252.801 376.769 252.801 375.233 253.953C373.527 255.104 373.527 256.832 375.233 257.792C376.769 258.751 379.158 258.943 380.694 257.983L499.629 335.34V376.802L499.799 376.994L579.317 428.629H516.181L443.147 381.217C444.342 380.065 444.171 378.529 442.636 377.57C440.929 376.418 438.199 376.418 436.663 377.57C434.957 378.721 434.957 380.449 436.663 381.409C438.199 382.368 440.588 382.56 442.124 381.601L515.839 429.589H580.853L641.258 468.747L617.028 484.487L565.154 450.703H481.712L386.837 389.087H334.28L312.78 375.074C313.974 373.922 313.804 372.387 312.268 371.427C310.562 370.275 307.831 370.275 306.296 371.427C304.589 372.579 304.589 374.306 306.296 375.266C307.831 376.226 310.22 376.418 311.756 375.458L333.939 389.855H386.496L458.164 436.307H396.222L366.872 418.071C368.067 416.92 367.896 415.384 366.36 414.424C364.654 413.273 361.924 413.273 360.388 414.424C358.682 415.576 358.682 417.304 360.388 418.263C361.924 419.223 364.313 419.415 365.848 418.455L396.393 438.226H460.211L481.712 452.239H565.154L579.658 461.645H544.336H544.165L526.419 473.162H452.362L431.544 459.533H389.567C389.396 458.957 389.055 458.573 388.373 458.189C386.666 457.038 383.936 457.038 382.4 458.189C380.694 459.341 380.694 461.069 382.4 462.028C384.107 463.18 386.837 463.18 388.373 462.028C389.055 461.645 389.396 461.069 389.567 460.685H431.203L452.021 474.313H524.713L504.748 487.366C503.041 486.598 500.823 486.598 499.287 487.558C497.581 488.71 497.581 490.437 499.287 491.397C500.994 492.549 503.724 492.549 505.26 491.397C506.796 490.437 506.966 488.902 505.772 487.75L544.677 462.412H581.535L616.516 485.255L603.547 493.701L604.23 494.084L611.909 499.075H587.678L555.939 478.536C557.134 477.385 556.963 475.849 555.427 474.889C553.721 473.738 550.991 473.738 549.455 474.889C547.749 476.041 547.749 477.769 549.455 478.728C550.991 479.688 553.38 479.88 554.916 478.92L587.337 500.035H613.444L631.191 511.552L620.27 518.654H600.988H600.817L583.924 529.596H571.297L542.63 510.976C543.995 509.825 543.824 508.289 542.288 507.329C540.582 506.177 537.852 506.177 536.316 507.329C534.61 508.481 534.61 510.208 536.316 511.168C537.852 512.128 540.07 512.32 541.776 511.552L571.126 530.555H584.265H584.436L601.329 519.614H618.734L583.924 542.264H565.154L525.907 516.735H407.655L334.28 469.131C335.475 467.979 335.475 466.443 333.939 465.484C332.233 464.332 329.502 464.332 327.967 465.484C326.26 466.635 326.26 468.363 327.967 469.323C329.502 470.282 331.721 470.474 333.427 469.707L407.484 517.886H525.566L564.813 543.416H584.095H584.265L632.215 512.32L644.842 520.574L590.579 555.701H552.356L520.788 535.162H439.735C439.564 534.586 439.223 534.202 438.54 533.819C436.834 532.667 434.104 532.667 432.568 533.819C430.862 534.97 430.862 536.698 432.568 537.658C434.274 538.809 437.004 538.809 438.54 537.658C439.223 537.274 439.564 536.698 439.735 536.314H520.447L550.308 555.701H436.151H435.981L327.284 626.339C325.578 625.572 323.359 625.572 321.824 626.531C320.117 627.683 320.117 629.411 321.824 630.37C323.53 631.522 326.26 631.522 327.796 630.37C329.332 629.411 329.502 627.875 328.308 626.723L436.493 556.469H590.75H590.92L645.695 520.958L660.029 530.171L584.436 579.311H451.338H451.167L334.622 654.94H198.794L119.447 604.457C120.641 603.305 120.471 601.77 118.935 600.81C117.228 599.658 114.498 599.658 112.962 600.81C111.256 601.961 111.256 603.689 112.962 604.649C114.498 605.609 116.887 605.801 118.423 604.841L198.282 656.668H334.622H334.792L451.338 581.039H548.261L406.119 673.56V697.937L349.296 734.792C347.59 734.024 345.372 734.024 343.836 734.984C342.13 736.136 342.13 737.863 343.836 738.823C345.542 739.975 348.273 739.975 349.808 738.823C351.344 737.863 351.515 736.328 350.32 735.176L407.143 698.321V673.943L550.479 580.847H583.753L512.085 627.491V637.665L477.616 660.315C475.91 659.547 473.692 659.547 472.156 660.507C470.45 661.659 470.45 663.386 472.156 664.346C473.862 665.498 476.593 665.498 478.128 664.346C479.664 663.386 479.835 661.851 478.64 660.699L497.24 648.606V676.631L389.396 746.693C387.69 745.925 385.472 745.925 383.936 746.885C382.23 748.037 382.23 749.765 383.936 750.724C385.642 751.876 388.373 751.876 389.908 750.724C391.444 749.765 391.615 748.229 390.42 747.077L498.264 677.015V647.646L512.939 638.048V627.875L585.289 580.847L585.118 580.463L661.053 531.131L674.874 540.153L596.722 591.212V674.519L453.215 767.808H455.092L573.856 690.643V766.08L571.126 767.808H573.003L574.709 766.656V690.067L597.404 675.287V591.98L675.386 541.305L687.501 549.175L627.266 588.333V634.017L627.437 634.209L695.863 678.55V694.098L657.128 719.244C655.421 718.476 653.203 718.476 651.667 719.436C649.961 720.588 649.961 722.315 651.667 723.275C653.374 724.427 656.104 724.427 657.64 723.275C659.175 722.315 659.346 720.78 658.152 719.628L696.887 694.482V677.783L696.716 677.591L628.29 633.25V588.717L673.68 559.156V578.159L652.862 591.788C651.156 591.02 648.937 591.02 647.401 591.98C645.695 593.132 645.695 594.859 647.401 595.819C649.108 596.971 651.838 596.971 653.374 595.819C654.91 594.859 655.08 593.324 653.886 592.172L674.704 578.543V558.196L688.525 549.175L704.736 559.732V592.94L674.021 612.903V635.745L674.192 635.937L738.693 677.783C737.498 678.934 737.669 680.47 739.205 681.43C740.911 682.581 743.641 682.581 745.177 681.43C746.884 680.278 746.884 678.55 745.177 677.591C743.641 676.631 741.252 676.439 739.717 677.399L674.874 635.361V613.671L704.565 594.283V617.126L744.324 642.847C743.129 643.999 743.3 645.535 744.836 646.494C746.542 647.646 749.272 647.646 750.808 646.494C752.515 645.343 752.515 643.615 750.808 642.655C749.272 641.696 746.883 641.504 745.348 642.463L705.589 616.742V560.692L717.022 568.178L717.192 567.986L735.792 555.893L752.856 567.026V593.899L798.075 623.268V648.606C797.222 648.606 796.198 648.99 795.515 649.374C793.809 650.525 793.809 652.253 795.515 653.213C797.222 654.364 799.952 654.364 801.488 653.213C803.194 652.061 803.194 650.333 801.488 649.374C800.805 648.99 799.952 648.606 798.928 648.606V622.692L754.221 593.324V567.602L827.595 615.206V665.69L787.837 691.603H751.32H751.149L688.525 732.297C686.819 731.529 684.601 731.529 683.065 732.489C681.358 733.641 681.358 735.368 683.065 736.328C684.771 737.48 687.501 737.48 689.037 736.328C690.573 735.368 690.744 733.833 689.549 732.681L751.661 692.371H786.301L671.291 767.04C669.584 766.272 667.366 766.272 665.83 767.232H672.826L828.79 665.881V614.246L828.619 614.054L737.498 554.933L755.757 543.032L911.208 643.999V704.272L964.277 738.823C963.082 739.975 963.253 741.511 964.789 742.47C966.495 743.622 969.225 743.622 970.761 742.47C972.467 741.319 972.467 739.591 970.761 738.631C969.225 737.672 966.836 737.48 965.3 738.439L912.232 703.888V643.615L912.061 643.423L756.781 542.648L774.186 531.323L927.931 631.138H1019.73L1024 634.017V632.866L1019.9 630.178H928.101L798.246 545.911H824.353L868.719 574.704H902.847H903.017L950.284 543.992C951.991 544.76 954.209 544.76 955.745 543.8C957.451 542.648 957.451 540.921 955.745 539.961C954.038 538.809 951.308 538.809 949.772 539.961C948.237 540.921 948.066 542.456 949.26 543.608L902.506 573.936H868.89L824.524 545.144H796.539L774.868 531.131L821.452 500.803L834.762 509.441V532.091L868.378 553.973C867.183 555.125 867.354 556.661 868.89 557.621C870.596 558.772 873.326 558.772 874.862 557.621C876.569 556.469 876.569 554.741 874.862 553.782C873.326 552.822 870.937 552.63 869.402 553.59L835.786 531.707V510.4L871.62 533.627H888.684H888.855L909.16 520.382C910.867 521.15 913.085 521.15 914.621 520.19C916.327 519.038 916.327 517.311 914.621 516.351C912.914 515.199 910.184 515.199 908.649 516.351C907.113 517.311 906.942 518.846 908.137 519.998L888.513 532.859H871.961L822.476 500.035L831.52 494.276L830.838 493.892L802.853 475.849L816.333 467.211H836.639L851.143 476.617C849.949 477.769 850.12 479.112 851.655 480.072C853.362 481.224 856.092 481.224 857.628 480.072C859.334 478.92 859.334 477.193 857.628 476.233C856.092 475.273 853.703 475.081 851.997 476.041L836.81 466.251H817.869L851.997 443.985L932.538 496.196H990.384H990.555L1023.15 475.081C1023.32 475.273 1023.66 475.273 1023.83 475.273V470.282C1023.32 470.474 1022.98 470.666 1022.63 470.858C1021.1 471.818 1020.93 473.354 1022.12 474.505L990.043 495.236H932.708L870.596 454.926H897.216L923.153 471.818C921.958 472.97 922.129 474.505 923.665 475.465C925.371 476.617 928.101 476.617 929.637 475.465C931.343 474.313 931.343 472.586 929.637 471.626C928.101 470.666 925.712 470.474 924.177 471.434L897.557 454.158H869.06L853.021 443.793L893.803 417.304H1023.66V416.152H895.339L911.549 405.595H1008.13H1008.3L1023.66 395.613V394.461L1007.96 404.635H911.379H911.208L801.658 475.849L789.543 467.979L904.724 393.118H988.848H989.019L1023.66 370.659V368.548L988.678 391.39H904.553H904.383L788.69 466.443L774.868 457.422L999.428 311.538V258.559L1023.83 242.819V241.668V241.668ZM829.643 494.276L717.534 567.026L605.424 494.276L717.534 421.527L829.643 494.276Z" fill="#42E8E0"/>
<g id="laptopShadow">
<g id="Group" opacity="0.67">
<path id="Vector" opacity="0.67" d="M688.867 704.272L400.829 517.311L688.696 330.157L976.733 517.311L688.867 704.272Z" fill="#0F054C"/>
</g>
<g id="Group_2" opacity="0.67">
<path id="Vector_2" opacity="0.67" d="M688.867 675.287L445.366 517.311L688.696 359.142L932.197 517.311L688.867 675.287Z" fill="#0F054C"/>
</g>
<g id="Group_3" opacity="0.9">
<path id="Vector_3" opacity="0.9" d="M688.867 641.504L497.41 517.311L688.696 392.926L880.152 517.311L688.867 641.504Z" fill="#080344"/>
</g>
</g>
<g id="laptop">
<g id="Group_4">
<path id="Vector_4" d="M728.113 645.534C726.236 645.534 724.359 644.959 722.994 643.999L494.51 495.62C492.974 494.66 491.95 493.125 491.95 491.781C491.95 490.437 492.633 489.478 493.827 488.518L630.167 400.028C632.556 398.492 636.651 398.684 639.381 400.412L867.866 548.791C869.402 549.75 870.426 551.286 870.426 552.63C870.426 553.973 869.743 554.933 868.549 555.893L732.209 644.383C731.185 645.343 729.649 645.534 728.113 645.534ZM495.192 494.084L723.677 642.463C725.895 643.999 729.478 643.999 731.355 642.847L867.695 554.357C868.207 553.973 868.719 553.59 868.719 552.822C868.719 552.054 868.037 551.094 867.013 550.518L638.528 402.139C636.31 400.604 632.727 400.604 630.85 401.755L494.51 490.245C493.998 490.629 493.486 491.013 493.486 491.781C493.656 492.549 494.168 493.509 495.192 494.084Z" fill="#FF2C9C"/>
<g id="Group_5">
<g id="Group_6">
<g id="Group_7">
<g id="Group_8">
<g id="Group_9">
<path id="Vector_5" d="M639.381 354.919L668.219 162.007L665.83 160.856L669.243 158.552C669.926 157.976 670.949 158.168 671.973 158.744L903.018 309.043C904.895 310.194 906.43 313.458 906.089 315.569L876.91 510.016C876.739 510.976 876.227 511.744 875.715 511.936L872.303 514.239L871.791 510.592H871.961L642.453 361.446C640.576 360.294 639.04 357.223 639.381 354.919Z" fill="url(#paint2_linear)"/>
<path id="Vector_6" d="M901.823 314.225L905.577 312.306C905.918 313.458 906.26 314.609 906.089 315.569L876.91 510.016C876.739 510.976 876.227 511.744 875.716 511.936L872.303 514.239L871.791 510.592H871.961L860.358 503.106L901.823 314.225Z" fill="url(#paint3_linear)"/>
<path id="Vector_7" d="M638.869 363.941L869.743 513.855C871.449 515.007 872.985 514.431 873.326 512.32L902.506 317.872C902.847 315.569 901.482 312.498 899.434 311.346L668.56 161.24C666.854 160.088 665.318 160.664 664.977 162.775L635.798 357.223C635.457 359.526 636.822 362.597 638.869 363.941Z" fill="#24126A"/>
<g id="Group_10" opacity="0.51">
<path id="Vector_8" opacity="0.51" d="M667.707 164.887L899.775 315.569L870.426 510.4L638.528 359.91L667.707 164.887Z" fill="#453C9E"/>
</g>
</g>
<g id="Group_11">
<path id="Vector_9" d="M493.656 455.886L506.284 463.372L632.727 381.217C634.774 379.873 638.528 380.065 640.917 381.601L858.822 523.069C860.87 521.726 870.426 516.543 870.426 516.543L865.818 524.989C865.648 525.565 865.136 526.14 864.453 526.524L731.355 612.903C729.308 614.246 725.554 614.054 723.165 612.519L500.141 467.595C499.117 467.019 498.605 466.251 498.264 465.292L493.656 455.886Z" fill="url(#paint4_linear)"/>
<path id="Vector_10" d="M495.533 458.189L724.018 606.568C726.578 608.104 730.332 608.296 732.55 606.952L868.89 518.462C871.108 517.119 870.767 514.623 868.207 512.896L639.893 364.517C637.334 362.981 633.58 362.789 631.361 364.133L495.022 452.623C492.803 454.158 493.144 456.654 495.533 458.189Z" fill="url(#paint5_linear)"/>
<path id="Vector_11" d="M495.533 457.038L724.018 605.417C726.578 606.952 730.332 607.144 732.55 605.801L868.89 517.311C869.573 516.735 870.084 516.159 870.255 515.583C870.426 516.735 870.084 517.695 868.89 518.462L732.55 606.952C730.332 608.296 726.578 608.104 724.018 606.568L495.533 458.189C493.827 457.23 493.315 455.694 493.486 454.542C493.827 455.502 494.51 456.27 495.533 457.038Z" fill="white"/>
</g>
</g>
<g id="Group_12" opacity="0.15">
<g id="Group_13" opacity="0.15">
<g id="Group_14" opacity="0.15">
<path id="Vector_12" opacity="0.15" d="M638.528 362.597L651.155 370.083L777.598 287.928C779.646 286.584 783.4 286.776 785.789 288.312L1003.69 429.972C1005.74 428.629 1015.3 423.446 1015.3 423.446L1010.69 431.892C1010.52 432.468 1010.01 433.044 1009.33 433.428L876.227 519.806C874.18 521.15 870.426 520.958 868.037 519.422L645.012 374.69C643.989 374.114 643.477 373.347 643.135 372.387L638.528 362.597Z" fill="url(#paint6_linear)"/>
<path id="Vector_13" opacity="0.15" d="M640.405 364.901L868.89 513.28C871.449 514.815 875.204 515.007 877.422 513.664L1013.76 425.174C1015.98 423.83 1015.64 421.335 1013.08 419.607L784.595 271.228C782.035 269.693 778.281 269.501 776.063 270.844L639.893 359.526C637.675 360.87 638.016 363.365 640.405 364.901Z" fill="url(#paint7_linear)"/>
<path id="Vector_14" opacity="0.15" d="M1013.25 419.799L784.765 271.42C783.23 270.46 781.011 269.884 779.134 270.076C780.499 270.268 782.035 270.652 783.059 271.42L1011.54 419.799C1014.1 421.335 1014.27 423.83 1012.23 425.366L875.886 513.855C875.033 514.431 874.18 514.623 873.156 514.815C874.862 515.007 876.398 514.623 877.593 513.855L1013.93 425.366C1015.98 423.83 1015.81 421.335 1013.25 419.799Z" fill="white"/>
</g>
<g id="Group_15" opacity="0.5">
<path id="Vector_15" opacity="0.5" d="M760.193 339.371L752.856 334.572C752.344 334.188 751.32 334.188 750.638 334.572L742.447 339.947C741.764 340.331 741.764 341.099 742.276 341.483L749.614 346.281C750.126 346.665 751.15 346.665 751.832 346.281L760.023 340.907C760.705 340.523 760.705 339.755 760.193 339.371Z" fill="#24126A"/>
<path id="Vector_16" opacity="0.5" d="M771.455 346.665L764.118 341.866C763.606 341.483 762.582 341.483 761.9 341.866L753.709 347.241C753.027 347.625 753.027 348.393 753.538 348.777L760.876 353.576C761.388 353.959 762.412 353.959 763.094 353.576L771.285 348.201C771.967 347.817 772.138 347.049 771.455 346.665Z" fill="#24126A"/>
<path id="Vector_17" opacity="0.5" d="M782.718 354.151L775.38 349.353C774.868 348.969 773.844 348.969 773.162 349.353L764.971 354.727C764.289 355.111 764.289 355.879 764.801 356.263L772.138 361.062C772.65 361.446 773.674 361.446 774.356 361.062L782.547 355.687C783.4 355.111 783.4 354.535 782.718 354.151Z" fill="#24126A"/>
<path id="Vector_18" opacity="0.5" d="M774.186 363.941L766.848 359.142C766.336 358.758 765.312 358.758 764.63 359.142L757.804 363.557C757.122 363.941 757.122 364.709 757.634 365.093L764.971 369.892C765.483 370.275 766.507 370.275 767.19 369.892L774.015 365.477C774.698 364.901 774.698 364.325 774.186 363.941Z" fill="#24126A"/>
<path id="Vector_19" opacity="0.5" d="M785.448 371.235L778.11 366.436C777.598 366.052 776.575 366.052 775.892 366.436L769.067 370.851C768.384 371.235 768.384 372.003 768.896 372.387L776.233 377.186C776.745 377.57 777.769 377.57 778.452 377.186L785.277 372.771C786.13 372.195 786.13 371.619 785.448 371.235Z" fill="#24126A"/>
<path id="Vector_20" opacity="0.5" d="M796.881 378.529L789.543 373.731C789.031 373.347 788.007 373.347 787.325 373.731L780.499 378.145C779.817 378.529 779.817 379.297 780.329 379.681L787.666 384.48C788.178 384.864 789.202 384.864 789.884 384.48L796.71 380.065C797.392 379.681 797.392 378.913 796.881 378.529Z" fill="#24126A"/>
<path id="Vector_21" opacity="0.5" d="M808.143 386.015L800.805 381.217C800.293 380.833 799.269 380.833 798.587 381.217L791.761 385.632C791.079 386.015 791.079 386.783 791.591 387.167L798.928 391.966C799.44 392.35 800.464 392.35 801.146 391.966L807.972 387.551C808.655 386.975 808.655 386.399 808.143 386.015Z" fill="#24126A"/>
<path id="Vector_22" opacity="0.5" d="M819.405 393.31L812.067 388.511C811.555 388.127 810.532 388.127 809.849 388.511L803.024 392.926C802.341 393.31 802.341 394.077 802.853 394.461L810.19 399.26C810.702 399.644 811.726 399.644 812.409 399.26L819.234 394.845C819.917 394.269 820.087 393.694 819.405 393.31Z" fill="#24126A"/>
<path id="Vector_23" opacity="0.5" d="M830.837 400.604L823.5 395.805C822.988 395.421 821.964 395.421 821.282 395.805L814.456 400.22C813.774 400.604 813.774 401.372 814.286 401.756L821.623 406.554C822.135 406.938 823.159 406.938 823.841 406.554L830.667 402.14C831.349 401.564 831.349 400.988 830.837 400.604Z" fill="#24126A"/>
<path id="Vector_24" opacity="0.5" d="M842.1 407.898L834.762 403.099C834.25 402.715 833.226 402.715 832.544 403.099L825.718 407.514C825.036 407.898 825.036 408.666 825.548 409.05L832.885 413.849C833.397 414.232 834.421 414.232 835.104 413.849L841.929 409.434C842.612 409.05 842.612 408.282 842.1 407.898Z" fill="#24126A"/>
<path id="Vector_25" opacity="0.5" d="M853.362 415.384L846.024 410.585C845.512 410.201 844.489 410.201 843.806 410.585L836.98 415C836.298 415.384 836.298 416.152 836.81 416.536L844.147 421.335C844.659 421.718 845.683 421.718 846.366 421.335L853.191 416.92C853.874 416.344 854.044 415.768 853.362 415.384Z" fill="#24126A"/>
<path id="Vector_26" opacity="0.5" d="M864.624 422.678L857.286 417.88C856.775 417.496 855.751 417.496 855.068 417.88L848.243 422.294C847.56 422.678 847.56 423.446 848.072 423.83L855.409 428.629C855.921 429.013 856.945 429.013 857.628 428.629L864.453 424.214C865.306 423.638 865.306 423.062 864.624 422.678Z" fill="#24126A"/>
<path id="Vector_27" opacity="0.5" d="M876.057 429.972L868.719 425.174C868.207 424.79 867.183 424.79 866.501 425.174L859.675 429.589C858.993 429.972 858.993 430.74 859.505 431.124L866.842 435.923C867.354 436.307 868.378 436.307 869.06 435.923L875.886 431.508C876.568 431.124 876.569 430.356 876.057 429.972Z" fill="#24126A"/>
<path id="Vector_28" opacity="0.5" d="M769.408 374.306L762.07 369.508C761.558 369.124 760.535 369.124 759.852 369.508L753.026 373.923C752.344 374.306 752.344 375.074 752.856 375.458L760.193 380.257C760.705 380.641 761.729 380.641 762.412 380.257L769.237 375.842C770.09 375.458 770.09 374.69 769.408 374.306Z" fill="#24126A"/>
<path id="Vector_29" opacity="0.5" d="M757.975 366.82L750.638 362.021C750.126 361.638 749.102 361.638 748.419 362.021L741.594 366.436C740.911 366.82 740.911 367.588 741.423 367.972L748.761 372.771C749.272 373.155 750.296 373.155 750.979 372.771L757.804 368.356C758.487 367.972 758.658 367.204 757.975 366.82Z" fill="#24126A"/>
<path id="Vector_30" opacity="0.5" d="M746.542 359.526L730.844 349.353C730.332 348.969 729.308 348.969 728.625 349.353L721.8 353.767C721.117 354.151 721.117 354.919 721.629 355.303L737.328 365.477C737.84 365.86 738.864 365.86 739.546 365.477L746.372 361.062C747.054 360.486 747.054 359.91 746.542 359.526Z" fill="#24126A"/>
<path id="Vector_31" opacity="0.5" d="M733.062 364.325L720.264 356.071C719.752 355.687 718.728 355.687 718.046 356.071L711.22 360.486C710.538 360.87 710.538 361.638 711.049 362.021L723.847 370.275C724.359 370.659 725.383 370.659 726.066 370.275L732.891 365.86C733.744 365.285 733.744 364.709 733.062 364.325Z" fill="#24126A"/>
<path id="Vector_32" opacity="0.5" d="M780.841 381.792L773.503 376.994C772.991 376.61 771.967 376.61 771.285 376.994L764.459 381.409C763.777 381.792 763.777 382.56 764.289 382.944L771.626 387.743C772.138 388.127 773.162 388.127 773.844 387.743L780.67 383.328C781.352 382.752 781.352 382.176 780.841 381.792Z" fill="#24126A"/>
<path id="Vector_33" opacity="0.5" d="M792.103 389.087L784.765 384.288C784.253 383.904 783.229 383.904 782.547 384.288L775.721 388.703C775.039 389.087 775.039 389.855 775.551 390.238L782.888 395.037C783.4 395.421 784.424 395.421 785.106 395.037L791.932 390.622C792.615 390.046 792.615 389.471 792.103 389.087Z" fill="#24126A"/>
<path id="Vector_34" opacity="0.5" d="M803.365 396.381L796.027 391.582C795.515 391.198 794.492 391.198 793.809 391.582L786.984 395.997C786.301 396.381 786.301 397.149 786.813 397.533L794.15 402.331C794.662 402.715 795.686 402.715 796.369 402.331L803.194 397.917C804.047 397.533 804.047 396.765 803.365 396.381Z" fill="#24126A"/>
<path id="Vector_35" opacity="0.5" d="M814.798 403.675L807.46 398.876C806.948 398.492 805.924 398.492 805.242 398.876L798.416 403.291C797.734 403.675 797.734 404.443 798.246 404.827L805.583 409.626C806.095 410.009 807.119 410.009 807.801 409.626L814.627 405.211C815.309 404.827 815.309 404.059 814.798 403.675Z" fill="#24126A"/>
<path id="Vector_36" opacity="0.5" d="M826.06 411.161L818.722 406.362C818.21 405.978 817.187 405.978 816.504 406.362L809.678 410.777C808.996 411.161 808.996 411.929 809.508 412.313L816.845 417.112C817.357 417.496 818.381 417.496 819.064 417.112L825.889 412.697C826.572 412.121 826.572 411.545 826.06 411.161Z" fill="#24126A"/>
<path id="Vector_37" opacity="0.5" d="M837.322 418.455L829.984 413.657C829.472 413.273 828.449 413.273 827.766 413.657L820.941 418.071C820.258 418.455 820.258 419.223 820.77 419.607L828.107 424.406C828.619 424.79 829.643 424.79 830.326 424.406L837.151 419.991C837.834 419.415 838.004 418.839 837.322 418.455Z" fill="#24126A"/>
<path id="Vector_38" opacity="0.5" d="M848.755 425.749L841.417 420.951C840.905 420.567 839.881 420.567 839.199 420.951L832.373 425.366C831.691 425.749 831.691 426.517 832.203 426.901L839.54 431.7C840.052 432.084 841.076 432.084 841.758 431.7L848.584 427.285C849.266 426.901 849.266 426.133 848.755 425.749Z" fill="#24126A"/>
<path id="Vector_39" opacity="0.5" d="M860.017 433.236L852.679 428.437C852.167 428.053 851.143 428.053 850.461 428.437L843.635 432.852C842.953 433.236 842.953 434.003 843.465 434.387L850.802 439.186C851.314 439.57 852.338 439.57 853.02 439.186L859.846 434.771C860.529 434.195 860.529 433.619 860.017 433.236Z" fill="#24126A"/>
<path id="Vector_40" opacity="0.5" d="M871.279 440.53L863.941 435.731C863.429 435.347 862.406 435.347 861.723 435.731L854.898 440.146C854.215 440.53 854.215 441.298 854.727 441.682L862.064 446.48C862.576 446.864 863.6 446.864 864.283 446.48L871.108 442.065C871.791 441.49 871.961 440.914 871.279 440.53Z" fill="#24126A"/>
<path id="Vector_41" opacity="0.5" d="M891.414 453.583L875.374 443.217C874.862 442.833 873.838 442.833 873.156 443.217L866.33 447.632C865.648 448.016 865.648 448.784 866.16 449.168L882.2 459.533C882.712 459.917 883.735 459.917 884.418 459.533L891.243 455.118C891.926 454.542 891.926 453.967 891.414 453.583Z" fill="#24126A"/>
<path id="Vector_42" opacity="0.5" d="M870.596 467.211L857.116 458.381C856.604 457.997 855.58 457.997 854.897 458.381L848.072 462.796C847.389 463.18 847.389 463.948 847.901 464.332L861.382 473.162C861.894 473.546 862.917 473.546 863.6 473.162L870.426 468.747C871.279 468.171 871.279 467.595 870.596 467.211Z" fill="#24126A"/>
<path id="Vector_43" opacity="0.5" d="M779.134 394.269L771.797 389.471C771.285 389.087 770.261 389.087 769.578 389.471L762.753 393.885C762.07 394.269 762.07 395.037 762.582 395.421L769.92 400.22C770.432 400.604 771.455 400.604 772.138 400.22L778.963 395.805C779.817 395.229 779.817 394.653 779.134 394.269Z" fill="#24126A"/>
<path id="Vector_44" opacity="0.5" d="M767.701 386.783L760.364 381.984C759.852 381.601 758.828 381.601 758.146 381.984L751.32 386.399C750.638 386.783 750.638 387.551 751.149 387.935L758.487 392.734C758.999 393.118 760.023 393.118 760.705 392.734L767.531 388.319C768.213 387.743 768.213 387.167 767.701 386.783Z" fill="#24126A"/>
<path id="Vector_45" opacity="0.5" d="M756.098 379.105L748.76 374.306C748.249 373.922 747.225 373.922 746.542 374.306L739.717 378.721C739.034 379.105 739.034 379.873 739.546 380.257L746.883 385.056C747.395 385.44 748.419 385.44 749.102 385.056L755.927 380.641C756.61 380.257 756.61 379.489 756.098 379.105Z" fill="#24126A"/>
<path id="Vector_46" opacity="0.5" d="M744.495 371.619L737.157 366.82C736.645 366.436 735.621 366.436 734.939 366.82L728.113 371.235C727.431 371.619 727.431 372.387 727.943 372.771L735.28 377.57C735.792 377.953 736.816 377.953 737.498 377.57L744.324 373.155C745.006 372.771 745.006 372.003 744.495 371.619Z" fill="#24126A"/>
<path id="Vector_47" opacity="0.5" d="M790.567 401.564L783.229 396.765C782.718 396.381 781.694 396.381 781.011 396.765L774.186 401.18C773.503 401.564 773.503 402.331 774.015 402.715L781.352 407.514C781.864 407.898 782.888 407.898 783.571 407.514L790.396 403.099C791.079 402.715 791.079 401.947 790.567 401.564Z" fill="#24126A"/>
<path id="Vector_48" opacity="0.5" d="M801.829 408.858L794.492 404.059C793.98 403.675 792.956 403.675 792.273 404.059L785.448 408.474C784.765 408.858 784.765 409.626 785.277 410.01L792.615 414.808C793.126 415.192 794.15 415.192 794.833 414.808L801.658 410.393C802.341 410.01 802.512 409.242 801.829 408.858Z" fill="#24126A"/>
<path id="Vector_49" opacity="0.5" d="M813.091 416.344L805.754 411.545C805.242 411.161 804.218 411.161 803.535 411.545L796.71 415.96C796.027 416.344 796.027 417.112 796.539 417.496L803.877 422.294C804.389 422.678 805.412 422.678 806.095 422.294L812.92 417.88C813.774 417.304 813.774 416.728 813.091 416.344Z" fill="#24126A"/>
<path id="Vector_50" opacity="0.5" d="M824.524 423.638L817.187 418.839C816.675 418.455 815.651 418.455 814.968 418.839L808.143 423.254C807.46 423.638 807.46 424.406 807.972 424.79L815.309 429.589C815.821 429.972 816.845 429.972 817.528 429.589L824.353 425.174C825.036 424.598 825.036 424.022 824.524 423.638Z" fill="#24126A"/>
<path id="Vector_51" opacity="0.5" d="M835.786 430.932L828.449 426.133C827.937 425.75 826.913 425.75 826.23 426.133L819.405 430.548C818.722 430.932 818.722 431.7 819.234 432.084L826.572 436.883C827.083 437.267 828.107 437.267 828.79 436.883L835.615 432.468C836.298 432.084 836.298 431.316 835.786 430.932Z" fill="#24126A"/>
<path id="Vector_52" opacity="0.5" d="M847.048 438.418L839.711 433.62C839.199 433.236 838.175 433.236 837.492 433.62L830.667 438.034C829.984 438.418 829.984 439.186 830.496 439.57L837.834 444.369C838.346 444.753 839.369 444.753 840.052 444.369L846.877 439.954C847.731 439.378 847.731 438.802 847.048 438.418Z" fill="#24126A"/>
<path id="Vector_53" opacity="0.5" d="M858.481 445.712L851.143 440.914C850.632 440.53 849.608 440.53 848.925 440.914L842.1 445.329C841.417 445.712 841.417 446.48 841.929 446.864L849.266 451.663C849.778 452.047 850.802 452.047 851.485 451.663L858.31 447.248C858.993 446.672 858.993 446.096 858.481 445.712Z" fill="#24126A"/>
<path id="Vector_54" opacity="0.5" d="M869.743 453.007L862.406 448.208C861.894 447.824 860.87 447.824 860.187 448.208L853.362 452.623C852.679 453.007 852.679 453.774 853.191 454.158L860.529 458.957C861.041 459.341 862.064 459.341 862.747 458.957L869.572 454.542C870.255 454.158 870.255 453.391 869.743 453.007Z" fill="#24126A"/>
<path id="Vector_55" opacity="0.5" d="M881.005 460.301L873.668 455.502C873.156 455.118 872.132 455.118 871.449 455.502L864.624 459.917C863.941 460.301 863.941 461.069 864.453 461.453L871.791 466.251C872.303 466.635 873.326 466.635 874.009 466.251L880.835 461.837C881.517 461.453 881.688 460.685 881.005 460.301Z" fill="#24126A"/>
<path id="Vector_56" opacity="0.5" d="M751.832 390.046L744.495 385.248C743.983 384.864 742.959 384.864 742.276 385.248L735.451 389.663C734.768 390.046 734.768 390.814 735.28 391.198L742.618 395.997C743.129 396.381 744.153 396.381 744.836 395.997L751.661 391.582C752.344 391.006 752.515 390.43 751.832 390.046Z" fill="#24126A"/>
<path id="Vector_57" opacity="0.5" d="M740.57 382.752L733.233 377.954C732.721 377.57 731.697 377.57 731.014 377.954L724.189 382.368C723.506 382.752 723.506 383.52 724.018 383.904L731.355 388.703C731.867 389.087 732.891 389.087 733.574 388.703L740.399 384.288C741.082 383.712 741.252 383.136 740.57 382.752Z" fill="#24126A"/>
<path id="Vector_58" opacity="0.5" d="M729.308 375.458L721.97 370.659C721.458 370.275 720.435 370.275 719.752 370.659L712.927 375.074C712.244 375.458 712.244 376.226 712.756 376.61L720.093 381.409C720.605 381.793 721.629 381.793 722.312 381.409L729.137 376.994C729.99 376.418 729.99 375.842 729.308 375.458Z" fill="#24126A"/>
<path id="Vector_59" opacity="0.5" d="M718.046 368.164L710.708 363.365C710.196 362.981 709.173 362.981 708.49 363.365L701.664 367.78C700.982 368.164 700.982 368.932 701.494 369.316L708.831 374.114C709.343 374.498 710.367 374.498 711.05 374.114L717.875 369.699C718.728 369.124 718.728 368.548 718.046 368.164Z" fill="#24126A"/>
<path id="Vector_60" opacity="0.5" d="M707.125 375.266L699.787 370.467C699.275 370.083 698.252 370.083 697.569 370.467L695.351 372.003C694.668 372.387 694.668 373.155 695.18 373.539L702.518 378.337C703.029 378.721 704.053 378.721 704.736 378.337L706.954 376.802C707.807 376.226 707.807 375.65 707.125 375.266Z" fill="#24126A"/>
<path id="Vector_61" opacity="0.5" d="M721.97 384.864L714.633 380.065C714.121 379.681 713.097 379.681 712.415 380.065L710.196 381.601C709.514 381.984 709.514 382.752 710.026 383.136L717.363 387.935C717.875 388.319 718.899 388.319 719.581 387.935L721.8 386.399C722.482 385.824 722.482 385.248 721.97 384.864Z" fill="#24126A"/>
<path id="Vector_62" opacity="0.5" d="M733.062 392.158L725.724 387.359C725.212 386.975 724.189 386.975 723.506 387.359L721.288 388.895C720.605 389.279 720.605 390.046 721.117 390.43L728.455 395.229C728.966 395.613 729.99 395.613 730.673 395.229L732.891 393.694C733.574 393.118 733.744 392.542 733.062 392.158Z" fill="#24126A"/>
<path id="Vector_63" opacity="0.5" d="M744.324 399.452L736.987 394.653C736.475 394.269 735.451 394.269 734.768 394.653L732.55 396.189C731.867 396.573 731.867 397.341 732.379 397.724L739.717 402.523C740.229 402.907 741.252 402.907 741.935 402.523L744.153 400.988C744.836 400.412 744.836 399.836 744.324 399.452Z" fill="#24126A"/>
<path id="Vector_64" opacity="0.5" d="M755.586 406.746L748.249 401.947C747.737 401.564 746.713 401.564 746.03 401.947L743.812 403.483C743.129 403.867 743.129 404.635 743.641 405.019L750.979 409.817C751.491 410.201 752.515 410.201 753.197 409.817L755.415 408.282C756.098 407.706 756.098 407.13 755.586 406.746Z" fill="#24126A"/>
<path id="Vector_65" opacity="0.5" d="M818.04 447.248L810.702 442.449C810.19 442.065 809.166 442.065 808.484 442.449L806.266 443.985C805.583 444.369 805.583 445.137 806.095 445.521L813.432 450.319C813.944 450.703 814.968 450.703 815.651 450.319L817.869 448.784C818.722 448.4 818.722 447.632 818.04 447.248Z" fill="#24126A"/>
<path id="Vector_66" opacity="0.5" d="M829.302 454.542L821.964 449.744C821.452 449.36 820.429 449.36 819.746 449.744L817.528 451.279C816.845 451.663 816.845 452.431 817.357 452.815L824.695 457.614C825.206 457.997 826.23 457.997 826.913 457.614L829.131 456.078C829.814 455.694 829.984 454.926 829.302 454.542Z" fill="#24126A"/>
<path id="Vector_67" opacity="0.5" d="M840.564 461.837L833.226 457.038C832.714 456.654 831.691 456.654 831.008 457.038L828.79 458.573C828.107 458.957 828.107 459.725 828.619 460.109L835.957 464.908C836.469 465.292 837.492 465.292 838.175 464.908L840.393 463.372C841.076 462.988 841.076 462.22 840.564 461.837Z" fill="#24126A"/>
<path id="Vector_68" opacity="0.5" d="M851.826 469.131L844.489 464.332C843.977 463.948 842.953 463.948 842.27 464.332L840.052 465.867C839.369 466.251 839.369 467.019 839.881 467.403L847.219 472.202C847.731 472.586 848.754 472.586 849.437 472.202L851.655 470.666C852.338 470.09 852.338 469.515 851.826 469.131Z" fill="#24126A"/>
<path id="Vector_69" opacity="0.5" d="M763.265 397.341L755.927 392.542C755.415 392.158 754.392 392.158 753.709 392.542L746.884 396.957C746.201 397.341 746.201 398.108 746.713 398.492L754.05 403.291C754.562 403.675 755.586 403.675 756.269 403.291L763.094 398.876C763.777 398.492 763.777 397.725 763.265 397.341Z" fill="#24126A"/>
<path id="Vector_70" opacity="0.5" d="M774.527 404.827L767.189 400.028C766.678 399.644 765.654 399.644 764.971 400.028L758.146 404.443C757.463 404.827 757.463 405.595 757.975 405.978L765.312 410.777C765.824 411.161 766.848 411.161 767.531 410.777L774.356 406.362C775.039 405.787 775.039 405.211 774.527 404.827Z" fill="#24126A"/>
<path id="Vector_71" opacity="0.5" d="M785.789 412.121L778.452 407.322C777.94 406.938 776.916 406.938 776.233 407.322L769.408 411.737C768.725 412.121 768.725 412.889 769.237 413.273L776.575 418.071C777.087 418.455 778.11 418.455 778.793 418.071L785.618 413.657C786.301 413.081 786.472 412.505 785.789 412.121Z" fill="#24126A"/>
<path id="Vector_72" opacity="0.5" d="M797.051 419.415L789.714 414.616C789.202 414.232 788.178 414.232 787.495 414.616L780.67 419.031C779.987 419.415 779.987 420.183 780.499 420.567L787.837 425.366C788.349 425.749 789.372 425.749 790.055 425.366L796.881 420.951C797.734 420.375 797.734 419.799 797.051 419.415Z" fill="#24126A"/>
<path id="Vector_73" opacity="0.5" d="M808.484 426.709L801.146 421.911C800.635 421.527 799.611 421.527 798.928 421.911L792.103 426.325C791.42 426.709 791.42 427.477 791.932 427.861L799.269 432.66C799.781 433.044 800.805 433.044 801.488 432.66L808.313 428.245C808.996 427.861 808.996 427.093 808.484 426.709Z" fill="#24126A"/>
<path id="Vector_74" opacity="0.5" d="M819.746 434.195L812.409 429.397C811.897 429.013 810.873 429.013 810.19 429.397L803.365 433.812C802.682 434.195 802.682 434.963 803.194 435.347L810.532 440.146C811.043 440.53 812.067 440.53 812.75 440.146L819.575 435.731C820.258 435.155 820.429 434.579 819.746 434.195Z" fill="#24126A"/>
<path id="Vector_75" opacity="0.5" d="M831.008 441.49L823.671 436.691C823.159 436.307 822.135 436.307 821.453 436.691L814.627 441.106C813.944 441.49 813.944 442.257 814.456 442.641L821.794 447.44C822.306 447.824 823.33 447.824 824.012 447.44L830.838 443.025C831.691 442.449 831.691 441.874 831.008 441.49Z" fill="#24126A"/>
<path id="Vector_76" opacity="0.5" d="M842.441 448.784L835.104 443.985C834.592 443.601 833.568 443.601 832.885 443.985L826.06 448.4C825.377 448.784 825.377 449.552 825.889 449.935L833.226 454.734C833.738 455.118 834.762 455.118 835.445 454.734L842.27 450.319C842.953 449.935 842.953 449.168 842.441 448.784Z" fill="#24126A"/>
<path id="Vector_77" opacity="0.5" d="M853.703 456.27L846.366 451.471C845.854 451.087 844.83 451.087 844.147 451.471L837.322 455.886C836.639 456.27 836.639 457.038 837.151 457.422L844.489 462.22C845 462.604 846.024 462.604 846.707 462.22L853.532 457.806C854.215 457.23 854.215 456.462 853.703 456.27Z" fill="#24126A"/>
<path id="Vector_78" opacity="0.5" d="M762.582 356.455L741.082 342.442C740.57 342.058 739.546 342.058 738.864 342.442L732.038 346.857C731.355 347.241 731.355 348.009 731.867 348.393L753.368 362.405C753.88 362.789 754.903 362.789 755.586 362.405L762.412 357.99C763.265 357.415 763.265 356.839 762.582 356.455Z" fill="#24126A"/>
<path id="Vector_79" opacity="0.5" d="M901.652 446.672L880.152 432.66C879.64 432.276 878.616 432.276 877.934 432.66L871.108 437.075C870.426 437.459 870.426 438.226 870.937 438.61L892.438 452.623C892.95 453.007 893.974 453.007 894.656 452.623L901.482 448.208C902.164 447.632 902.164 447.056 901.652 446.672Z" fill="#24126A"/>
<path id="Vector_80" opacity="0.5" d="M880.664 417.688L873.326 412.889C872.815 412.505 871.791 412.505 871.108 412.889L862.918 418.263C862.235 418.647 862.235 419.415 862.747 419.799L870.084 424.598C870.596 424.982 871.62 424.982 872.303 424.598L880.493 419.223C881.176 418.647 881.176 418.071 880.664 417.688Z" fill="#24126A"/>
<path id="Vector_81" opacity="0.5" d="M798.587 364.325L786.813 356.647C786.301 356.263 785.277 356.263 784.595 356.647L776.404 362.021C775.721 362.405 775.721 363.173 776.233 363.557L788.007 371.235C788.519 371.619 789.543 371.619 790.226 371.235L798.416 365.86C799.099 365.285 799.099 364.709 798.587 364.325Z" fill="#24126A"/>
<path id="Vector_82" opacity="0.5" d="M869.743 410.585L857.969 402.907C857.457 402.523 856.433 402.523 855.751 402.907L847.56 408.282C846.878 408.666 846.878 409.434 847.389 409.817L859.164 417.496C859.675 417.879 860.699 417.879 861.382 417.496L869.572 412.121C870.255 411.545 870.426 410.969 869.743 410.585Z" fill="#24126A"/>
<path id="Vector_83" opacity="0.5" d="M814.798 374.882L803.024 367.204C802.512 366.82 801.488 366.82 800.805 367.204L792.615 372.579C791.932 372.963 791.932 373.731 792.444 374.114L804.218 381.792C804.73 382.176 805.754 382.176 806.436 381.792L814.627 376.418C815.309 375.842 815.48 375.266 814.798 374.882Z" fill="#24126A"/>
<path id="Vector_84" opacity="0.5" d="M792.785 374.306L843.806 407.322C844.489 407.706 845.512 407.706 846.024 407.322L854.386 401.947C854.897 401.564 854.897 400.988 854.386 400.412L803.365 367.396L792.785 374.306Z" fill="#24126A"/>
<path id="Vector_85" opacity="0.5" d="M901.482 438.034L909.672 443.409C910.184 443.793 911.038 443.601 911.549 443.409L914.962 441.298C915.474 440.914 915.474 440.338 914.962 440.146L906.772 434.771C906.26 434.387 905.406 434.579 904.895 434.771L901.482 436.883C901.14 437.267 900.97 437.651 901.482 438.034Z" fill="#24126A"/>
<path id="Vector_86" opacity="0.5" d="M890.049 430.548L898.24 435.923C898.752 436.307 899.605 436.115 900.117 435.923L903.529 433.811C904.041 433.428 904.041 432.852 903.529 432.66L895.339 427.285C894.827 426.901 893.974 427.093 893.462 427.285L890.049 429.397C889.708 429.78 889.537 430.356 890.049 430.548Z" fill="#24126A"/>
<path id="Vector_87" opacity="0.5" d="M878.787 423.254L886.978 428.629C887.489 429.013 888.343 428.821 888.855 428.629L892.267 426.517C892.779 426.133 892.779 425.558 892.267 425.366L884.077 419.991C883.565 419.607 882.712 419.799 882.2 419.991L878.787 422.102C878.275 422.486 878.275 422.87 878.787 423.254Z" fill="#24126A"/>
<path id="Vector_88" opacity="0.5" d="M884.247 434.579L892.438 439.954C892.95 440.338 893.803 440.146 894.315 439.954L897.728 437.843C898.24 437.459 898.24 436.883 897.728 436.691L889.537 431.316C889.025 430.932 888.172 431.124 887.66 431.316L884.247 433.428C883.735 433.62 883.735 434.195 884.247 434.579Z" fill="#24126A"/>
</g>
</g>
</g>
</g>
<g id="Group_16" opacity="0.8">
<path id="Vector_89" opacity="0.8" d="M600.647 441.874L593.309 437.075C592.797 436.691 592.797 436.115 593.48 435.539L602.012 429.973C602.694 429.589 603.718 429.397 604.23 429.781L611.567 434.579C612.079 434.963 612.079 435.539 611.397 436.115L602.865 441.682C602.353 442.065 601.329 442.257 600.647 441.874Z" fill="#24126A"/>
<path id="Vector_90" opacity="0.8" d="M611.909 448.976L604.571 444.177C604.059 443.793 604.059 443.217 604.742 442.641L613.274 437.075C613.956 436.691 614.98 436.499 615.492 436.883L622.83 441.682C623.341 442.065 623.341 442.641 622.659 443.217L614.127 448.784C613.444 449.36 612.591 449.36 611.909 448.976Z" fill="#24126A"/>
<path id="Vector_91" opacity="0.8" d="M623.171 456.27L615.833 451.471C615.321 451.087 615.321 450.511 616.004 449.935L624.536 444.369C625.218 443.985 626.242 443.793 626.754 444.177L634.092 448.976C634.604 449.36 634.604 449.935 633.921 450.511L625.389 456.078C624.707 456.654 623.683 456.654 623.171 456.27Z" fill="#24126A"/>
<path id="Vector_92" opacity="0.8" d="M638.699 450.319L631.361 445.521C630.85 445.137 630.85 444.561 631.532 443.985L638.699 439.378C639.381 438.994 640.405 438.802 640.917 439.186L648.255 443.985C648.767 444.369 648.767 444.945 648.084 445.521L640.917 450.127C640.235 450.703 639.211 450.703 638.699 450.319Z" fill="#24126A"/>
<path id="Vector_93" opacity="0.8" d="M649.79 457.614L642.453 452.815C641.941 452.431 641.941 451.855 642.624 451.279L649.79 446.672C650.473 446.288 651.497 446.096 652.009 446.48L659.346 451.279C659.858 451.663 659.858 452.239 659.175 452.815L652.009 457.422C651.497 457.997 650.473 457.997 649.79 457.614Z" fill="#24126A"/>
<path id="Vector_94" opacity="0.8" d="M661.052 464.908L653.715 460.109C653.203 459.725 653.203 459.149 653.886 458.573L661.052 453.966C661.735 453.583 662.759 453.391 663.271 453.774L670.608 458.573C671.12 458.957 671.12 459.533 670.438 460.109L663.271 464.716C662.588 465.292 661.564 465.292 661.052 464.908Z" fill="#24126A"/>
<path id="Vector_95" opacity="0.8" d="M672.315 472.202L664.977 467.403C664.465 467.019 664.465 466.443 665.148 465.867L672.315 461.261C672.997 460.877 674.021 460.685 674.533 461.069L681.87 465.867C682.382 466.251 682.382 466.827 681.7 467.403L674.533 472.01C673.85 472.586 672.827 472.586 672.315 472.202Z" fill="#24126A"/>
<path id="Vector_96" opacity="0.8" d="M683.406 479.496L676.069 474.697C675.557 474.313 675.557 473.738 676.239 473.162L683.406 468.555C684.089 468.171 685.112 467.979 685.624 468.363L692.962 473.162C693.474 473.546 693.474 474.121 692.791 474.697L685.624 479.304C685.112 479.688 684.089 479.88 683.406 479.496Z" fill="#24126A"/>
<path id="Vector_97" opacity="0.8" d="M694.668 486.79L687.331 481.991C686.819 481.607 686.819 481.032 687.501 480.456L694.668 475.849C695.351 475.465 696.375 475.273 696.887 475.657L704.224 480.456C704.736 480.84 704.736 481.416 704.053 481.991L696.887 486.598C696.204 486.982 695.18 487.174 694.668 486.79Z" fill="#24126A"/>
<path id="Vector_98" opacity="0.8" d="M705.93 494.084L698.593 489.286C698.081 488.902 698.081 488.326 698.764 487.75L705.93 483.143C706.613 482.759 707.637 482.567 708.149 482.951L715.486 487.75C715.998 488.134 715.998 488.71 715.315 489.286L708.149 493.892C707.466 494.276 706.442 494.468 705.93 494.084Z" fill="#24126A"/>
<path id="Vector_99" opacity="0.8" d="M717.022 501.187L709.684 496.388C709.172 496.004 709.172 495.428 709.855 494.852L717.022 490.245C717.704 489.861 718.728 489.67 719.24 490.053L726.578 494.852C727.089 495.236 727.09 495.812 726.407 496.388L719.24 500.995C718.728 501.571 717.704 501.571 717.022 501.187Z" fill="#24126A"/>
<path id="Vector_100" opacity="0.8" d="M728.284 508.481L720.946 503.682C720.435 503.298 720.435 502.722 721.117 502.146L728.284 497.54C728.966 497.156 729.99 496.964 730.502 497.348L737.84 502.146C738.352 502.53 738.352 503.106 737.669 503.682L730.502 508.289C729.82 508.865 728.796 508.865 728.284 508.481Z" fill="#24126A"/>
<path id="Vector_101" opacity="0.8" d="M739.546 515.775L732.209 510.976C731.697 510.592 731.697 510.016 732.379 509.441L739.546 504.834C740.229 504.45 741.252 504.258 741.764 504.642L749.102 509.441C749.614 509.824 749.614 510.4 748.931 510.976L741.764 515.583C741.082 516.159 740.058 516.159 739.546 515.775Z" fill="#24126A"/>
<path id="Vector_102" opacity="0.8" d="M655.08 446.864L647.743 442.065C647.231 441.681 647.231 441.106 647.913 440.53L655.08 435.923C655.763 435.539 656.787 435.347 657.298 435.731L664.636 440.53C665.148 440.914 665.148 441.49 664.465 442.065L657.298 446.672C656.787 447.248 655.763 447.248 655.08 446.864Z" fill="#24126A"/>
<path id="Vector_103" opacity="0.8" d="M643.818 439.57L636.481 434.771C635.969 434.387 635.969 433.811 636.651 433.236L643.818 428.629C644.501 428.245 645.524 428.053 646.036 428.437L653.374 433.236C653.886 433.619 653.886 434.195 653.203 434.771L646.036 439.378C645.354 439.762 644.33 439.954 643.818 439.57Z" fill="#24126A"/>
<path id="Vector_104" opacity="0.8" d="M632.385 432.084L616.687 421.911C616.175 421.527 616.175 420.951 616.857 420.375L624.024 415.768C624.707 415.384 625.73 415.192 626.242 415.576L641.941 425.75C642.453 426.133 642.453 426.709 641.77 427.285L634.604 431.892C633.921 432.468 632.897 432.468 632.385 432.084Z" fill="#24126A"/>
<path id="Vector_105" opacity="0.8" d="M640.405 423.062L627.778 414.808C627.266 414.424 627.266 413.848 627.949 413.273L635.115 408.666C635.798 408.282 636.822 408.09 637.334 408.474L649.961 416.728C650.473 417.112 650.473 417.687 649.79 418.263L642.624 422.87C641.941 423.446 640.917 423.446 640.405 423.062Z" fill="#24126A"/>
<path id="Vector_106" opacity="0.8" d="M666.342 454.158L659.005 449.36C658.493 448.976 658.493 448.4 659.175 447.824L666.342 443.217C667.025 442.833 668.049 442.641 668.56 443.025L675.898 447.824C676.41 448.208 676.41 448.784 675.727 449.36L668.56 453.967C667.878 454.542 666.854 454.542 666.342 454.158Z" fill="#24126A"/>
<path id="Vector_107" opacity="0.8" d="M677.604 461.453L670.267 456.654C669.755 456.27 669.755 455.694 670.438 455.118L677.604 450.511C678.287 450.127 679.311 449.935 679.823 450.319L687.16 455.118C687.672 455.502 687.672 456.078 686.99 456.654L679.823 461.261C679.14 461.837 678.116 461.836 677.604 461.453Z" fill="#24126A"/>
<path id="Vector_108" opacity="0.8" d="M688.696 468.747L681.359 463.948C680.847 463.564 680.847 462.988 681.529 462.412L688.696 457.806C689.379 457.422 690.402 457.23 690.914 457.614L698.252 462.412C698.764 462.796 698.764 463.372 698.081 463.948L690.914 468.555C690.402 469.131 689.379 469.131 688.696 468.747Z" fill="#24126A"/>
<path id="Vector_109" opacity="0.8" d="M699.958 476.041L692.621 471.242C692.109 470.858 692.109 470.282 692.791 469.707L699.958 465.1C700.641 464.716 701.664 464.524 702.176 464.908L709.514 469.707C710.026 470.09 710.026 470.666 709.343 471.242L702.176 475.849C701.494 476.233 700.47 476.425 699.958 476.041Z" fill="#24126A"/>
<path id="Vector_110" opacity="0.8" d="M711.22 483.335L703.883 478.536C703.371 478.152 703.371 477.577 704.053 477.001L711.22 472.394C711.903 472.01 712.927 471.818 713.438 472.202L720.776 477.001C721.288 477.385 721.288 477.96 720.605 478.536L713.438 483.143C712.756 483.527 711.732 483.719 711.22 483.335Z" fill="#24126A"/>
<path id="Vector_111" opacity="0.8" d="M722.312 490.629L714.974 485.83C714.462 485.447 714.462 484.871 715.145 484.295L722.312 479.688C722.994 479.304 724.018 479.112 724.53 479.496L731.867 484.295C732.379 484.679 732.379 485.255 731.697 485.83L724.53 490.437C724.018 490.821 722.994 491.013 722.312 490.629Z" fill="#24126A"/>
<path id="Vector_112" opacity="0.8" d="M733.574 497.924L726.236 493.125C725.724 492.741 725.724 492.165 726.407 491.589L733.574 486.982C734.256 486.598 735.28 486.406 735.792 486.79L743.13 491.589C743.641 491.973 743.641 492.549 742.959 493.125L735.792 497.732C735.11 498.115 734.086 498.115 733.574 497.924Z" fill="#24126A"/>
<path id="Vector_113" opacity="0.8" d="M744.836 505.026L737.498 500.227C736.987 499.843 736.987 499.267 737.669 498.691L744.836 494.084C745.518 493.7 746.542 493.509 747.054 493.892L754.392 498.691C754.904 499.075 754.904 499.651 754.221 500.227L747.054 504.834C746.372 505.41 745.348 505.41 744.836 505.026Z" fill="#24126A"/>
<path id="Vector_114" opacity="0.8" d="M755.927 512.32L748.59 507.521C748.078 507.137 748.078 506.561 748.761 505.985L755.927 501.379C756.61 500.995 757.634 500.803 758.146 501.187L765.483 505.985C765.995 506.369 765.995 506.945 765.312 507.521L758.146 512.128C757.634 512.704 756.61 512.704 755.927 512.32Z" fill="#24126A"/>
<path id="Vector_115" opacity="0.8" d="M775.892 525.373L760.023 515.007C759.511 514.623 759.511 514.047 760.193 513.472L767.36 508.865C768.043 508.481 769.067 508.289 769.578 508.673L785.448 519.038C785.96 519.422 785.96 519.998 785.277 520.574L778.11 525.181C777.428 525.565 776.404 525.757 775.892 525.373Z" fill="#FF2C9C"/>
<path id="Vector_116" opacity="0.8" d="M797.734 511.168L784.424 502.53C783.912 502.146 783.912 501.571 784.594 500.995L791.761 496.388C792.444 496.004 793.468 495.812 793.98 496.196L807.289 504.834C807.801 505.218 807.801 505.793 807.119 506.369L799.952 510.976C799.269 511.552 798.245 511.552 797.734 511.168Z" fill="#24126A"/>
<path id="Vector_117" opacity="0.8" d="M685.966 452.815L678.628 448.016C678.116 447.632 678.116 447.056 678.799 446.48L685.966 441.873C686.648 441.49 687.672 441.298 688.184 441.681L695.521 446.48C696.033 446.864 696.033 447.44 695.351 448.016L688.184 452.623C687.501 453.007 686.478 453.199 685.966 452.815Z" fill="#24126A"/>
<path id="Vector_118" opacity="0.8" d="M674.533 445.329L667.195 440.53C666.684 440.146 666.684 439.57 667.366 438.994L674.533 434.387C675.215 434.003 676.239 433.811 676.751 434.195L684.089 438.994C684.601 439.378 684.601 439.954 683.918 440.53L676.751 445.137C676.069 445.521 675.045 445.712 674.533 445.329Z" fill="#24126A"/>
<path id="Vector_119" opacity="0.8" d="M662.929 437.842L655.592 433.044C655.08 432.66 655.08 432.084 655.763 431.508L662.929 426.901C663.612 426.517 664.636 426.325 665.148 426.709L672.485 431.508C672.997 431.892 672.997 432.468 672.315 433.044L665.148 437.651C664.636 438.226 663.612 438.226 662.929 437.842Z" fill="#24126A"/>
<path id="Vector_120" opacity="0.8" d="M651.497 430.356L644.159 425.558C643.647 425.174 643.647 424.598 644.33 424.022L651.497 419.415C652.179 419.031 653.203 418.839 653.715 419.223L661.052 424.022C661.564 424.406 661.564 424.982 660.882 425.558L653.715 430.164C653.032 430.74 652.179 430.74 651.497 430.356Z" fill="#24126A"/>
<path id="Vector_121" opacity="0.8" d="M697.228 460.109L689.89 455.31C689.378 454.926 689.378 454.35 690.061 453.775L697.228 449.168C697.91 448.784 698.934 448.592 699.446 448.976L706.784 453.775C707.295 454.158 707.295 454.734 706.613 455.31L699.446 459.917C698.764 460.301 697.74 460.301 697.228 460.109Z" fill="#24126A"/>
<path id="Vector_122" opacity="0.8" d="M708.319 467.211L700.982 462.412C700.47 462.028 700.47 461.453 701.152 460.877L708.319 456.27C709.002 455.886 710.026 455.694 710.538 456.078L717.875 460.877C718.387 461.261 718.387 461.837 717.704 462.412L710.538 467.019C710.026 467.595 709.002 467.595 708.319 467.211Z" fill="#24126A"/>
<path id="Vector_123" opacity="0.8" d="M719.581 474.505L712.244 469.707C711.732 469.323 711.732 468.747 712.415 468.171L719.581 463.564C720.264 463.18 721.288 462.988 721.8 463.372L729.137 468.171C729.649 468.555 729.649 469.131 728.967 469.707L721.8 474.313C721.117 474.889 720.093 474.889 719.581 474.505Z" fill="#24126A"/>
<path id="Vector_124" opacity="0.8" d="M730.844 481.8L723.506 477.001C722.994 476.617 722.994 476.041 723.677 475.465L730.844 470.858C731.526 470.474 732.55 470.282 733.062 470.666L740.399 475.465C740.911 475.849 740.911 476.425 740.229 477.001L733.062 481.608C732.379 482.183 731.355 482.183 730.844 481.8Z" fill="#24126A"/>
<path id="Vector_125" opacity="0.8" d="M741.935 489.094L734.598 484.295C734.086 483.911 734.086 483.335 734.768 482.759L741.935 478.152C742.618 477.769 743.641 477.577 744.153 477.96L751.491 482.759C752.003 483.143 752.003 483.719 751.32 484.295L744.153 488.902C743.641 489.478 742.618 489.478 741.935 489.094Z" fill="#24126A"/>
<path id="Vector_126" opacity="0.8" d="M753.197 496.388L745.86 491.589C745.348 491.205 745.348 490.629 746.03 490.053L753.197 485.447C753.88 485.063 754.904 484.871 755.416 485.255L762.753 490.053C763.265 490.437 763.265 491.013 762.582 491.589L755.416 496.196C754.733 496.772 753.709 496.772 753.197 496.388Z" fill="#24126A"/>
<path id="Vector_127" opacity="0.8" d="M764.459 503.682L757.122 498.883C756.61 498.499 756.61 497.924 757.292 497.348L764.459 492.741C765.142 492.357 766.166 492.165 766.678 492.549L774.015 497.348C774.527 497.732 774.527 498.307 773.844 498.883L766.678 503.49C765.995 504.066 764.971 504.066 764.459 503.682Z" fill="#24126A"/>
<path id="Vector_128" opacity="0.8" d="M775.551 510.976L768.213 506.177C767.701 505.794 767.701 505.218 768.384 504.642L775.551 500.035C776.233 499.651 777.257 499.459 777.769 499.843L785.106 504.642C785.618 505.026 785.618 505.602 784.936 506.177L777.769 510.784C777.257 511.36 776.233 511.36 775.551 510.976Z" fill="#24126A"/>
<path id="Vector_129" opacity="0.8" d="M786.813 518.27L779.475 513.472C778.963 513.088 778.963 512.512 779.646 511.936L786.813 507.329C787.495 506.945 788.519 506.753 789.031 507.137L796.369 511.936C796.881 512.32 796.88 512.896 796.198 513.472L789.031 518.078C788.349 518.654 787.325 518.654 786.813 518.27Z" fill="#24126A"/>
<path id="Vector_130" opacity="0.8" d="M679.993 434.771L672.656 429.972C672.144 429.588 672.144 429.013 672.826 428.437L679.993 423.83C680.676 423.446 681.7 423.254 682.212 423.638L689.549 428.437C690.061 428.821 690.061 429.397 689.378 429.972L682.212 434.579C681.7 435.155 680.676 435.155 679.993 434.771Z" fill="#24126A"/>
<path id="Vector_131" opacity="0.8" d="M668.902 427.477L661.564 422.678C661.052 422.294 661.052 421.719 661.735 421.143L668.902 416.536C669.584 416.152 670.608 415.96 671.12 416.344L678.458 421.143C678.969 421.527 678.969 422.102 678.287 422.678L671.12 427.285C670.438 427.861 669.414 427.861 668.902 427.477Z" fill="#24126A"/>
<path id="Vector_132" opacity="0.8" d="M657.81 420.183L650.473 415.384C649.961 415 649.961 414.424 650.644 413.848L657.81 409.242C658.493 408.858 659.517 408.666 660.029 409.05L667.366 413.848C667.878 414.232 667.878 414.808 667.195 415.384L660.029 419.991C659.346 420.567 658.322 420.567 657.81 420.183Z" fill="#24126A"/>
<path id="Vector_133" opacity="0.8" d="M646.548 413.081L639.211 408.282C638.699 407.898 638.699 407.322 639.381 406.746L646.548 402.139C647.231 401.755 648.255 401.564 648.767 401.947L656.104 406.746C656.616 407.13 656.616 407.706 655.933 408.282L648.767 412.889C648.255 413.273 647.231 413.465 646.548 413.081Z" fill="#24126A"/>
<path id="Vector_134" opacity="0.8" d="M658.152 405.595L650.814 400.796C650.302 400.412 650.302 399.836 650.985 399.26L653.374 397.725C654.056 397.341 655.08 397.149 655.592 397.533L662.929 402.331C663.441 402.715 663.441 403.291 662.759 403.867L660.37 405.403C659.687 405.978 658.664 405.978 658.152 405.595Z" fill="#24126A"/>
<path id="Vector_135" opacity="0.8" d="M672.656 415L665.318 410.201C664.807 409.817 664.807 409.242 665.489 408.666L667.878 407.13C668.561 406.746 669.584 406.554 670.096 406.938L677.434 411.737C677.946 412.121 677.946 412.697 677.263 413.273L674.874 414.808C674.192 415.384 673.168 415.384 672.656 415Z" fill="#24126A"/>
<path id="Vector_136" opacity="0.8" d="M683.747 422.294L676.41 417.496C675.898 417.112 675.898 416.536 676.581 415.96L678.97 414.424C679.652 414.04 680.676 413.848 681.188 414.232L688.525 419.031C689.037 419.415 689.037 419.991 688.355 420.567L685.966 422.102C685.283 422.486 684.259 422.678 683.747 422.294Z" fill="#24126A"/>
<path id="Vector_137" opacity="0.8" d="M694.839 429.397L687.501 424.598C686.99 424.214 686.99 423.638 687.672 423.062L690.061 421.527C690.744 421.143 691.767 420.951 692.279 421.335L699.617 426.133C700.129 426.517 700.129 427.093 699.446 427.669L697.057 429.205C696.375 429.78 695.351 429.78 694.839 429.397Z" fill="#24126A"/>
<path id="Vector_138" opacity="0.8" d="M705.93 436.691L698.593 431.892C698.081 431.508 698.081 430.932 698.764 430.356L701.152 428.821C701.835 428.437 702.859 428.245 703.371 428.629L710.708 433.428C711.22 433.811 711.22 434.387 710.538 434.963L708.149 436.499C707.466 437.075 706.442 437.075 705.93 436.691Z" fill="#24126A"/>
<path id="Vector_139" opacity="0.8" d="M767.872 477.001L760.535 472.202C760.023 471.818 760.023 471.242 760.705 470.666L763.094 469.131C763.777 468.747 764.801 468.555 765.312 468.939L772.65 473.738C773.162 474.121 773.162 474.697 772.479 475.273L770.09 476.809C769.578 477.193 768.555 477.385 767.872 477.001Z" fill="#24126A"/>
<path id="Vector_140" opacity="0.8" d="M778.964 484.103L771.626 479.304C771.114 478.92 771.114 478.344 771.797 477.769L774.186 476.233C774.868 475.849 775.892 475.657 776.404 476.041L783.741 480.84C784.253 481.224 784.253 481.8 783.571 482.375L781.182 483.911C780.67 484.487 779.646 484.487 778.964 484.103Z" fill="#24126A"/>
<path id="Vector_141" opacity="0.8" d="M790.055 491.397L782.718 486.598C782.206 486.214 782.206 485.639 782.888 485.063L785.277 483.527C785.96 483.143 786.984 482.951 787.495 483.335L794.833 488.134C795.345 488.518 795.345 489.094 794.662 489.67L792.273 491.205C791.761 491.589 790.738 491.781 790.055 491.397Z" fill="#24126A"/>
<path id="Vector_142" opacity="0.8" d="M801.317 498.499L793.98 493.701C793.468 493.317 793.468 492.741 794.15 492.165L796.539 490.629C797.222 490.245 798.246 490.053 798.758 490.437L806.095 495.236C806.607 495.62 806.607 496.196 805.924 496.772L803.536 498.307C802.853 498.883 801.829 498.883 801.317 498.499Z" fill="#24126A"/>
<path id="Vector_143" opacity="0.8" d="M691.255 442.065L683.918 437.267C683.406 436.883 683.406 436.307 684.089 435.731L691.255 431.124C691.938 430.74 692.962 430.548 693.474 430.932L700.811 435.731C701.323 436.115 701.323 436.691 700.641 437.267L693.474 441.873C692.791 442.257 691.938 442.449 691.255 442.065Z" fill="#24126A"/>
<path id="Vector_144" opacity="0.8" d="M702.518 449.36L695.18 444.561C694.668 444.177 694.668 443.601 695.351 443.025L702.518 438.418C703.2 438.034 704.224 437.842 704.736 438.226L712.073 443.025C712.585 443.409 712.585 443.985 711.903 444.561L704.736 449.168C704.053 449.552 703.03 449.744 702.518 449.36Z" fill="#24126A"/>
<path id="Vector_145" opacity="0.8" d="M713.609 456.654L706.272 451.855C705.76 451.471 705.76 450.895 706.442 450.319L713.609 445.712C714.292 445.329 715.315 445.137 715.827 445.521L723.165 450.319C723.677 450.703 723.677 451.279 722.994 451.855L715.827 456.462C715.315 456.846 714.292 457.038 713.609 456.654Z" fill="#24126A"/>
<path id="Vector_146" opacity="0.8" d="M724.871 463.756L717.534 458.957C717.022 458.573 717.022 457.997 717.704 457.422L724.871 452.815C725.554 452.431 726.578 452.239 727.089 452.623L734.427 457.422C734.939 457.805 734.939 458.381 734.256 458.957L727.089 463.564C726.407 464.14 725.383 464.14 724.871 463.756Z" fill="#24126A"/>
<path id="Vector_147" opacity="0.8" d="M736.133 471.05L728.796 466.251C728.284 465.867 728.284 465.292 728.966 464.716L736.133 460.109C736.816 459.725 737.84 459.533 738.352 459.917L745.689 464.716C746.201 465.1 746.201 465.675 745.518 466.251L738.352 470.858C737.669 471.434 736.645 471.434 736.133 471.05Z" fill="#24126A"/>
<path id="Vector_148" opacity="0.8" d="M747.225 478.344L739.887 473.546C739.376 473.162 739.376 472.586 740.058 472.01L747.225 467.403C747.907 467.019 748.931 466.827 749.443 467.211L756.781 472.01C757.293 472.394 757.292 472.97 756.61 473.546L749.443 478.152C748.931 478.728 747.907 478.728 747.225 478.344Z" fill="#24126A"/>
<path id="Vector_149" opacity="0.8" d="M758.487 485.639L751.149 480.84C750.637 480.456 750.637 479.88 751.32 479.304L758.487 474.697C759.169 474.313 760.193 474.121 760.705 474.505L768.043 479.304C768.554 479.688 768.554 480.264 767.872 480.84L760.705 485.447C760.023 486.022 758.999 486.022 758.487 485.639Z" fill="#24126A"/>
<path id="Vector_150" opacity="0.8" d="M769.749 492.933L762.412 488.134C761.9 487.75 761.9 487.174 762.582 486.598L769.749 481.991C770.432 481.608 771.455 481.416 771.967 481.8L779.305 486.598C779.817 486.982 779.817 487.558 779.134 488.134L771.967 492.741C771.285 493.317 770.261 493.317 769.749 492.933Z" fill="#24126A"/>
<path id="Vector_151" opacity="0.8" d="M780.84 500.227L773.503 495.428C772.991 495.044 772.991 494.468 773.674 493.892L780.84 489.286C781.523 488.902 782.547 488.71 783.059 489.094L790.396 493.892C790.908 494.276 790.908 494.852 790.226 495.428L783.059 500.035C782.547 500.611 781.523 500.611 780.84 500.227Z" fill="#24126A"/>
<path id="Vector_152" opacity="0.8" d="M627.266 442.833L605.936 429.013C605.424 428.629 605.424 428.053 606.107 427.477L613.274 422.87C613.956 422.486 614.98 422.294 615.492 422.678L636.822 436.499C637.334 436.883 637.334 437.459 636.651 438.034L629.484 442.641C628.802 443.217 627.778 443.217 627.266 442.833Z" fill="#24126A"/>
<path id="Vector_153" opacity="0.8" d="M764.801 532.283L743.471 518.462C742.959 518.078 742.959 517.503 743.641 516.927L750.808 512.32C751.491 511.936 752.515 511.744 753.026 512.128L774.356 525.948C774.868 526.332 774.868 526.908 774.186 527.484L767.019 532.091C766.507 532.667 765.483 532.667 764.801 532.283Z" fill="#24126A"/>
<path id="Vector_154" opacity="0.8" d="M720.093 519.23L712.756 514.431C712.244 514.047 712.244 513.472 712.927 512.896L721.458 507.329C722.141 506.945 723.165 506.753 723.677 507.137L731.014 511.936C731.526 512.32 731.526 512.896 730.844 513.472L722.312 519.038C721.629 519.614 720.605 519.614 720.093 519.23Z" fill="#24126A"/>
<path id="Vector_155" opacity="0.8" d="M638.699 466.443L627.096 458.957C626.584 458.573 626.584 457.997 627.266 457.422L635.798 451.855C636.481 451.471 637.504 451.279 638.016 451.663L649.62 459.149C650.132 459.533 650.132 460.109 649.449 460.685L640.917 466.251C640.235 466.827 639.211 466.827 638.699 466.443Z" fill="#24126A"/>
<path id="Vector_156" opacity="0.8" d="M709.343 512.32L697.74 504.834C697.228 504.45 697.228 503.874 697.91 503.298L706.442 497.731C707.125 497.348 708.149 497.156 708.661 497.54L720.264 505.026C720.776 505.41 720.776 505.985 720.093 506.561L711.561 512.128C710.879 512.704 709.855 512.704 709.343 512.32Z" fill="#24126A"/>
<path id="Vector_157" opacity="0.8" d="M654.909 477.001L643.306 469.515C642.794 469.131 642.794 468.555 643.477 467.979L652.009 462.412C652.691 462.028 653.715 461.836 654.227 462.22L665.83 469.706C666.342 470.09 666.342 470.666 665.66 471.242L657.128 476.809C656.445 477.193 655.421 477.385 654.909 477.001Z" fill="#24126A"/>
<path id="Vector_158" opacity="0.8" d="M654.398 462.22L704.907 495.044C705.589 495.428 705.589 496.196 704.907 496.58L696.204 502.338C695.521 502.722 694.498 502.722 693.986 502.338L643.306 469.515L654.398 462.22Z" fill="#24126A"/>
<path id="Vector_159" opacity="0.8" d="M751.32 532.475L759.34 537.657C759.852 538.041 759.681 538.425 759.17 538.809L755.586 541.113C755.074 541.497 754.221 541.497 753.709 541.113L745.689 535.93C745.177 535.546 745.348 535.162 745.86 534.778L749.443 532.475C750.126 532.283 750.979 532.091 751.32 532.475Z" fill="#24126A"/>
<path id="Vector_160" opacity="0.8" d="M740.058 525.181L748.078 530.363C748.59 530.747 748.419 531.131 747.907 531.515L744.324 533.819C743.812 534.202 742.959 534.202 742.447 533.819L734.427 528.636C733.915 528.252 734.086 527.868 734.598 527.484L738.181 525.181C738.693 524.797 739.546 524.797 740.058 525.181Z" fill="#24126A"/>
<path id="Vector_161" opacity="0.8" d="M728.796 517.886L736.816 523.069C737.328 523.453 737.157 523.837 736.645 524.221L733.062 526.524C732.55 526.908 731.697 526.908 731.185 526.524L723.165 521.342C722.653 520.958 722.824 520.574 723.335 520.19L726.919 517.886C727.601 517.695 728.455 517.503 728.796 517.886Z" fill="#24126A"/>
<path id="Vector_162" opacity="0.8" d="M746.201 521.15L754.221 526.332C754.733 526.716 754.562 527.1 754.05 527.484L750.467 529.788C749.955 530.171 749.102 530.171 748.59 529.788L740.57 524.605C740.058 524.221 740.229 523.837 740.741 523.453L744.324 521.15C745.007 520.766 745.86 520.766 746.201 521.15Z" fill="#24126A"/>
</g>
</g>
<g id="Group_17">
<path id="Vector_163" d="M860.529 324.975C860.017 324.975 859.334 324.783 858.822 324.399C857.116 323.247 856.092 320.752 856.433 318.832C856.604 317.872 857.116 317.105 857.798 316.721C858.652 316.337 859.505 316.529 860.529 317.105C862.235 318.256 863.259 320.752 862.918 322.671C862.747 323.631 862.235 324.399 861.552 324.783C861.211 324.975 860.87 324.975 860.529 324.975ZM858.993 317.489C858.822 317.489 858.481 317.489 858.31 317.681C857.798 317.872 857.457 318.448 857.286 319.024C856.945 320.752 857.798 322.671 859.334 323.631C860.017 324.015 860.699 324.207 861.382 323.823C861.894 323.631 862.235 323.055 862.406 322.479C862.747 320.752 861.894 318.832 860.358 317.872C859.846 317.681 859.334 317.489 858.993 317.489Z" fill="#42E8E0"/>
<path id="Vector_164" d="M869.743 330.925C869.231 330.925 868.549 330.733 868.037 330.349C866.33 329.198 865.307 326.702 865.648 324.783C865.818 323.823 866.33 323.055 867.013 322.671C867.866 322.287 868.719 322.479 869.743 323.055C871.45 324.207 872.473 326.702 872.132 328.622C871.961 329.582 871.449 330.349 870.767 330.733C870.426 330.925 870.084 330.925 869.743 330.925ZM868.207 323.439C868.037 323.439 867.695 323.439 867.525 323.631C867.013 323.823 866.672 324.399 866.501 324.975C866.16 326.702 867.013 328.622 868.549 329.582C869.231 329.965 869.914 330.157 870.596 329.774C871.108 329.582 871.449 329.006 871.62 328.43C871.961 326.702 871.108 324.783 869.572 323.823C869.061 323.631 868.549 323.439 868.207 323.439Z" fill="#42E8E0"/>
<path id="Vector_165" d="M881.176 334.572C880.835 336.3 879.299 337.068 877.592 335.916C875.886 334.764 875.033 332.653 875.374 330.733C875.715 329.006 877.251 328.238 878.958 329.39C880.493 330.541 881.517 332.845 881.176 334.572Z" fill="#FF2C9C"/>
</g>
<path id="Vector_166" d="M703.883 219.977L698.934 216.714L699.446 214.218L704.395 217.482L703.883 219.977Z" fill="#42E8E0"/>
<path id="Vector_167" d="M711.049 224.584L706.272 221.513L706.613 218.825L711.561 222.088L711.049 224.584Z" fill="#42E8E0"/>
<path id="Vector_168" d="M696.887 215.37L685.966 208.268L686.307 205.772L697.228 212.875L696.887 215.37Z" fill="#42E8E0"/>
</g>
<g id="Group_18">
<g id="Group_19">
<path id="Vector_169" d="M698.252 263.934L689.89 258.559L690.232 256.256L698.593 261.631L698.252 263.934Z" fill="#FF2C9C"/>
<path id="Vector_170" d="M705.248 268.349L701.152 265.854L701.494 263.55L705.589 266.237L705.248 268.349Z" fill="#FF2C9C"/>
<path id="Vector_171" d="M699.958 270.46L696.375 268.157L696.716 266.045L700.129 268.349L699.958 270.46Z" fill="#FF2C9C"/>
<path id="Vector_172" d="M705.76 274.299L701.664 271.612L702.006 269.501L706.101 272.188L705.76 274.299Z" fill="#FF2C9C"/>
<path id="Vector_173" d="M711.903 283.705L695.692 273.148L695.863 271.036L712.244 281.594L711.903 283.705Z" fill="#FF2C9C"/>
<path id="Vector_174" d="M697.74 325.934L681.529 315.377L681.87 313.266L698.081 323.823L697.74 325.934Z" fill="#FF2C9C"/>
<path id="Vector_175" d="M704.053 330.157L699.958 327.47L700.129 325.167L704.395 327.854L704.053 330.157Z" fill="#FF2C9C"/>
<path id="Vector_176" d="M698.422 280.634L694.839 278.33L695.18 276.219L698.764 278.33L698.422 280.634Z" fill="#FF2C9C"/>
<path id="Vector_177" d="M704.224 284.473L700.129 281.786L700.47 279.482L704.565 282.169L704.224 284.473Z" fill="#FF2C9C"/>
<path id="Vector_178" d="M703.029 289.08L694.156 283.321L694.498 281.21L703.371 286.968L703.029 289.08Z" fill="#FF2C9C"/>
<path id="Vector_179" d="M709.002 292.919L704.907 290.231L705.248 288.12L709.343 290.807L709.002 292.919Z" fill="#FF2C9C"/>
<path id="Vector_180" d="M714.974 296.95L710.879 294.262L711.22 292.151L715.316 294.838L714.974 296.95Z" fill="#FF2C9C"/>
<path id="Vector_181" d="M724.701 303.284L716.851 298.102L717.192 295.99L725.042 300.981L724.701 303.284Z" fill="#FF2C9C"/>
<path id="Vector_182" d="M718.558 310.194L714.462 307.507L714.804 305.396L718.899 308.083L718.558 310.194Z" fill="#FF2C9C"/>
<path id="Vector_183" d="M728.284 316.529L720.435 311.538L720.776 309.235L728.625 314.417L728.284 316.529Z" fill="#FF2C9C"/>
<path id="Vector_184" d="M696.716 296.182L692.621 293.495L692.962 291.191L697.057 293.879L696.716 296.182Z" fill="#FF2C9C"/>
<path id="Vector_185" d="M702.688 300.021L698.593 297.334L698.934 295.222L703.029 297.91L702.688 300.021Z" fill="#FF2C9C"/>
<path id="Vector_186" d="M712.415 306.355L704.565 301.173L704.907 299.061L712.756 304.244L712.415 306.355Z" fill="#FF2C9C"/>
<path id="Vector_187" d="M725.212 309.043L720.947 306.355L721.288 304.244L725.554 306.931L725.212 309.043Z" fill="#FF2C9C"/>
<path id="Vector_188" d="M731.185 312.882L727.09 310.194L727.431 308.083L731.526 310.77L731.185 312.882Z" fill="#FF2C9C"/>
<path id="Vector_189" d="M740.911 319.216L733.062 314.225L733.403 311.922L741.252 317.105L740.911 319.216Z" fill="#FF2C9C"/>
<path id="Vector_190" d="M710.538 334.188L706.442 331.501L706.613 329.39L710.879 332.077L710.538 334.188Z" fill="#FF2C9C"/>
<path id="Vector_191" d="M720.264 340.523L712.415 335.532L712.756 333.421L720.435 338.411L720.264 340.523Z" fill="#FF2C9C"/>
<path id="Vector_192" d="M695.18 306.163L691.085 303.476L691.426 301.365L695.521 304.052L695.18 306.163Z" fill="#FF2C9C"/>
<path id="Vector_193" d="M704.906 312.498L697.057 307.315L697.398 305.204L705.248 310.386L704.906 312.498Z" fill="#FF2C9C"/>
<path id="Vector_194" d="M714.974 342.634L710.879 339.947L711.22 337.836L715.316 340.523L714.974 342.634Z" fill="#FF2C9C"/>
<path id="Vector_195" d="M724.701 348.969L716.851 343.978L717.192 341.867L725.042 346.857L724.701 348.969Z" fill="#FF2C9C"/>
<path id="Vector_196" d="M724.189 291.767L720.093 289.08L720.435 286.968L724.53 289.656L724.189 291.767Z" fill="#FF2C9C"/>
<path id="Vector_197" d="M718.046 287.736L713.78 285.049L714.121 282.937L718.216 285.625L718.046 287.736Z" fill="#FF2C9C"/>
<path id="Vector_198" d="M733.915 298.101L726.066 293.111L726.407 290.807L734.256 295.99L733.915 298.101Z" fill="#FF2C9C"/>
<path id="Vector_199" d="M697.057 290.807L693.303 288.312L693.644 286.2L697.398 288.696L697.057 290.807Z" fill="#FF2C9C"/>
<path id="Vector_200" d="M708.149 297.91L699.105 292.151L699.446 289.848L708.49 295.798L708.149 297.91Z" fill="#FF2C9C"/>
<path id="Vector_201" d="M719.24 305.204L710.196 299.253L710.538 297.142L719.581 303.092L719.24 305.204Z" fill="#FF2C9C"/>
<path id="Vector_202" d="M739.717 301.941L735.963 299.445L736.304 297.334L740.058 299.637L739.717 301.941Z" fill="#FF2C9C"/>
<path id="Vector_203" d="M750.808 309.043L741.594 303.092L741.935 300.981L750.979 306.931L750.808 309.043Z" fill="#FF2C9C"/>
<path id="Vector_204" d="M761.729 316.145L752.685 310.386L753.027 308.275L762.07 314.034L761.729 316.145Z" fill="#FF2C9C"/>
<path id="Vector_205" d="M700.982 304.436L691.938 298.485L692.279 296.374L701.323 302.324L700.982 304.436Z" fill="#FF2C9C"/>
<path id="Vector_206" d="M705.76 307.507L703.029 305.78L703.371 303.476L706.101 305.396L705.76 307.507Z" fill="#FF2C9C"/>
<path id="Vector_207" d="M710.538 310.578L707.807 308.851L708.149 306.739L710.879 308.467L710.538 310.578Z" fill="#FF2C9C"/>
<path id="Vector_208" d="M719.411 316.337L712.585 311.922L712.927 309.811L719.752 314.225L719.411 316.337Z" fill="#FF2C9C"/>
<path id="Vector_209" d="M729.308 306.163L726.578 304.436L726.919 302.324L729.649 304.052L729.308 306.163Z" fill="#FF2C9C"/>
<path id="Vector_210" d="M738.181 311.922L731.355 307.507L731.697 305.396L738.522 309.81L738.181 311.922Z" fill="#FF2C9C"/>
<path id="Vector_211" d="M740.058 313.266L733.232 308.659L733.574 306.547L740.399 310.962L740.058 313.266Z" fill="#FF2C9C"/>
<path id="Vector_212" d="M703.541 340.907L694.668 334.956L695.009 332.845L703.883 338.603L703.541 340.907Z" fill="#FF2C9C"/>
<path id="Vector_213" d="M709.514 344.746L705.418 342.058L705.76 339.947L709.855 342.634L709.514 344.746Z" fill="#FF2C9C"/>
<path id="Vector_214" d="M715.657 348.585L711.391 345.897L711.732 343.786L715.998 346.473L715.657 348.585Z" fill="#FF2C9C"/>
<path id="Vector_215" d="M725.212 354.919L717.534 349.929L717.704 347.625L725.554 352.808L725.212 354.919Z" fill="#FF2C9C"/>
<path id="Vector_216" d="M731.526 358.95L727.431 356.263L727.601 354.151L731.867 356.839L731.526 358.95Z" fill="#FF2C9C"/>
<path id="Vector_217" d="M741.252 365.285L733.403 360.102L733.744 357.99L741.594 363.173L741.252 365.285Z" fill="#FF2C9C"/>
<path id="Vector_218" d="M711.391 357.031L707.295 354.343L707.637 352.232L711.732 354.919L711.391 357.031Z" fill="#FF2C9C"/>
<path id="Vector_219" d="M721.117 363.365L713.268 358.182L713.609 356.071L721.458 361.062L721.117 363.365Z" fill="#FF2C9C"/>
<path id="Vector_220" d="M689.89 343.018L685.624 340.331L685.966 338.219L690.232 340.907L689.89 343.018Z" fill="#FF2C9C"/>
<path id="Vector_221" d="M695.863 346.857L691.767 344.17L692.109 342.058L696.204 344.746L695.863 346.857Z" fill="#FF2C9C"/>
<path id="Vector_222" d="M705.589 353.192L697.74 348.009L698.081 345.897L705.93 351.08L705.589 353.192Z" fill="#FF2C9C"/>
<path id="Vector_223" d="M697.569 342.442L693.986 340.139L694.156 338.027L697.91 340.331L697.569 342.442Z" fill="#FF2C9C"/>
<path id="Vector_224" d="M708.661 349.737L699.617 343.786L699.958 341.675L709.002 347.625L708.661 349.737Z" fill="#FF2C9C"/>
<path id="Vector_225" d="M719.752 356.839L710.708 351.08L711.05 348.777L720.093 354.727L719.752 356.839Z" fill="#FF2C9C"/>
<path id="Vector_226" d="M686.819 346.473L677.775 340.715L678.116 338.411L687.16 344.362L686.819 346.473Z" fill="#FF2C9C"/>
<path id="Vector_227" d="M691.597 349.545L688.867 347.817L689.037 345.706L691.938 347.433L691.597 349.545Z" fill="#FF2C9C"/>
<path id="Vector_228" d="M696.375 352.808L693.644 350.888L693.815 348.777L696.716 350.504L696.375 352.808Z" fill="#FF2C9C"/>
<path id="Vector_229" d="M705.248 358.566L698.422 353.959L698.764 351.848L705.589 356.263L705.248 358.566Z" fill="#FF2C9C"/>
<path id="Vector_230" d="M707.125 359.718L700.299 355.303L700.47 353.192L707.466 357.607L707.125 359.718Z" fill="#FF2C9C"/>
<path id="Vector_231" d="M690.914 327.086L688.013 325.167L688.355 323.055L691.255 324.975L690.914 327.086Z" fill="#FF2C9C"/>
<path id="Vector_232" d="M699.787 332.845L692.962 328.43L693.133 326.126L700.129 330.733L699.787 332.845Z" fill="#FF2C9C"/>
<path id="Vector_233" d="M708.831 338.603L702.006 334.188L702.176 332.077L709.172 336.492L708.831 338.603Z" fill="#FF2C9C"/>
<path id="Vector_234" d="M743.641 372.387L739.546 369.7L739.887 367.588L743.983 370.275L743.641 372.387Z" fill="#FF2C9C"/>
<path id="Vector_235" d="M753.368 378.721L745.518 373.539L745.86 371.427L753.709 376.61L753.368 378.721Z" fill="#FF2C9C"/>
<path id="Vector_236" d="M728.455 362.405L721.458 357.991L721.8 355.879L728.625 360.294L728.455 362.405Z" fill="#FF2C9C"/>
<path id="Vector_237" d="M737.498 368.356L730.502 363.941L730.844 361.83L737.669 366.244L737.498 368.356Z" fill="#FF2C9C"/>
<path id="Vector_238" d="M685.966 305.779L683.235 303.86L683.577 301.748L686.307 303.668L685.966 305.779Z" fill="#FF2C9C"/>
<path id="Vector_239" d="M694.839 311.538L688.013 307.123L688.355 304.82L695.18 309.427L694.839 311.538Z" fill="#FF2C9C"/>
<path id="Vector_240" d="M703.883 317.297L697.057 312.882L697.398 310.77L704.224 315.185L703.883 317.297Z" fill="#FF2C9C"/>
</g>
<path id="Vector_241" d="M840.564 395.805C839.881 395.805 839.369 395.613 838.687 395.229L783.229 359.334C781.011 357.799 779.475 354.151 779.987 351.08L783.571 327.278C783.741 325.743 784.595 324.399 785.618 323.823C786.642 323.247 787.666 323.439 788.86 324.207L844.318 360.102C846.536 361.638 848.072 365.285 847.56 368.356L843.977 392.158C843.806 393.694 842.953 395.037 841.929 395.613C841.588 395.613 841.076 395.805 840.564 395.805ZM786.983 324.207C786.642 324.207 786.301 324.207 785.96 324.399C785.106 324.783 784.595 325.934 784.424 327.086L780.841 350.888C780.499 353.576 781.694 357.031 783.741 358.182L839.199 394.077C840.052 394.653 840.905 394.653 841.758 394.269C842.612 393.885 843.123 392.734 843.294 391.582L846.877 367.78C847.219 365.093 846.024 361.638 843.977 360.486L788.519 324.591C788.007 324.399 787.495 324.207 786.983 324.207Z" fill="#42E8E0"/>
<path id="Vector_242" d="M834.592 436.499C833.909 436.499 833.397 436.307 832.715 435.923L777.257 400.028C775.039 398.492 773.503 394.845 774.015 391.774L777.599 367.972C777.769 366.436 778.622 365.093 779.646 364.517C780.67 363.941 781.694 364.133 782.888 364.901L838.346 400.796C840.564 402.331 842.1 405.979 841.588 409.05L838.004 432.852C837.834 434.387 836.981 435.731 835.957 436.307C835.445 436.499 834.933 436.499 834.592 436.499ZM833.056 435.155C833.909 435.731 834.762 435.731 835.616 435.347C836.469 434.963 836.981 433.812 837.151 432.66L840.735 408.858C841.076 406.17 839.881 402.715 837.834 401.564L782.376 365.669C781.523 365.093 780.67 365.093 779.817 365.477C778.964 365.861 778.452 367.012 778.281 368.164L774.698 391.966C774.356 394.653 775.551 398.109 777.599 399.26L833.056 435.155Z" fill="#42E8E0"/>
<path id="Vector_243" opacity="0.5" d="M788.349 356.647C789.372 357.223 790.226 357.031 790.567 356.071L797.051 336.3C797.734 333.997 800.805 336.108 801.488 339.371L805.412 359.334C805.754 360.87 806.607 362.213 807.631 362.981L808.655 363.557C809.508 364.133 810.361 363.941 810.702 363.173L812.067 360.102C812.921 358.182 815.651 359.91 816.333 362.981C816.675 364.325 817.528 365.669 818.552 366.244L819.405 366.82C820.429 367.396 821.282 367.204 821.623 366.244L822.818 362.022C823.5 359.718 826.572 361.638 827.254 364.901L831.179 383.328C831.52 384.864 832.373 386.207 833.397 386.783L788.349 356.647Z" fill="url(#paint8_linear)"/>
<path id="Vector_244" d="M826.23 427.285C825.207 426.517 824.183 424.982 823.841 423.446L819.917 405.019C819.575 403.099 818.04 401.564 817.016 401.564C816.675 401.564 816.333 401.756 816.163 402.331L814.968 406.554C814.798 407.13 814.456 407.514 813.944 407.706C813.432 407.898 812.75 407.898 812.067 407.322L811.214 406.746C810.19 405.978 809.167 404.635 808.825 403.099C808.313 401.18 806.948 399.836 806.095 399.644C805.754 399.644 805.412 399.836 805.242 400.22L803.877 403.291C803.706 403.867 803.365 404.059 802.853 404.251C802.341 404.443 801.829 404.251 801.147 403.867L800.123 403.291C798.928 402.523 798.075 400.988 797.734 399.452L793.809 379.489C793.468 377.57 791.932 376.034 791.079 375.842C790.738 375.842 790.396 376.034 790.226 376.418L783.741 396.189C783.571 396.765 783.23 397.149 782.718 397.341C782.206 397.533 781.523 397.533 781.011 396.957L781.352 396.189C781.864 396.381 782.206 396.573 782.547 396.381C782.718 396.381 782.888 395.997 783.059 395.805L789.543 376.034C789.884 375.266 790.396 374.69 791.079 374.882C792.444 374.882 794.15 376.802 794.662 379.105L798.587 399.068C798.928 400.412 799.611 401.756 800.635 402.331L801.658 402.907C802 403.099 802.512 403.291 802.682 403.099C802.853 403.099 803.024 402.907 803.194 402.523L804.559 399.452C804.901 398.684 805.412 398.3 806.095 398.492C807.46 398.684 808.996 400.412 809.508 402.523C809.849 403.867 810.532 405.019 811.555 405.595L812.409 406.17C812.921 406.362 813.262 406.554 813.603 406.362C813.774 406.17 813.944 405.978 814.115 405.787L815.309 401.564C815.48 400.796 816.163 400.22 816.845 400.22C818.21 400.22 819.917 401.947 820.429 404.443L824.353 422.87C824.695 424.214 825.548 425.558 826.401 426.133L826.23 427.285Z" fill="#FF2C9C"/>
</g>
<path id="Vector_245" d="M803.877 304.052C803.024 304.052 802.17 303.86 801.488 303.284L758.146 275.259C755.415 273.532 754.05 269.309 754.733 265.854C755.074 264.126 756.098 262.782 757.292 262.206C758.487 261.631 760.023 261.823 761.217 262.59L804.559 290.615C807.289 292.343 808.655 296.566 807.972 300.021C807.631 301.749 806.607 303.092 805.412 303.668C805.071 303.86 804.559 304.052 803.877 304.052ZM758.999 262.782C758.487 262.782 758.146 262.782 757.804 262.974C756.781 263.55 755.927 264.51 755.586 266.046C754.904 269.117 756.098 272.764 758.487 274.299L801.829 302.324C802.853 303.092 804.047 303.092 805.071 302.708C806.095 302.132 806.948 301.173 807.289 299.637C807.972 296.566 806.778 292.919 804.389 291.383L761.047 263.358C760.364 262.974 759.681 262.782 758.999 262.782Z" fill="#42E8E0"/>
</g>
</g>
</g>
<defs>
<radialGradient id="paint0_radial" cx="0" cy="0" r="1" gradientUnits="userSpaceOnUse" gradientTransform="translate(616.573 413.336) rotate(180) scale(542.427 610.179)">
<stop stop-color="#5761D7"/>
<stop offset="0.0311047" stop-color="#525BCE"/>
<stop offset="0.1763" stop-color="#3E41A6"/>
<stop offset="0.3263" stop-color="#2D2B85"/>
<stop offset="0.4803" stop-color="#201A6C"/>
<stop offset="0.6397" stop-color="#160E5A"/>
<stop offset="0.8079" stop-color="#11074F"/>
<stop offset="1" stop-color="#0F054C"/>
</radialGradient>
<radialGradient id="paint1_radial" cx="0" cy="0" r="1" gradientUnits="userSpaceOnUse" gradientTransform="translate(1046.01 179.655) rotate(180) scale(749.685 843.326)">
<stop stop-color="#FF2C9C"/>
<stop offset="0.0300632" stop-color="#F62F9F"/>
<stop offset="0.2023" stop-color="#C63EB0"/>
<stop offset="0.3737" stop-color="#9E4BBE"/>
<stop offset="0.5413" stop-color="#7F54C9"/>
<stop offset="0.7039" stop-color="#695BD1"/>
<stop offset="0.8594" stop-color="#5C60D5"/>
<stop offset="1" stop-color="#5761D7"/>
</radialGradient>
<linearGradient id="paint2_linear" x1="906.112" y1="336.28" x2="639.362" y2="336.28" gradientUnits="userSpaceOnUse">
<stop stop-color="#C0BFF6"/>
<stop offset="0.2938" stop-color="#C5C4F7"/>
<stop offset="0.6399" stop-color="#D3D2F9"/>
<stop offset="1" stop-color="#E9E9FD"/>
</linearGradient>
<linearGradient id="paint3_linear" x1="906.11" y1="413.234" x2="860.306" y2="413.234" gradientUnits="userSpaceOnUse">
<stop stop-color="#5761D7"/>
<stop offset="0.1779" stop-color="#5C66D9"/>
<stop offset="0.3876" stop-color="#6A73DF"/>
<stop offset="0.6134" stop-color="#8289E8"/>
<stop offset="0.849" stop-color="#A3A7F5"/>
<stop offset="1" stop-color="#BCBEFF"/>
</linearGradient>
<linearGradient id="paint4_linear" x1="870.373" y1="497.196" x2="493.636" y2="497.196" gradientUnits="userSpaceOnUse">
<stop stop-color="#5761D7"/>
<stop offset="0.1779" stop-color="#5C66D9"/>
<stop offset="0.3876" stop-color="#6A73DF"/>
<stop offset="0.6134" stop-color="#8289E8"/>
<stop offset="0.849" stop-color="#A3A7F5"/>
<stop offset="1" stop-color="#BCBEFF"/>
</linearGradient>
<linearGradient id="paint5_linear" x1="1037.74" y1="485.608" x2="482.608" y2="485.608" gradientUnits="userSpaceOnUse">
<stop stop-color="#C0BFF6"/>
<stop offset="0.2938" stop-color="#C5C4F7"/>
<stop offset="0.6399" stop-color="#D3D2F9"/>
<stop offset="1" stop-color="#E9E9FD"/>
</linearGradient>
<linearGradient id="paint6_linear" x1="1015.24" y1="403.928" x2="638.503" y2="403.928" gradientUnits="userSpaceOnUse">
<stop stop-color="#5761D7"/>
<stop offset="0.1779" stop-color="#5C66D9"/>
<stop offset="0.3876" stop-color="#6A73DF"/>
<stop offset="0.6134" stop-color="#8289E8"/>
<stop offset="0.849" stop-color="#A3A7F5"/>
<stop offset="1" stop-color="#BCBEFF"/>
</linearGradient>
<linearGradient id="paint7_linear" x1="888.656" y1="392.34" x2="511.717" y2="392.34" gradientUnits="userSpaceOnUse">
<stop stop-color="#C0BFF6"/>
<stop offset="0.2938" stop-color="#C5C4F7"/>
<stop offset="0.6399" stop-color="#D3D2F9"/>
<stop offset="1" stop-color="#E9E9FD"/>
</linearGradient>
<linearGradient id="paint8_linear" x1="792.577" y1="349.669" x2="874.817" y2="380.947" gradientUnits="userSpaceOnUse">
<stop stop-color="#42E8E0"/>
<stop offset="0.1055" stop-color="#37B6BF"/>
<stop offset="0.2197" stop-color="#2C87A1"/>
<stop offset="0.338" stop-color="#235F87"/>
<stop offset="0.4587" stop-color="#FF2C9C"/>
<stop offset="0.5824" stop-color="#F62F9F"/>
<stop offset="0.7105" stop-color="#121355"/>
<stop offset="0.8458" stop-color="#10084E"/>
<stop offset="1" stop-color="#0F054C"/>
</linearGradient>
</defs>
</svg>
