<?xml version="1.0" encoding="utf-8"?>
<!-- Generator: Adobe Illustrator 22.1.0, SVG Export Plug-In . SVG Version: 6.00 Build 0)  -->
<svg version="1.1" id="Layer_1" xmlns="http://www.w3.org/2000/svg" xmlns:xlink="http://www.w3.org/1999/xlink" x="0px" y="0px"
	 viewBox="0 0 576 288" style="enable-background:new 0 0 576 288;" xml:space="preserve">
<style type="text/css">
	.st0{clip-path:url(#SVGID_2_);}
	.st1{fill:#BDBDBD;}
	.st2{clip-path:url(#SVGID_2_);fill:#24126A;}
	.st3{fill:#FF2C9C;}
	.st4{fill:#24126A;}
	.st5{fill:#42E8E0;}
</style>
<g>
	<g>
		<defs>
			<rect id="SVGID_1_" x="0" width="576" height="288"/>
		</defs>
		<use xlink:href="#SVGID_1_"  style="overflow:visible;fill:#FAFAFA;"/>
		<clipPath id="SVGID_2_">
			<use xlink:href="#SVGID_1_"  style="overflow:visible;"/>
		</clipPath>
		<g class="st0">
			<g>
				<g id="triangle36_1140_">
					<path class="st1" d="M33.2,242.6c-0.1,0-0.1,0-0.2-0.1l-88.1-73c-0.1-0.1-0.1-0.2-0.1-0.3c0-0.1,0.2-0.2,0.3-0.1L37.4,184
						c0.1,0,0.2,0.1,0.2,0.3l-4.2,58.1C33.4,242.5,33.4,242.6,33.2,242.6C33.2,242.6,33.2,242.6,33.2,242.6z M-54.1,169.8l87,72.1
						l4.1-57.4L-54.1,169.8z"/>
				</g>
				<g id="triangle36_1139_">
					<path class="st1" d="M768.8,410.8c-0.1,0-0.2-0.1-0.2-0.2l-46.5-175.6c0-0.1,0-0.3,0.2-0.3c0.1,0,0.3,0,0.3,0.1l77,168.9
						c0,0.1,0,0.1,0,0.2c0,0.1-0.1,0.1-0.2,0.1L768.8,410.8C768.8,410.8,768.8,410.8,768.8,410.8z M723.3,237.8L769,410.3l29.9-6.6
						L723.3,237.8z"/>
				</g>
				<g id="triangle36_1138_">
					<path class="st1" d="M768.8,410.8c-0.1,0-0.1,0-0.2-0.1L640.1,268.5c-0.1-0.1-0.1-0.1-0.1-0.2c0-0.1,0.1-0.1,0.2-0.2l82-33.3
						c0.1,0,0.1,0,0.2,0c0.1,0,0.1,0.1,0.1,0.2L769,410.5c0,0.1,0,0.2-0.1,0.3C768.9,410.8,768.8,410.8,768.8,410.8z M640.7,268.4
						l127.5,141.2l-46.1-174.3L640.7,268.4z"/>
				</g>
				<g id="triangle36_1137_">
					<path class="st1" d="M37.4,184.5C37.3,184.5,37.3,184.5,37.4,184.5L-55,169.7c-0.1,0-0.2-0.1-0.2-0.2c0-0.1,0-0.2,0.1-0.3
						L66.4,75.9c0.1-0.1,0.2-0.1,0.3,0c0.1,0.1,0.1,0.2,0.1,0.3L37.6,184.3C37.6,184.4,37.5,184.5,37.4,184.5z M-54.3,169.3
						L37.2,184L66.1,76.8L-54.3,169.3z"/>
				</g>
				<g id="triangle36_1136_">
					<path class="st1" d="M37.4,184.5c-0.1,0-0.1,0-0.2-0.1c-0.1-0.1-0.1-0.2-0.1-0.2L66.3,76.1c0-0.1,0.1-0.2,0.2-0.2
						c0.1,0,0.2,0.1,0.2,0.2l24,95.1c0,0.1,0,0.1,0,0.2c0,0.1-0.1,0.1-0.2,0.1L37.4,184.5C37.4,184.5,37.4,184.5,37.4,184.5z
						 M66.5,77.1L37.7,183.9l52.5-12.8L66.5,77.1z"/>
				</g>
				<g id="triangle36_1135_">
					<path class="st1" d="M90.5,171.5C90.5,171.5,90.5,171.5,90.5,171.5c-0.2,0-0.2-0.1-0.2-0.2l-24-95.1c0-0.1,0-0.2,0.1-0.3
						c0.1-0.1,0.2-0.1,0.3,0l92.6,45.3c0.1,0,0.1,0.1,0.1,0.2c0,0.1,0,0.2-0.1,0.2l-68.5,49.8C90.6,171.5,90.6,171.5,90.5,171.5z
						 M66.9,76.6l23.8,94.2l67.9-49.4L66.9,76.6z"/>
				</g>
				<g id="triangle36_1134_">
					<path class="st1" d="M-141.7,183.7c-0.1,0-0.1,0-0.2-0.1c-0.1-0.1-0.1-0.1-0.1-0.2l12.4-190.7c0-0.1,0.1-0.2,0.2-0.2
						c0.1,0,0.2,0,0.3,0.1l74.3,176.7c0,0.1,0,0.2,0,0.2c0,0.1-0.1,0.1-0.2,0.1L-141.7,183.7C-141.6,183.7-141.6,183.7-141.7,183.7z
						 M-129.1-6.3l-12.3,189.4l86.1-13.9L-129.1-6.3z"/>
				</g>
				<g id="triangle36_1131_">
					<path class="st1" d="M-54.9,169.7C-55,169.7-55,169.7-54.9,169.7c-0.1,0-0.2-0.1-0.2-0.2L-129.5-7.2c0-0.1,0-0.2,0.1-0.3
						c0.1-0.1,0.2-0.1,0.3-0.1L66.6,75.9c0.1,0,0.1,0.1,0.2,0.2c0,0.1,0,0.2-0.1,0.2l-121.5,93.3C-54.8,169.6-54.9,169.7-54.9,169.7
						z M-128.8-6.9L-54.8,169L66,76.2L-128.8-6.9z"/>
				</g>
				<g id="triangle36_1130_">
					<path class="st1" d="M799.3,404.1C799.3,404.1,799.2,404.1,799.3,404.1c-0.1,0-0.2-0.1-0.2-0.1l-77-168.9c0-0.1,0-0.2,0-0.2
						c0-0.1,0.1-0.1,0.2-0.1l178.3,10.8c0.1,0,0.2,0.1,0.2,0.1c0,0.1,0,0.2,0,0.2L799.5,404C799.4,404.1,799.3,404.1,799.3,404.1z
						 M722.7,235.3l76.6,168.1L900.2,246L722.7,235.3z"/>
				</g>
				<g id="triangle36_1129_">
					<path class="st1" d="M479.7,305.4c-0.1,0-0.1,0-0.2-0.1c-0.1-0.1-0.1-0.2,0-0.3l38.8-84.9c0-0.1,0.1-0.1,0.2-0.1
						c0.1,0,0.2,0.1,0.2,0.1l28.8,58c0,0.1,0,0.1,0,0.2c0,0.1-0.1,0.1-0.1,0.1L479.7,305.4C479.8,305.4,479.8,305.4,479.7,305.4z
						 M518.6,220.9l-38.3,83.8l66.8-26.5L518.6,220.9z"/>
				</g>
				<g id="triangle36_1128_">
					<path class="st1" d="M150.7,183.3C150.7,183.3,150.7,183.3,150.7,183.3l-60.2-11.8c-0.1,0-0.2-0.1-0.2-0.2c0-0.1,0-0.2,0.1-0.3
						l68.5-49.8c0.1-0.1,0.2-0.1,0.3,0c0.1,0.1,0.1,0.1,0.1,0.2L151,183c0,0.1,0,0.1-0.1,0.2C150.8,183.2,150.8,183.3,150.7,183.3z
						 M91.2,171.1l59.4,11.6l8.2-60.7L91.2,171.1z"/>
				</g>
				<g id="triangle36_1126_">
					<path class="st1" d="M285.7,230c0,0-0.1,0-0.1,0c-0.1-0.1-0.1-0.1-0.1-0.2l2.6-24.5c0-0.1,0.1-0.2,0.2-0.2l109.9-46.6
						c0.1-0.1,0.3,0,0.3,0.1c0.1,0.1,0,0.3-0.1,0.3L285.8,230C285.8,230,285.7,230,285.7,230z M288.5,205.5l-2.6,23.8l109.5-69.1
						L288.5,205.5z"/>
				</g>
				<g id="triangle36_1125_">
					<path class="st1" d="M102.9,246.2C102.9,246.2,102.9,246.2,102.9,246.2l-69.7-3.5c-0.1,0-0.1,0-0.2-0.1c0-0.1-0.1-0.1-0.1-0.2
						l4.2-58.1c0-0.1,0.1-0.2,0.2-0.2c0.1,0,0.2,0,0.3,0.1l65.5,61.7c0.1,0.1,0.1,0.2,0.1,0.3C103.1,246.1,103,246.2,102.9,246.2z
						 M33.4,242.2l68.8,3.5l-64.6-60.9L33.4,242.2z"/>
				</g>
				<g id="triangle36_1124_">
					<path class="st1" d="M102.9,246.2c-0.1,0-0.1,0-0.2-0.1l-65.5-61.7c-0.1-0.1-0.1-0.2-0.1-0.2c0-0.1,0.1-0.2,0.2-0.2l53.2-13
						c0.1,0,0.1,0,0.2,0c0.1,0,0.1,0.1,0.1,0.2l12.3,74.7c0,0.1,0,0.2-0.1,0.3C103,246.2,102.9,246.2,102.9,246.2z M37.9,184.4
						l64.6,60.9l-12.2-73.7L37.9,184.4z"/>
				</g>
				<g id="triangle36_1123_">
					<path class="st1" d="M102.9,246.2C102.9,246.2,102.8,246.2,102.9,246.2c-0.2,0-0.2-0.1-0.2-0.2l-12.3-74.7c0-0.1,0-0.2,0.1-0.2
						c0.1-0.1,0.1-0.1,0.2-0.1l60.2,11.8c0.1,0,0.2,0.1,0.2,0.2c0,0.1,0,0.2,0,0.2l-47.9,62.9C103,246.1,103,246.2,102.9,246.2z
						 M90.9,171.6l12.2,73.8l47.3-62.1L90.9,171.6z"/>
				</g>
				<g id="triangle36_1122_">
					<path class="st1" d="M316,389.9c-0.1,0-0.1,0-0.1,0c-0.1,0-0.1-0.1-0.1-0.2l-9.4-117.1c0-0.1,0-0.2,0.1-0.2c0.1,0,0.2,0,0.3,0
						l102.5,93.3c0.1,0.1,0.1,0.2,0.1,0.2c0,0.1-0.1,0.2-0.2,0.2L316,389.9C316.1,389.9,316,389.9,316,389.9z M306.9,273.2
						l9.4,116.1l92.3-23.5L306.9,273.2z"/>
				</g>
				<g id="triangle36_1121_">
					<path class="st1" d="M409.1,366.2c-0.1,0-0.1,0-0.2-0.1l-102.5-93.3c-0.1-0.1-0.1-0.2,0-0.3c0.1-0.1,0.2-0.1,0.3-0.1
						l154.1,64.9c0.1,0,0.1,0.1,0.2,0.2c0,0.1,0,0.2-0.1,0.2l-51.6,28.4C409.2,366.2,409.1,366.2,409.1,366.2z M307.8,273.4
						l101.3,92.2l51-28.1L307.8,273.4z"/>
				</g>
				<g id="triangle36_1120_">
					<path class="st1" d="M460.7,337.8C460.6,337.8,460.6,337.8,460.7,337.8l-154.2-65c-0.1,0-0.2-0.2-0.1-0.3
						c0-0.1,0.2-0.2,0.3-0.2L479.8,305c0.1,0,0.1,0.1,0.2,0.1c0,0.1,0,0.2,0,0.2l-19.1,32.3C460.8,337.7,460.8,337.8,460.7,337.8z
						 M308.8,273.3l151.7,63.9l18.8-31.8L308.8,273.3z"/>
				</g>
				<g id="triangle36_1119_">
					<path class="st1" d="M306.6,272.8C306.6,272.8,306.6,272.8,306.6,272.8c-0.1,0-0.2-0.1-0.2-0.1l-20.9-42.8
						c-0.1-0.1,0-0.3,0.1-0.3l112.6-71.1c0.1-0.1,0.2,0,0.3,0c0.1,0.1,0.1,0.2,0,0.3l-91.7,113.9
						C306.7,272.8,306.6,272.8,306.6,272.8z M286,229.9l20.6,42.3l90.5-112.4L286,229.9z"/>
				</g>
				<g id="triangle36_1118_">
					<path class="st1" d="M460.7,337.8c-0.1,0-0.2,0-0.2-0.1c-0.1-0.1-0.1-0.2,0-0.3l19.1-32.3c0.1-0.1,0.2-0.1,0.3-0.1l51.3,18.8
						c0.1,0,0.2,0.1,0.2,0.3c0,0.1-0.1,0.2-0.2,0.2L460.7,337.8C460.7,337.8,460.7,337.8,460.7,337.8z M479.8,305.5l-18.7,31.7
						l69-13.2L479.8,305.5z"/>
				</g>
				<g id="triangle36_1117_">
					<path class="st1" d="M768.8,410.8C768.7,410.8,768.7,410.8,768.8,410.8L531,324.2c-0.1,0-0.2-0.1-0.2-0.2c0-0.1,0-0.2,0.1-0.2
						l109.2-55.7c0.1-0.1,0.2,0,0.3,0.1L769,410.4c0.1,0.1,0.1,0.2,0,0.3C768.9,410.8,768.9,410.8,768.8,410.8z M531.7,324l236.2,86
						L640.3,268.7L531.7,324z"/>
				</g>
				<g id="triangle36_1116_">
					<path class="st1" d="M531.1,324.3C531,324.3,531,324.3,531.1,324.3l-51.4-18.8c-0.1,0-0.2-0.1-0.2-0.2c0-0.1,0.1-0.2,0.2-0.2
						l67.7-26.9c0.1,0,0.2,0,0.3,0.1c0.1,0.1,0.1,0.2,0.1,0.3l-16.3,45.7c0,0.1-0.1,0.1-0.1,0.1
						C531.1,324.3,531.1,324.3,531.1,324.3z M480.4,305.2l50.5,18.5l16.1-44.9L480.4,305.2z"/>
				</g>
				<g id="triangle36_1115_">
					<path class="st1" d="M531.1,324.3c-0.1,0-0.1,0-0.2-0.1c-0.1-0.1-0.1-0.2-0.1-0.3l16.3-45.7c0-0.1,0.1-0.2,0.2-0.2l92.9-10
						c0.1,0,0.2,0.1,0.3,0.2c0,0.1,0,0.2-0.1,0.3l-109.2,55.7C531.1,324.3,531.1,324.3,531.1,324.3z M547.6,278.6l-16.1,44.9
						L639,268.7L547.6,278.6z"/>
				</g>
				<g id="triangle36_1114_">
					<path class="st1" d="M316,389.9C316,389.9,316,389.9,316,389.9l-62.1-6.8c-0.1,0-0.2-0.1-0.2-0.1c0-0.1,0-0.2,0-0.2l52.7-110.3
						c0-0.1,0.2-0.2,0.3-0.1c0.1,0,0.2,0.1,0.2,0.2l9.4,117.1c0,0.1,0,0.1-0.1,0.2C316.1,389.9,316.1,389.9,316,389.9z M254.3,382.6
						l61.4,6.7l-9.3-115.8L254.3,382.6z"/>
				</g>
				<g id="triangle36_1113_">
					<path class="st1" d="M675.5,501.5c0,0-0.1,0-0.1,0l-155.6-86c-0.1-0.1-0.1-0.2-0.1-0.3c0-0.1,0.1-0.2,0.2-0.2l248.9-4.7
						c0.1,0,0.2,0.1,0.2,0.2c0,0.1,0,0.2-0.1,0.3l-93.3,90.7C675.6,501.5,675.5,501.5,675.5,501.5z M520.8,415.5l154.7,85.4
						l92.7-90.1L520.8,415.5z"/>
				</g>
				<g id="triangle36_1112_">
					<path class="st1" d="M519.8,415.5c0,0-0.1,0-0.1,0L409,366.1c-0.1,0-0.1-0.1-0.1-0.2c0-0.1,0-0.2,0.1-0.2l51.6-28.4
						c0.1-0.1,0.2,0,0.3,0.1l59.2,77.8c0.1,0.1,0.1,0.2,0,0.3C520,415.5,519.9,415.5,519.8,415.5z M409.6,365.9L519,414.6
						l-58.4-76.8L409.6,365.9z"/>
				</g>
				<g id="triangle36_1111_">
					<path class="st1" d="M519.8,415.5c-0.1,0-0.2,0-0.2-0.1l-59.2-77.8c-0.1-0.1-0.1-0.2,0-0.2c0-0.1,0.1-0.1,0.2-0.2l70.4-13.5
						c0.1,0,0.2,0,0.2,0.1c0.1,0.1,0.1,0.1,0.1,0.2l-11.2,91.3C520.1,415.4,520,415.5,519.8,415.5
						C519.9,415.5,519.9,415.5,519.8,415.5z M461.1,337.7l58.5,76.9l11.1-90.3L461.1,337.7z"/>
				</g>
				<g id="triangle36_1110_">
					<path class="st1" d="M519.8,415.5c-0.1,0-0.1,0-0.2-0.1c0-0.1-0.1-0.1-0.1-0.2l11.2-91.3c0-0.1,0.1-0.1,0.1-0.2
						c0.1,0,0.1,0,0.2,0l237.7,86.5c0.1,0,0.2,0.2,0.2,0.3c0,0.1-0.1,0.2-0.2,0.2L519.8,415.5C519.8,415.5,519.8,415.5,519.8,415.5z
						 M531.3,324.4L520.1,415l247.3-4.7L531.3,324.4z"/>
				</g>
				<g id="triangle36_1109_">
					<path class="st1" d="M253.9,383.1C253.9,383.1,253.9,383.1,253.9,383.1c-0.1,0-0.2-0.1-0.2-0.2l-47.5-115.2c0-0.1,0-0.2,0-0.2
						c0-0.1,0.1-0.1,0.2-0.1l100.1,4.9c0.1,0,0.2,0,0.2,0.1s0,0.2,0,0.2l-52.7,110.3C254.1,383,254,383.1,253.9,383.1z M206.8,267.9
						l47.1,114.3l52.2-109.4L206.8,267.9z"/>
				</g>
				<g id="triangle36_1108_">
					<path class="st1" d="M206.5,267.9C206.5,267.9,206.4,267.9,206.5,267.9l-103.6-21.7c-0.1,0-0.2-0.1-0.2-0.2c0-0.1,0-0.2,0-0.2
						l47.9-62.9c0-0.1,0.1-0.1,0.2-0.1c0.1,0,0.2,0,0.2,0.1l55.7,84.6c0.1,0.1,0.1,0.2,0,0.3C206.6,267.9,206.5,267.9,206.5,267.9z
						 M103.3,245.8l102.6,21.5l-55.2-83.8L103.3,245.8z"/>
				</g>
				<g id="triangle36_1107_">
					<path class="st1" d="M306.6,272.8C306.6,272.8,306.6,272.8,306.6,272.8l-100.1-4.9c-0.1,0-0.2-0.1-0.2-0.2c0-0.1,0-0.2,0.1-0.3
						l79.2-37.9c0.1-0.1,0.3,0,0.3,0.1l20.9,42.8c0,0.1,0,0.2,0,0.2C306.7,272.8,306.7,272.8,306.6,272.8z M207.5,267.4l98.7,4.9
						l-20.6-42.2L207.5,267.4z"/>
				</g>
				<g id="triangle36_1106_">
					<path class="st1" d="M206.5,267.9C206.5,267.9,206.4,267.9,206.5,267.9c-0.1,0-0.2-0.1-0.2-0.1l-55.7-84.6
						c-0.1-0.1-0.1-0.2,0-0.3c0.1-0.1,0.2-0.1,0.3-0.1L288.3,205c0.1,0,0.2,0.1,0.2,0.2c0,0.1,0,0.2-0.1,0.3l-81.8,62.4
						C206.6,267.9,206.5,267.9,206.5,267.9z M151.3,183.3l55.3,83.9l81.2-61.8L151.3,183.3z"/>
				</g>
				<g id="triangle36_1105_">
					<path class="st1" d="M206.5,267.9c-0.1,0-0.2,0-0.2-0.1c-0.1-0.1,0-0.3,0.1-0.3l81.8-62.4c0.1-0.1,0.2-0.1,0.3,0
						c0.1,0,0.1,0.1,0.1,0.2l-2.6,24.5c0,0.1-0.1,0.2-0.1,0.2l-79.2,37.9C206.5,267.9,206.5,267.9,206.5,267.9z M288,205.8
						l-79.4,60.5l76.9-36.8L288,205.8z M285.7,229.8L285.7,229.8L285.7,229.8z"/>
				</g>
				<g id="triangle36_1104_">
					<path class="st1" d="M479.7,305.4C479.7,305.4,479.7,305.4,479.7,305.4l-173.2-32.6c-0.1,0-0.2-0.1-0.2-0.2
						c0-0.1,0.1-0.2,0.2-0.3l163-61.8c0.1,0,0.2,0,0.2,0c0.1,0,0.1,0.1,0.1,0.2l10.2,94.4c0,0.1,0,0.2-0.1,0.2
						C479.9,305.4,479.8,305.4,479.7,305.4z M307.5,272.5l172,32.4l-10.1-93.7L307.5,272.5z"/>
				</g>
				<g id="triangle36_1103_">
					<path class="st1" d="M306.6,272.8c-0.1,0-0.2,0-0.2-0.1c-0.1-0.1-0.1-0.2,0-0.3L398,158.5c0.1-0.1,0.2-0.1,0.3,0l71.3,52.1
						c0.1,0.1,0.1,0.1,0.1,0.2c0,0.1-0.1,0.2-0.2,0.2L306.6,272.8C306.6,272.8,306.6,272.8,306.6,272.8z M398.3,159l-90.9,113
						L469,210.8L398.3,159z"/>
				</g>
				<g id="triangle36_1102_">
					<path class="st1" d="M479.7,305.4C479.7,305.4,479.7,305.4,479.7,305.4c-0.2,0-0.2-0.1-0.2-0.2l-10.2-94.4c0-0.1,0-0.2,0.1-0.2
						c0.1-0.1,0.1-0.1,0.2-0.1l49,9.5c0.1,0,0.1,0.1,0.2,0.1c0,0.1,0,0.1,0,0.2L480,305.3C479.9,305.4,479.8,305.4,479.7,305.4z
						 M469.9,211.1l10,93.1l38.3-83.8L469.9,211.1z"/>
				</g>
				<g id="triangle36_1101_">
					<path class="st1" d="M288.3,205.5c0,0-0.1,0-0.1,0c-0.1,0-0.1-0.1-0.1-0.2l-2.8-66.3c0-0.1,0-0.1,0.1-0.2
						c0.1,0,0.1-0.1,0.2-0.1l112.7,19.7c0.1,0,0.2,0.1,0.2,0.2c0,0.1,0,0.2-0.2,0.3L288.3,205.5
						C288.4,205.5,288.3,205.5,288.3,205.5z M285.8,139.3l2.8,65.6l108.8-46.1L285.8,139.3z"/>
				</g>
				<g id="triangle36_1100_">
					<path class="st1" d="M288.3,205.5C288.3,205.5,288.3,205.5,288.3,205.5l-137.6-22.3c-0.1,0-0.2-0.1-0.2-0.2
						c0-0.1,0.1-0.2,0.2-0.3l90.1-31.1c0.1,0,0.2,0,0.3,0.1l47.5,53.4c0.1,0.1,0.1,0.2,0,0.3C288.5,205.5,288.4,205.5,288.3,205.5z
						 M151.8,182.9l135.9,22l-46.9-52.8L151.8,182.9z"/>
				</g>
				<g id="triangle36_1099_">
					<path class="st1" d="M150.7,183.3c-0.1,0-0.1,0-0.2-0.1c-0.1-0.1-0.1-0.1-0.1-0.2l8.4-61.6c0-0.1,0.1-0.1,0.1-0.2
						c0.1,0,0.1,0,0.2,0l81.7,30.5c0.1,0,0.2,0.1,0.2,0.2c0,0.1-0.1,0.2-0.2,0.2L150.7,183.3C150.8,183.3,150.8,183.3,150.7,183.3z
						 M159.3,121.8l-8.3,60.9l89.1-30.8L159.3,121.8z"/>
				</g>
				<g id="triangle36_1098_">
					<path class="st1" d="M288.3,205.5c-0.1,0-0.1,0-0.2-0.1L240.7,152c-0.1-0.1-0.1-0.2-0.1-0.2c0-0.1,0.1-0.1,0.2-0.2l44.7-12.9
						c0.1,0,0.2,0,0.2,0c0.1,0,0.1,0.1,0.1,0.2l2.8,66.3C288.5,205.4,288.5,205.5,288.3,205.5C288.4,205.5,288.3,205.5,288.3,205.5z
						 M241.3,152l46.7,52.6l-2.8-65.3L241.3,152z"/>
				</g>
			</g>
			<g>
				<g id="triangle36_1366_">
					<path class="st1" d="M-274.7,400.7C-274.7,400.7-274.7,400.7-274.7,400.7L-435.8,347c-0.1,0-0.2-0.1-0.2-0.3
						c0-0.1,0.1-0.2,0.2-0.2l135.6-29c0.1,0,0.3,0,0.3,0.2l25.4,82.7c0,0.1,0,0.2-0.1,0.3C-274.6,400.7-274.6,400.7-274.7,400.7z
						 M-434.7,346.8l159.7,53.2l-25.2-82L-434.7,346.8z"/>
				</g>
				<g id="triangle36_1365_">
					<path class="st1" d="M832.7,238.7c-0.1,0-0.2,0-0.2-0.1L674.1,20.8c-0.1-0.1-0.1-0.3,0-0.3c0.1-0.1,0.2-0.1,0.3,0l197,192.2
						c0.1,0.1,0.1,0.1,0.1,0.2c0,0.1,0,0.1-0.1,0.2l-38.6,25.6C832.8,238.7,832.8,238.7,832.7,238.7z M676.3,22.9l156.5,215.3
						l38.1-25.3L676.3,22.9z"/>
				</g>
				<g id="triangle36_1364_">
					<path class="st1" d="M832.7,238.7c0,0-0.1,0-0.1,0L578.7,111c-0.1,0-0.1-0.1-0.1-0.2c0-0.1,0-0.2,0.1-0.2l95.5-90.1
						c0.1,0,0.1-0.1,0.2-0.1c0.1,0,0.1,0,0.2,0.1l158.4,217.8c0.1,0.1,0.1,0.2,0,0.3C832.9,238.7,832.8,238.7,832.7,238.7z
						 M579.2,110.7l252.7,127.1L674.3,21L579.2,110.7z"/>
				</g>
				<g id="triangle36_1363_">
					<path class="st1" d="M-435.7,347c-0.1,0-0.2,0-0.2-0.1c-0.1-0.1-0.1-0.2,0-0.3l118-194.1c0.1-0.1,0.2-0.1,0.3-0.1
						c0.1,0,0.2,0.1,0.2,0.2l17.6,165.1c0,0.1-0.1,0.2-0.2,0.3L-435.7,347C-435.7,347-435.7,347-435.7,347z M-317.9,153.4
						l-117.3,193l134.8-28.8L-317.9,153.4z"/>
				</g>
				<g id="triangle36_1362_">
					<path class="st1" d="M-300.1,318.1c0,0-0.1,0-0.1,0c-0.1,0-0.1-0.1-0.1-0.2L-318,152.7c0-0.1,0.1-0.2,0.2-0.3
						c0.1,0,0.2,0,0.3,0.1l84.2,118.7c0,0.1,0.1,0.1,0,0.2c0,0.1,0,0.1-0.1,0.2l-66.6,46.5C-300,318-300,318.1-300.1,318.1z
						 M-317.4,153.6l17.5,163.8l66-46.1L-317.4,153.6z"/>
				</g>
				<g id="triangle36_1361_">
					<path class="st1" d="M-233.5,271.6c-0.1,0-0.2,0-0.2-0.1l-84.2-118.7c-0.1-0.1-0.1-0.2,0-0.3c0-0.1,0.1-0.1,0.2-0.1l152.3,13
						c0.1,0,0.2,0.1,0.2,0.1c0,0.1,0,0.2,0,0.2l-68.1,105.7C-233.3,271.5-233.4,271.6-233.5,271.6
						C-233.5,271.6-233.5,271.6-233.5,271.6z M-317.2,153l83.7,117.9l67.6-105L-317.2,153z"/>
				</g>
				<g id="triangle36_1360_">
					<path class="st1" d="M-548.1,412.9C-548.1,412.9-548.1,412.9-548.1,412.9c-0.2,0-0.2-0.1-0.2-0.2l-85.1-270.4
						c0-0.1,0-0.2,0.1-0.3c0.1-0.1,0.2,0,0.3,0l197.5,204.6c0.1,0.1,0.1,0.1,0.1,0.2c0,0.1-0.1,0.1-0.1,0.2L-548,412.9
						C-548,412.9-548,412.9-548.1,412.9z M-632.7,143.2l84.7,269.1l111.8-65.5L-632.7,143.2z"/>
				</g>
				<g id="triangle36_1359_">
					<path class="st1" d="M-435.7,347c-0.1,0-0.1,0-0.2-0.1l-197.5-204.6c-0.1-0.1-0.1-0.2,0-0.3c0-0.1,0.1-0.2,0.2-0.1l315.5,10.4
						c0.1,0,0.2,0.1,0.2,0.1c0,0.1,0,0.2,0,0.2l-118,194.1C-435.5,347-435.6,347-435.7,347C-435.7,347-435.7,347-435.7,347z
						 M-632.6,142.5l196.9,203.9l117.6-193.5L-632.6,142.5z"/>
				</g>
				<g id="triangle36_1354_">
					<path class="st1" d="M871.3,213.1c-0.1,0-0.1,0-0.2-0.1l-197-192.2c-0.1-0.1-0.1-0.2-0.1-0.2c0-0.1,0.1-0.2,0.2-0.2l252.4-80.7
						c0.1,0,0.2,0,0.2,0.1c0.1,0.1,0.1,0.1,0.1,0.2l-55.4,272.9C871.5,213,871.5,213.1,871.3,213.1
						C871.3,213.1,871.3,213.1,871.3,213.1z M674.8,20.8l196.4,191.6l55.2-272L674.8,20.8z"/>
				</g>
				<g id="triangle36_1353_">
					<path class="st1" d="M376.5,248.1c0,0-0.1,0-0.1,0c-0.1,0-0.1-0.1-0.1-0.2l8.2-138.2c0-0.1,0.1-0.2,0.2-0.2c0.1,0,0.2,0,0.3,0
						l71,64.8c0.1,0,0.1,0.1,0.1,0.2c0,0.1,0,0.1-0.1,0.2L376.7,248C376.7,248,376.6,248.1,376.5,248.1z M384.9,110.2l-8.1,137
						l78.5-72.8L384.9,110.2z"/>
				</g>
				<g id="triangle36_1352_">
					<path class="st1" d="M-233.5,271.6c-0.1,0-0.2,0-0.2-0.1c-0.1-0.1-0.1-0.2,0-0.3l68.1-105.7c0.1-0.1,0.2-0.1,0.3-0.1
						c0.1,0,0.2,0.1,0.2,0.2l21.5,89.7c0,0.1,0,0.1,0,0.2c0,0.1-0.1,0.1-0.2,0.1L-233.5,271.6C-233.5,271.6-233.5,271.6-233.5,271.6
						z M-165.5,166.3L-233,271l88.7-15.9L-165.5,166.3z"/>
				</g>
				<g id="triangle36_1351_">
					<path class="st1" d="M67.7,247.8C67.7,247.8,67.7,247.8,67.7,247.8c-0.1,0-0.2-0.1-0.2-0.2L58,212.4c0-0.1,0-0.2,0.1-0.2
						l127-123.4c0.1-0.1,0.2-0.1,0.3,0c0.1,0.1,0.1,0.2,0,0.3L67.9,247.7C67.9,247.8,67.8,247.8,67.7,247.8z M58.5,212.4l9.3,34.6
						L183.2,91.3L58.5,212.4z"/>
				</g>
				<g id="triangle36_1350_">
					<path class="st1" d="M-274.7,400.7c0,0-0.1,0-0.1,0c-0.1,0-0.1-0.1-0.1-0.1l-25.4-82.7c0-0.1,0-0.2,0.1-0.3
						c0.1-0.1,0.2-0.1,0.3,0l123.7,50.2c0.1,0,0.2,0.1,0.2,0.2c0,0.1-0.1,0.2-0.2,0.2L-274.7,400.7
						C-274.6,400.7-274.7,400.7-274.7,400.7z M-299.7,318.2l25.2,81.9l97.4-32.2L-299.7,318.2z"/>
				</g>
				<g id="triangle36_1349_">
					<path class="st1" d="M-176.4,368.2C-176.4,368.2-176.5,368.2-176.4,368.2L-300.2,318c-0.1,0-0.1-0.1-0.2-0.2
						c0-0.1,0-0.2,0.1-0.2l66.6-46.5c0.1,0,0.1-0.1,0.2,0c0.1,0,0.1,0.1,0.2,0.1l57.1,96.7c0.1,0.1,0,0.2,0,0.3
						C-176.3,368.2-176.3,368.2-176.4,368.2z M-299.6,317.7l122.6,49.7l-56.6-95.8L-299.6,317.7z"/>
				</g>
				<g id="triangle36_1347_">
					<path class="st1" d="M-176.4,368.2c-0.1,0-0.2,0-0.2-0.1l-57.1-96.7c0-0.1,0-0.2,0-0.2c0-0.1,0.1-0.1,0.2-0.1l89.5-16
						c0.1,0,0.2,0,0.2,0.1c0.1,0.1,0.1,0.2,0.1,0.2L-176.2,368C-176.2,368.1-176.3,368.2-176.4,368.2
						C-176.4,368.2-176.4,368.2-176.4,368.2z M-233.1,271.5l56.6,95.8l32.2-111.7L-233.1,271.5z"/>
				</g>
				<g id="triangle36_1346_">
					<path class="st1" d="M195.4,452.6C195.4,452.6,195.4,452.6,195.4,452.6c-0.1,0-0.2-0.1-0.2-0.1l-75.8-156.8c0-0.1,0-0.2,0-0.3
						c0.1-0.1,0.2-0.1,0.3-0.1l191.8,74.1c0.1,0,0.1,0.1,0.2,0.2c0,0.1,0,0.2-0.1,0.2l-116,82.7
						C195.5,452.6,195.5,452.6,195.4,452.6z M120.1,296l75.4,156l115.3-82.3L120.1,296z"/>
				</g>
				<g id="triangle36_1345_">
					<path class="st1" d="M311.4,369.9C311.3,369.9,311.3,369.9,311.4,369.9l-191.9-74.1c-0.1,0-0.2-0.2-0.2-0.3
						c0-0.1,0.1-0.2,0.3-0.2l247.9,7.2c0.1,0,0.2,0.1,0.2,0.1c0,0.1,0,0.2,0,0.3l-56.1,66.9C311.5,369.9,311.4,369.9,311.4,369.9z
						 M121,295.9l190.3,73.5L367,303L121,295.9z"/>
				</g>
				<g id="triangle36_1344_">
					<path class="st1" d="M367.5,303C367.5,303,367.5,303,367.5,303l-247.9-7.2c-0.1,0-0.2-0.1-0.2-0.2c0-0.1,0.1-0.2,0.2-0.3
						l257-47.8c0.1,0,0.2,0,0.2,0.1c0.1,0.1,0.1,0.1,0.1,0.2l-9,54.9C367.7,302.9,367.6,303,367.5,303z M121.9,295.4l245.4,7.1
						l8.9-54.4L121.9,295.4z"/>
				</g>
				<g id="triangle36_1343_">
					<path class="st1" d="M119.6,295.8c-0.1,0-0.1,0-0.2-0.1l-51.9-48c-0.1-0.1-0.1-0.2,0-0.3L185,88.8c0.1-0.1,0.2-0.1,0.3-0.1
						c0.1,0.1,0.2,0.2,0.1,0.3l-65.7,206.6C119.8,295.7,119.7,295.8,119.6,295.8C119.6,295.8,119.6,295.8,119.6,295.8z M68,247.6
						l51.4,47.6l65.1-204.8L68,247.6z"/>
				</g>
				<g id="triangle36_1330_">
					<path class="st1" d="M367.5,303c0,0-0.1,0-0.1,0c-0.1-0.1-0.1-0.2-0.1-0.2l9-54.9c0-0.1,0.1-0.2,0.2-0.2l81.1-1.5c0,0,0,0,0,0
						c0.1,0,0.2,0.1,0.2,0.2c0,0.1,0,0.2-0.1,0.3L367.6,303C367.6,303,367.5,303,367.5,303z M376.7,248.1l-8.9,54.2l88.9-55.7
						L376.7,248.1z"/>
				</g>
				<g id="triangle36_1329_">
					<path class="st1" d="M457.6,246.6c-0.1,0-0.2-0.1-0.2-0.1c0-0.1,0-0.2,0-0.3l121.2-135.6c0.1-0.1,0.2-0.1,0.3-0.1l253.9,127.8
						c0.1,0.1,0.2,0.2,0.1,0.3c0,0.1-0.1,0.2-0.2,0.2L457.6,246.6C457.6,246.6,457.6,246.6,457.6,246.6z M578.9,111L458.2,246
						l373.5-7.8L578.9,111z"/>
				</g>
				<g id="triangle36_1328_">
					<path class="st1" d="M376.5,248.1c-0.1,0-0.2-0.1-0.2-0.2c0-0.1,0-0.2,0.1-0.3l79.2-73.4c0.1-0.1,0.2-0.1,0.3,0
						c0.1,0,0.2,0.1,0.2,0.2l1.9,71.9c0,0.1,0,0.1-0.1,0.2c0,0-0.1,0.1-0.2,0.1L376.5,248.1C376.5,248.1,376.5,248.1,376.5,248.1z
						 M455.4,175l-78.3,72.6l80.2-1.5L455.4,175z"/>
				</g>
				<g id="triangle36_1324_">
					<path class="st1" d="M457.6,246.6C457.6,246.6,457.5,246.5,457.6,246.6c-0.2-0.1-0.2-0.1-0.3-0.2l-1.9-71.9
						c0-0.1,0-0.2,0.1-0.2l123.1-63.7c0.1-0.1,0.2,0,0.3,0.1c0.1,0.1,0.1,0.2,0,0.3L457.8,246.5
						C457.7,246.5,457.7,246.6,457.6,246.6z M455.9,174.5l1.9,71.1l119.9-134.1L455.9,174.5z"/>
				</g>
				<g id="triangle36_1322_">
					<path class="st1" d="M105.9,476.5c-0.1,0-0.1,0-0.2-0.1c-0.1-0.1-0.1-0.1-0.1-0.2l13.7-180.7c0-0.1,0.1-0.2,0.2-0.2
						c0.1,0,0.2,0,0.3,0.1l75.8,156.8c0,0.1,0,0.1,0,0.2c0,0.1-0.1,0.1-0.2,0.1L105.9,476.5C105.9,476.5,105.9,476.5,105.9,476.5z
						 M119.8,296.5L106.2,476l88.9-23.7L119.8,296.5z"/>
				</g>
				<g id="triangle36_1156_">
					<path class="st1" d="M752.3,414.2C752.3,414.2,752.3,414.2,752.3,414.2L491,378.8c-0.1,0-0.2-0.1-0.2-0.2c0-0.1,0-0.2,0.2-0.3
						l341.7-140c0.1,0,0.2,0,0.3,0.1c0.1,0.1,0.1,0.2,0,0.3l-80.4,175.5C752.5,414.1,752.4,414.2,752.3,414.2z M492,378.4
						l260.2,35.3L832.2,239L492,378.4z"/>
				</g>
				<g id="triangle36_1155_">
					<path class="st1" d="M491,378.8C491,378.8,491,378.8,491,378.8l-179.6-8.9c-0.1,0-0.2-0.1-0.2-0.1c0-0.1,0-0.2,0-0.3l56.1-66.9
						c0.1-0.1,0.2-0.1,0.3-0.1l123.5,75.8c0.1,0.1,0.1,0.2,0.1,0.3C491.2,378.7,491.1,378.8,491,378.8z M311.9,369.5l178.2,8.8
						l-122.5-75.2L311.9,369.5z"/>
				</g>
				<g id="triangle36_1154_">
					<path class="st1" d="M491,378.8c0,0-0.1,0-0.1,0L367.4,303c-0.1,0-0.1-0.1-0.1-0.2c0-0.1,0-0.2,0.1-0.2l90.1-56.4
						c0.1,0,0.2-0.1,0.2,0c0.1,0,0.1,0.1,0.1,0.2l33.4,132.2c0,0.1,0,0.2-0.1,0.3C491.1,378.8,491.1,378.8,491,378.8z M368,302.7
						L490.6,378l-33.2-131.3L368,302.7z"/>
				</g>
				<g id="triangle36_1153_">
					<path class="st1" d="M491,378.8c0,0-0.1,0-0.1,0c-0.1,0-0.1-0.1-0.1-0.2l-33.4-132.2c0-0.1,0-0.2,0-0.2c0-0.1,0.1-0.1,0.2-0.1
						l375.1-7.8c0,0,0,0,0,0c0.1,0,0.2,0.1,0.2,0.2c0,0.1,0,0.2-0.2,0.3L491,378.8C491.1,378.8,491,378.8,491,378.8z M457.9,246.5
						l33.3,131.6l340.2-139.4L457.9,246.5z"/>
				</g>
				<g id="triangle36_1152_">
					<path class="st1" d="M105.9,476.5c-0.1,0-0.1,0-0.2-0.1L-21.7,342.6c-0.1-0.1-0.1-0.1-0.1-0.2c0-0.1,0.1-0.1,0.2-0.2
						l141.1-46.9c0.1,0,0.2,0,0.2,0c0.1,0.1,0.1,0.1,0.1,0.2l-13.7,180.7C106.1,476.4,106.1,476.5,105.9,476.5
						C106,476.5,105.9,476.5,105.9,476.5z M-21.1,342.6l126.7,133.2l13.6-179.8L-21.1,342.6z"/>
				</g>
				<g id="triangle36_1151_">
					<path class="st1" d="M-176.4,368.2c-0.1,0-0.1,0-0.2-0.1c-0.1-0.1-0.1-0.2-0.1-0.2l32.4-112.7c0-0.1,0.1-0.1,0.2-0.2
						c0.1,0,0.2,0,0.2,0l122.5,87.2c0.1,0.1,0.1,0.2,0.1,0.3c0,0.1-0.1,0.2-0.2,0.2L-176.4,368.2
						C-176.4,368.2-176.4,368.2-176.4,368.2z M-143.8,255.7l-32.2,112l153.9-25.4L-143.8,255.7z"/>
				</g>
				<g id="triangle36_1150_">
					<path class="st1" d="M-21.5,342.7c-0.1,0-0.2,0-0.2-0.1c-0.1-0.1,0-0.2,0-0.3l89.2-94.9c0.1-0.1,0.3-0.1,0.4,0l51.9,48
						c0.1,0.1,0.1,0.1,0.1,0.2c0,0.1-0.1,0.2-0.2,0.2L-21.5,342.7C-21.5,342.7-21.5,342.7-21.5,342.7z M67.7,247.9l-88.4,94
						l139.7-46.4L67.7,247.9z"/>
				</g>
				<g id="triangle36_1149_">
					<path class="st1" d="M-21.5,342.7c-0.1,0-0.1,0-0.1,0l-122.5-87.2c-0.1-0.1-0.1-0.2-0.1-0.3c0-0.1,0.1-0.2,0.2-0.2l202.2-43
						c0.1,0,0.2,0,0.3,0.1c0.1,0.1,0.1,0.2,0,0.3l-79.7,130.1C-21.3,342.6-21.4,342.7-21.5,342.7C-21.5,342.7-21.5,342.7-21.5,342.7
						z M-143.4,255.4l121.8,86.7l79.3-129.4L-143.4,255.4z"/>
				</g>
				<g id="triangle36_1148_">
					<path class="st1" d="M-21.5,342.7c-0.1,0-0.1,0-0.2-0.1c-0.1-0.1-0.1-0.2-0.1-0.3L58,212.2c0.1-0.1,0.1-0.1,0.2-0.1
						c0.1,0,0.2,0.1,0.2,0.2l9.5,35.2c0,0.1,0,0.2-0.1,0.2l-89.2,94.9C-21.4,342.7-21.4,342.7-21.5,342.7z M58.1,213L-20,340.5
						l87.4-93L58.1,213z"/>
				</g>
				<g id="triangle36_1147_">
					<path class="st1" d="M119.6,295.8c-0.1,0-0.2-0.1-0.2-0.1c0-0.1,0-0.2,0.1-0.3l192.3-172.8c0.1-0.1,0.1-0.1,0.2-0.1
						c0.1,0,0.1,0.1,0.2,0.1l64.7,125.1c0,0.1,0,0.2,0,0.2c0,0.1-0.1,0.1-0.2,0.1L119.6,295.8C119.6,295.8,119.6,295.8,119.6,295.8z
						 M311.8,123.2l-191.4,172l255.8-47.5L311.8,123.2z"/>
				</g>
				<g id="triangle36_1146_">
					<path class="st1" d="M119.6,295.8c0,0-0.1,0-0.1,0c-0.1-0.1-0.1-0.2-0.1-0.3L185,88.9c0-0.1,0.2-0.2,0.3-0.2l126.6,33.8
						c0.1,0,0.2,0.1,0.2,0.2c0,0.1,0,0.2-0.1,0.2L119.7,295.8C119.7,295.8,119.6,295.8,119.6,295.8z M185.4,89.2l-65.3,205.5
						l191.3-171.9L185.4,89.2z"/>
				</g>
				<g id="triangle36_1145_">
					<path class="st1" d="M376.5,248.1c-0.1,0-0.2-0.1-0.2-0.1l-64.7-125.1c0-0.1,0-0.2,0-0.2c0-0.1,0.1-0.1,0.2-0.1l72.8-13.1
						c0.1,0,0.2,0,0.2,0.1c0.1,0.1,0.1,0.1,0.1,0.2l-8.2,138.2C376.8,247.9,376.7,248,376.5,248.1
						C376.6,248.1,376.5,248.1,376.5,248.1z M312.2,123l64.1,123.9l8.1-137L312.2,123z"/>
				</g>
				<g id="triangle36_1144_">
					<path class="st1" d="M58.2,212.6C58.2,212.6,58.2,212.6,58.2,212.6c-0.1,0-0.2-0.1-0.2-0.1l-39.4-90.2c0-0.1,0-0.1,0-0.2
						c0-0.1,0.1-0.1,0.2-0.1l166.5-33.2c0.1,0,0.2,0,0.3,0.1c0.1,0.1,0,0.2,0,0.3l-127,123.4C58.3,212.6,58.3,212.6,58.2,212.6z
						 M19.1,122.3l39.2,89.6L184.5,89.4L19.1,122.3z"/>
				</g>
				<g id="triangle36_1143_">
					<path class="st1" d="M-144,255.5c-0.1,0-0.2-0.1-0.2-0.1c-0.1-0.1,0-0.2,0.1-0.3l107.9-91.4c0.1-0.1,0.2-0.1,0.3,0l94.3,48.4
						c0.1,0,0.1,0.2,0.1,0.3c0,0.1-0.1,0.2-0.2,0.2L-144,255.5C-143.9,255.5-143.9,255.5-144,255.5z M-36,164.2l-107,90.6
						l200.5-42.6L-36,164.2z"/>
				</g>
				<g id="triangle36_1142_">
					<path class="st1" d="M-144,255.5C-144,255.5-144,255.5-144,255.5c-0.2,0-0.2-0.1-0.2-0.2l-21.5-89.7c0-0.1,0-0.2,0-0.2
						c0-0.1,0.1-0.1,0.2-0.1l129.4-1.7c0.1,0,0.2,0.1,0.2,0.2c0,0.1,0,0.2-0.1,0.3l-107.9,91.4C-143.8,255.5-143.9,255.5-144,255.5z
						 M-165.1,165.9l21.3,89l107.1-90.7L-165.1,165.9z"/>
				</g>
				<g id="triangle36_1141_">
					<path class="st1" d="M58.2,212.6c0,0-0.1,0-0.1,0l-94.3-48.4c-0.1,0-0.1-0.1-0.1-0.2c0-0.1,0-0.2,0.1-0.2l54.8-41.8
						c0.1,0,0.1-0.1,0.2,0c0.1,0,0.1,0.1,0.2,0.1l39.4,90.2c0,0.1,0,0.2-0.1,0.3C58.3,212.6,58.3,212.6,58.2,212.6z M-35.6,163.9
						l93.3,47.9l-39-89.3L-35.6,163.9z"/>
				</g>
			</g>
		</g>
		<path class="st2" d="M578.2,171.6c0,1.9-1.6,3.5-3.5,3.5c-1.9,0-3.5-1.6-3.5-3.5c0-1.9,1.6-3.5,3.5-3.5
			C576.6,168.2,578.2,169.7,578.2,171.6z"/>
	</g>
	<path class="st3" d="M486.2,194.1c0,1.7-1.4,3.2-3.2,3.2c-1.7,0-3.2-1.4-3.2-3.2c0-1.7,1.4-3.2,3.2-3.2
		C484.7,190.9,486.2,192.4,486.2,194.1z"/>
	<path class="st3" d="M471.1,173.2c0,1.7-1.4,3.1-3.1,3.1c-1.7,0-3.1-1.4-3.1-3.1c0-1.7,1.4-3.1,3.1-3.1
		C469.7,170,471.1,171.4,471.1,173.2z"/>
	<path class="st3" d="M553.9,224c0,1.6-1.3,3-3,3c-1.6,0-3-1.3-3-3c0-1.6,1.3-3,3-3C552.6,221.1,553.9,222.4,553.9,224z"/>
	<circle class="st3" cx="479.7" cy="233" r="3.1"/>
	<circle class="st3" cx="423.3" cy="208.3" r="1.6"/>
	<circle class="st3" cx="281" cy="202.5" r="5"/>
	<path class="st3" d="M367,218.5c0,1-0.8,1.8-1.8,1.8c-1,0-1.8-0.8-1.8-1.8c0-1,0.8-1.8,1.8-1.8C366.2,216.7,367,217.5,367,218.5z"
		/>
	<path class="st3" d="M368.1,240.7c0,2.1-1.7,3.9-3.9,3.9c-2.1,0-3.9-1.7-3.9-3.9c0-2.1,1.7-3.9,3.9-3.9
		C366.3,236.8,368.1,238.6,368.1,240.7z"/>
	<path class="st3" d="M276.8,127.8c0,1.1-0.9,2-2,2c-1.1,0-2-0.9-2-2c0-1.1,0.9-2,2-2C275.9,125.9,276.8,126.8,276.8,127.8z"/>
	<path class="st3" d="M268.4,231.7c0,2.2-1.8,3.9-3.9,3.9c-2.2,0-3.9-1.8-3.9-3.9c0-2.2,1.8-3.9,3.9-3.9
		C266.6,227.8,268.4,229.5,268.4,231.7z"/>
	<circle class="st3" cx="185.9" cy="177.2" r="2.8"/>
	<path class="st3" d="M194.9,269.1c0,1.6-1.3,2.8-2.8,2.8c-1.6,0-2.8-1.3-2.8-2.8c0-1.6,1.3-2.8,2.8-2.8
		C193.6,266.3,194.9,267.6,194.9,269.1z"/>
	<circle class="st3" cx="57.8" cy="215" r="4.8"/>
	<path class="st3" d="M17,159.2c0,2.2-1.8,4.1-4.1,4.1c-2.2,0-4.1-1.8-4.1-4.1c0-2.2,1.8-4.1,4.1-4.1C15.2,155.2,17,157,17,159.2z"
		/>
	<path class="st3" d="M38.2,135.7c0,2.1-1.7,3.9-3.9,3.9c-2.1,0-3.9-1.7-3.9-3.9c0-2.1,1.7-3.9,3.9-3.9
		C36.5,131.9,38.2,133.6,38.2,135.7z"/>
	<path class="st4" d="M549.9,238.9c0,0.8-0.6,1.4-1.4,1.4c-0.8,0-1.4-0.6-1.4-1.4c0-0.8,0.6-1.4,1.4-1.4
		C549.2,237.4,549.9,238.1,549.9,238.9z"/>
	<path class="st4" d="M501.5,266.8c0,1.6-1.3,2.9-2.9,2.9c-1.6,0-2.9-1.3-2.9-2.9c0-1.6,1.3-2.9,2.9-2.9
		C500.2,263.9,501.5,265.2,501.5,266.8z"/>
	<path class="st4" d="M427.4,133.3c0,2.3-1.9,4.2-4.2,4.2c-2.3,0-4.2-1.9-4.2-4.2c0-2.3,1.9-4.2,4.2-4.2
		C425.5,129,427.4,130.9,427.4,133.3z"/>
	<circle class="st4" cx="419.6" cy="166.1" r="2.3"/>
	<path class="st4" d="M337.7,129.3c0,1.4-1.1,2.5-2.5,2.5c-1.4,0-2.5-1.1-2.5-2.5c0-1.4,1.1-2.5,2.5-2.5
		C336.5,126.8,337.7,127.9,337.7,129.3z"/>
	<circle class="st4" cx="313.5" cy="144.8" r="4.6"/>
	<path class="st4" d="M268.7,252.9c0,1.9-1.6,3.5-3.5,3.5c-1.9,0-3.5-1.6-3.5-3.5c0-1.9,1.6-3.5,3.5-3.5
		C267.1,249.4,268.7,251,268.7,252.9z"/>
	<circle class="st4" cx="197.1" cy="196.5" r="3.8"/>
	<path class="st4" d="M231.7,137.7c0,2-1.6,3.6-3.6,3.6c-2,0-3.6-1.6-3.6-3.6c0-2,1.6-3.6,3.6-3.6
		C230.1,134.1,231.7,135.7,231.7,137.7z"/>
	<path class="st4" d="M128.8,197.2c0,2.2-1.8,4.1-4.1,4.1c-2.2,0-4.1-1.8-4.1-4.1c0-2.2,1.8-4.1,4.1-4.1
		C127,193.1,128.8,194.9,128.8,197.2z"/>
	<path class="st4" d="M151,222.6c0,1.6-1.3,2.8-2.8,2.8c-1.6,0-2.8-1.3-2.8-2.8c0-1.6,1.3-2.8,2.8-2.8
		C149.7,219.8,151,221,151,222.6z"/>
	<path class="st4" d="M47.7,189.8c0,0.9-0.7,1.6-1.6,1.6c-0.9,0-1.6-0.7-1.6-1.6c0-0.9,0.7-1.6,1.6-1.6
		C47,188.2,47.7,188.9,47.7,189.8z"/>
	<circle class="st4" cx="45.5" cy="155.7" r="4.8"/>
	<circle class="st5" cx="525.8" cy="110" r="3.4"/>
	<circle class="st5" cx="519.5" cy="177.7" r="2.7"/>
	<circle class="st5" cx="538.4" cy="196.9" r="3.3"/>
	<path class="st5" d="M524.4,199c0,1.7-1.4,3-3,3c-1.7,0-3-1.4-3-3c0-1.7,1.4-3,3-3C523,196,524.4,197.3,524.4,199z"/>
	<path class="st5" d="M453.4,251.3c0,2.6-2.1,4.8-4.8,4.8c-2.6,0-4.8-2.1-4.8-4.8c0-2.6,2.1-4.8,4.8-4.8
		C451.2,246.5,453.4,248.7,453.4,251.3z"/>
	<path class="st5" d="M404,229.5c0,2.3-1.8,4.1-4.1,4.1c-2.3,0-4.1-1.8-4.1-4.1c0-2.3,1.8-4.1,4.1-4.1
		C402.2,225.4,404,227.2,404,229.5z"/>
	<circle class="st5" cx="398.7" cy="190.9" r="4.2"/>
	<circle class="st5" cx="352.7" cy="146.9" r="4.8"/>
	<path class="st5" d="M373.4,117.8c0,0.9-0.7,1.7-1.7,1.7c-0.9,0-1.7-0.7-1.7-1.7c0-0.9,0.7-1.7,1.7-1.7
		C372.6,116.1,373.4,116.9,373.4,117.8z"/>
	<path class="st5" d="M296.6,232c0,0.8-0.7,1.5-1.5,1.5c-0.8,0-1.5-0.7-1.5-1.5c0-0.8,0.7-1.5,1.5-1.5
		C295.9,230.6,296.6,231.2,296.6,232z"/>
	<path class="st5" d="M164.7,185.6c0,1.8-1.5,3.3-3.3,3.3c-1.8,0-3.3-1.5-3.3-3.3c0-1.8,1.5-3.3,3.3-3.3
		C163.2,182.2,164.7,183.7,164.7,185.6z"/>
	<circle class="st5" cx="117" cy="259.9" r="3.3"/>
	<circle class="st5" cx="202.5" cy="174.6" r="2.7"/>
	<path class="st5" d="M152.6,147.6c0,2.3-1.9,4.2-4.2,4.2c-2.3,0-4.2-1.9-4.2-4.2c0-2.3,1.9-4.2,4.2-4.2
		C150.8,143.4,152.6,145.3,152.6,147.6z"/>
	<path class="st5" d="M108.4,110.6c0,2.5-2,4.5-4.5,4.5c-2.5,0-4.5-2-4.5-4.5c0-2.5,2-4.5,4.5-4.5
		C106.4,106.1,108.4,108.1,108.4,110.6z"/>
	<path class="st5" d="M192.5,112.2c0,1.6-1.3,2.8-2.8,2.8c-1.6,0-2.8-1.3-2.8-2.8c0-1.6,1.3-2.8,2.8-2.8
		C191.2,109.4,192.5,110.6,192.5,112.2z"/>
	<path class="st3" d="M107.9,278.9c0,2.5-2.1,4.6-4.6,4.6c-2.5,0-4.6-2.1-4.6-4.6c0-2.5,2.1-4.6,4.6-4.6
		C105.8,274.3,107.9,276.4,107.9,278.9z"/>
</g>
</svg>
